<svg xmlns="http://www.w3.org/2000/svg" xmlns:xlink="http://www.w3.org/1999/xlink" x="0px" y="0px"
	 viewBox="0 0 812 464" enable-background="new 0 0 812 464" xml:space="preserve">
<g id="Layer_2"></g>
<g id="Layer_1">
	<g>
			<radialGradient id="SVGID_1_" cx="9133.9023" cy="109.2951" r="47.5572" gradientTransform="matrix(2.0114 1.6302 -0.83 0.6495 -17822.5723 -14650.3916)" gradientUnits="userSpaceOnUse">
			<stop offset="0" style="stop-color:#000000"/>
			<stop offset="0.6244" style="stop-color:#5F6163;stop-opacity:0.3499"/>
			<stop offset="0.9604" style="stop-color:#8E9093;stop-opacity:0"/>
		</radialGradient>
		<path opacity="0.78" fill="url(#SVGID_1_)" d="M363.4,233.6c-21.8,17.1,3.4,65.6,56.2,108.4s113.3,63.7,135.1,46.6
			s-3.4-65.6-56.2-108.4C445.7,237.4,385.2,216.5,363.4,233.6z"/>
		
			<radialGradient id="SVGID_2_" cx="9106.7676" cy="-420.6312" r="30.8462" gradientTransform="matrix(1.8493 1.8076 -0.569 0.303 -16587.3359 -15989.4814)" gradientUnits="userSpaceOnUse">
			<stop  offset="0" style="stop-color:#000000"/>
			<stop  offset="0.6244" style="stop-color:#5F6163;stop-opacity:0.3499"/>
			<stop  offset="0.9604" style="stop-color:#8E9093;stop-opacity:0"/>
		</radialGradient>
		<path opacity="0.59" fill="url(#SVGID_2_)" d="M435.9,289.1c-9.7,5.2,8,34.3,39.5,65.1s64.9,51.6,74.6,46.4
			c9.7-5.2-8-34.3-39.5-65.1S445.6,283.9,435.9,289.1z"/>
		
			<radialGradient id="SVGID_3_" cx="8381.6133" cy="-4279.3169" r="32.0377" gradientTransform="matrix(-0.1312 2.2255 -0.5794 -0.2074 -848.2382 -19214.3574)" gradientUnits="userSpaceOnUse">
			<stop  offset="0" style="stop-color:#000000"/>
			<stop  offset="0.6244" style="stop-color:#5F6163;stop-opacity:0.3499"/>
			<stop  offset="0.9604" style="stop-color:#8E9093;stop-opacity:0"/>
		</radialGradient>
		<path opacity="0.59" fill="url(#SVGID_3_)" d="M535,263.1c-9.9-3.5-19.7,24.3-21.9,62.3s4,71.5,13.8,75
			c9.9,3.5,19.7-24.3,21.9-62.3c0.8-12.9-0.9-62-1.9-72.9C545,244.2,541.5,265.5,535,263.1z"/>
		
			<radialGradient id="SVGID_4_" cx="9547.8428" cy="1643.9437" r="30.8462" gradientTransform="matrix(1.8906 0.6477 -0.3872 0.603 -16982.0176 -6858.9839)" gradientUnits="userSpaceOnUse">
			<stop  offset="0" style="stop-color:#000000"/>
			<stop  offset="0.6244" style="stop-color:#5F6163;stop-opacity:0.3499"/>
			<stop  offset="0.9604" style="stop-color:#8E9093;stop-opacity:0"/>
		</radialGradient>
		<path opacity="0.44" fill="url(#SVGID_4_)" d="M374,296.8c-6.6,10.3,14.2,27.5,46.4,38.6s63.7,11.7,70.3,1.4
			c6.6-10.3-14.2-27.5-46.4-38.6C412.1,287.1,380.6,286.5,374,296.8z"/>
		
			<radialGradient id="SVGID_5_" cx="9117.3457" cy="531.4304" r="47.5572" gradientTransform="matrix(2.2294 1.3166 -0.7254 0.7645 -19573.8301 -12186.4521)" gradientUnits="userSpaceOnUse">
			<stop  offset="0" style="stop-color:#000000"/>
			<stop  offset="0.6244" style="stop-color:#5F6163;stop-opacity:0.3499"/>
			<stop  offset="0.9604" style="stop-color:#8E9093;stop-opacity:0"/>
		</radialGradient>
		<path fill="url(#SVGID_5_)" d="M260.5,161.5c-19.1,20.1,13,64.4,71.5,99s121.5,46.3,140.5,26.3c19.1-20.1-13-64.4-71.5-99
			S279.6,141.4,260.5,161.5z"/>
		<polygon fill="#F4C848" points="536.3,385.9 391.3,308.5 391.3,191.8 536.3,269.2 		"/>
		<rect x="249.5" y="222.7" fill="#333333" width="269.3" height="57.2"/>
		<text transform="matrix(1 0 0 1 265.5713 268.5437)">
      <tspan x="0" y="0" fill="#F3F3F3" font-family="'GIZGravurTTCyr-CondBold'" font-size="52">E</tspan>
      <tspan x="28.8" y="0" fill="#F3F3F3" font-family="'GIZGravurTTCyr-CondBold'" font-size="52">C</tspan>
      <tspan x="58" y="0" fill="#F3F3F3" font-family="'GIZGravurTTCyr-CondBold'" font-size="52">O</tspan>
      <tspan x="87" y="0" fill="#F3F3F3" font-family="'GIZGravurTTCyr-CondBold'" font-size="52">C</tspan>
      <tspan x="116" y="0" fill="#F3F3F3" font-family="'GIZGravurTTCyr-CondBold'" font-size="52">    2030</tspan>
    </text>
		
			<radialGradient id="SVGID_6_" cx="9157.5283" cy="-2960.7896" r="47.5572" gradientTransform="matrix(0.171 1.3693 -0.7434 -6.043163e-02 -3380.9905 -12514.5664)" gradientUnits="userSpaceOnUse">
			<stop  offset="0" style="stop-color:#000000"/>
			<stop  offset="0.6244" style="stop-color:#5F6163;stop-opacity:0.3499"/>
			<stop  offset="0.9604" style="stop-color:#8E9093;stop-opacity:0"/>
		</radialGradient>
		<path opacity="0.64" fill="url(#SVGID_6_)" d="M377.7,138.5c-19.5-1.6-31.7,26.3-27.2,62.2c4.5,36,24,66.4,43.5,68
			c19.5,1.6,31.7-26.3,27.2-62.2C416.7,170.5,397.2,140.1,377.7,138.5z"/>
		<polygon fill="#F4C848" points="395.4,256.7 250.4,179.3 250.4,62.6 395.4,140 		"/>
	</g>
</g>
</svg>
