<?xml version="1.0" encoding="utf-8"?>
<!-- Generator: Adobe Illustrator 18.0.0, SVG Export Plug-In . SVG Version: 6.00 Build 0)  -->
<!DOCTYPE svg PUBLIC "-//W3C//DTD SVG 1.1//EN" "http://www.w3.org/Graphics/SVG/1.1/DTD/svg11.dtd">
<svg version="1.1" xmlns="http://www.w3.org/2000/svg" xmlns:xlink="http://www.w3.org/1999/xlink" x="0px" y="0px"
	 viewBox="0 0 67.3 1080" enable-background="new 0 0 67.3 1080" xml:space="preserve">
<g id="Layer_2">
</g>
<g id="Layer_1">
	<g>
		<defs>
			<rect id="SVGID_39_" x="-16.8" y="-9" width="84.7" height="1089.1"/>
		</defs>
		<clipPath id="SVGID_1_">
			<use xlink:href="#SVGID_39_"  overflow="visible"/>
		</clipPath>
		<polygon clip-path="url(#SVGID_1_)" fill="#F4C848" points="67.4,44.4 -0.1,8.4 -0.1,-45.8 67.4,-9.8 		"/>
		<polygon clip-path="url(#SVGID_1_)" fill="#F4C848" points="67.4,135.2 -0.1,99.2 -0.1,44.9 67.4,80.9 		"/>
		<polygon clip-path="url(#SVGID_1_)" fill="#F4C848" points="67.4,226 -0.1,190 -0.1,135.7 67.4,171.7 		"/>
		<polygon clip-path="url(#SVGID_1_)" fill="#F4C848" points="67.4,316.7 -0.1,280.7 -0.1,226.5 67.4,262.5 		"/>
		<polygon clip-path="url(#SVGID_1_)" fill="#F4C848" points="67.4,407.5 -0.1,371.5 -0.1,317.2 67.4,353.2 		"/>
		<polygon clip-path="url(#SVGID_1_)" fill="#F4C848" points="67.4,498.2 -0.1,462.2 -0.1,408 67.4,444 		"/>
		<polygon clip-path="url(#SVGID_1_)" fill="#F4C848" points="67.4,589 -0.1,553 -0.1,498.7 67.4,534.7 		"/>
		<polygon clip-path="url(#SVGID_1_)" fill="#F4C848" points="67.4,679.8 -0.1,643.8 -0.1,589.5 67.4,625.5 		"/>
		<polygon clip-path="url(#SVGID_1_)" fill="#F4C848" points="67.4,770.5 -0.1,734.5 -0.1,680.3 67.4,716.3 		"/>
		<polygon clip-path="url(#SVGID_1_)" fill="#F4C848" points="67.4,861.3 -0.1,825.3 -0.1,771 67.4,807 		"/>
		<polygon clip-path="url(#SVGID_1_)" fill="#F4C848" points="67.4,913.7 -0.1,877.7 -0.1,823.5 67.4,859.5 		"/>
		<polygon clip-path="url(#SVGID_1_)" fill="#F4C848" points="67.4,952 -0.1,916 -0.1,861.8 67.4,897.8 		"/>
		<polygon clip-path="url(#SVGID_1_)" fill="#F4C848" points="67.4,998.4 -0.1,962.4 -0.1,908.2 67.4,944.2 		"/>
		<polygon clip-path="url(#SVGID_1_)" fill="#F4C848" points="67.4,1042.8 -0.1,1006.8 -0.1,952.5 67.4,988.5 		"/>
		<polygon clip-path="url(#SVGID_1_)" fill="#F4C848" points="67.4,1133.6 -0.1,1097.6 -0.1,1043.3 67.4,1079.3 		"/>
	</g>
</g>
</svg>
