<?xml version="1.0" encoding="UTF-8"?>
<svg id="_Шар_2" data-name="Шар 2" xmlns="http://www.w3.org/2000/svg" viewBox="0 0 368.09 167.68">
  <defs>
    <style>
      .cls-1 {
        fill: #292828;
      }

      .cls-1, .cls-2, .cls-3 {
        fill-rule: evenodd;
      }

      .cls-1, .cls-2, .cls-3, .cls-4 {
        stroke-width: 0px;
      }

      .cls-2 {
        fill: #005899;
      }

      .cls-3, .cls-4 {
        fill: #fc0;
      }
    </style>
  </defs>
  <g id="_1" data-name="1">
    <path class="cls-2" d="m130.75,98.15v.37c0,38.2-29.27,69.16-65.37,69.17C29.28,167.68,0,136.71,0,98.52v-.37s0,0,0,0V0h130.76v98.15h0Z"/>
    <path class="cls-3" d="m49.46,123.97c.3-.26.46-.7.47-1.12-.17.27-.88.27-1.02.27.17.24.42.53.55.84Z"/>
    <path class="cls-3" d="m60.22,114.13c-.32-.73-.95-1.52-1.27-2.24-.52.7-1.74,2.14-2.27,2.52-.06.05,1.78-.4,3.54-.28Z"/>
    <path class="cls-3" d="m46.22,125.15c.19-.37.38-.92.52-1.12-.43.12-.82.23-1.22.06.07.29.4.81.7,1.05Z"/>
    <path class="cls-3" d="m56.28,114.72c-.4.3-.78.6-1.17.92,1.14.22,2.71.2,3.83-.02-.73-.37-1.89-.67-2.66-.9Z"/>
    <path class="cls-3" d="m85.54,118.76c0-.27-.53-1.32-.77-1.24-.51.24-1.09.33-1.53.71.02-.06,1.74.15,2.3.53Z"/>
    <path class="cls-3" d="m32.2,104.07c.22,0,.71.36.88.51,0-.33-.01-.72.18-1.03-.34,0-.8.26-1.07.52Z"/>
    <path class="cls-3" d="m33.46,107.8c-.17.2-.41.48-.48,1.24.29-.13.68-.25,1.11-.3-.34-.22-.5-.53-.63-.94Z"/>
    <path class="cls-3" d="m72.04,120.29c-.42.25-.8.66-1.04,1.12.45.07.74.23,1.3.51-.26-.6-.2-1.06-.26-1.62Z"/>
    <path class="cls-3" d="m41.98,124.04c-.28-.12-.63-.33-.85-.55-.09.22-.19.75-.11,1.13.28-.26.55-.48.96-.58Z"/>
    <path class="cls-3" d="m40.29,120.67c-.1-.07-.25-1.29-.26-1.29-.25.14-.74.83-.91,1.12.49-.09.98.1,1.17.17Z"/>
    <path class="cls-3" d="m98.63,115.02c.38-.13,1.05-.24,1.27-.64-2.1.09-1.34-1.46-2.46-1.72-1.24-.21-2.26-.24-3.14-1.22-1.19-1.33-1.22-2.99-1.13-4.8.5.27,1.01.51,1.58.58-.87-.69-1.5-1.49-2.11-2.37.53.04,1.12.07,1.66.01-.35-.23-1.99-1.95-1.98-1.91.11.69.14,1.33.16,2,.02,1.09-.02,2.17.08,3.26.24,1.9.6,3.56,2.59,4.48.59.2,1.19.37,1.77.58.91.53,1.18,1.02,1.03,2.16-.21,1.56-.29,2.8.4,4.4-1.46-1.71-1.61-2.5-1.21-4.58-.01-.45-.05-.7-.42-.99-.53-.24-1.11-.38-1.68-.55-1.94-.9-2.77-1.95-3.23-4.06-.24-1.61-.27-3.23-.33-4.86-.05-1.17-.12-2.29-.31-3.44h0s-.16-.7-.16-.7c.44.55.96,1.19,1.22,1.85.63.18,1.2.28,1.82.32-.67-1.2-1.27-2.19-2.53-2.86,2.09.2,4.83.44,6.42-1.21,1.1-1.13,1.11-2.86.12-4.39-1.91-2.15-4.97-3.09-7.48-4.29-.04.29-.16.53-.32.76,1.72.91,3.46,1.77,5.16,2.71,1.32.76,2.7,1.64,2.22,3.45-.84,3.11-5.55,1.63-7.32.74-3.5-1.68-7.11-2.17-10.94-2.09-2.69.11-5.37.4-8.06.62.24.47.54.92.82,1.37-1.83-.09-2.85-.81-2.89-.75-.04.39-.02.86,0,1.27-1.11-.18-1.75-.5-2.47-1.37-.95,2.36-2.67,4.14-4.79,5.48l-.64-1.55c-.98,1.86-2.95,2.71-3.47,4.9-.92-.18-1.53-.82-1.88-1.71-.29,1.56-.11,2.48.5,3.88-.98.2-1.9.32-2.85-.14-.37,2.54-1.23,4.64-3.58,6.04l-2.4,3.1c-1.17,1.53-2.09,2.46-4.19,2.22-1.5-.21-3.27-.31-2.48,1.49l.02.04c.9-.81,1.81-.55,2.9-.37-.93.37-1.79.49-2.13,1.01-.82,1.2.18,2.74,2.26,1.76.2-1.3.65-2.19,2.03-2.47-.4.61-1.73,2.63-.32,2.97,1.06.24,1.59-1.26,1.86-2,1.49,1.69,2.75.65,2.04-1.26,1.53-.77,3-1.66,4.45-2.57.65.21,1.18.34,1.87.23l-.03-.02c-.53-.53-.99-1.09-1.41-1.72-1.29,1.08-2.8,2.35-4.2,2.4,3.4-3.11,8.98-6.31,9.49-11.13.29.86.36,1.19.31,2.23,3.37-.14,6.89-1.87,9.71-3.62-1.82,2.9-6.76,4.5-10.05,4.44-.14.44-.51.96-.74,1.36,1.22.79,5.41.28,6.05.19-.25-.63-.32-1.11-.34-1.79.76.18,1.63.26,2.41.25-.4-.32-.77-.59-1.06-.98l7.1-3.66c1.6-.81,3.09-1.54,4.87-1.7,2.32.05,3.7,1.28,4.76,3.13.82,1.57,1.52,3.2,2.47,4.7,1.68,2.33,3.08,3.08,5.63,3.8,1.17.34,2.29.77,3.21,1.74.63.99,1.08,2.08.65,3.04-.86,1.97-4.53-.79-4.73,1.76.06.54.45.83,1,.96.38-1.48,1.57-1.27,2.75-.8-1.81,0-2.02,1.5-1.46,2.2.4.49,1.1.6,1.7-.06.54-.62.26-1.96,1.59-2.36-.23.45-.34,1.16-.17,1.68.22.63.94.83,1.35.26.32-.44.25-1.18.18-1.79,1.95-.05,2.3-1.02,2.19-2.21-.1-.99-.53-2.12-.66-3.03.67-.16,1.19-.36,1.67-.93-.78-.15-1.13-.54-1.6-1.16h0Zm-35.75-7.12c.95-1.22,1.45-2.12,1.48-3.76,1.86,1.61-.21,3.74-1.48,3.76h0Zm1.96-.43c1.23-1.51,1.65-2.45,1.56-4.31,2.28,2.12.31,3.53-1.56,4.31h0Zm2.37-.78c1-1.2,1.34-2.04,1.29-3.7,2.08,1.9.54,3.33-1.29,3.7h0Zm16.27-1.48c-.76-1.71-1.93-2.79-3.12-4.19,1.79.42,2.75,1.29,3.69,2.89.58,1.2.96,2.48,1.34,3.75-.98-.48-1.44-1.42-1.91-2.45Z"/>
    <path class="cls-3" d="m95.83,125.11c.24.35.42.55.88.88.04-.39.18-.75.32-1.11-.29.33-.67.44-1.2.24Z"/>
    <path class="cls-3" d="m98.98,123.63c.24-.48.3-.72.3-1.11-.25.27-.43.36-.87.46l.56.65Z"/>
    <path class="cls-3" d="m35.94,101.15c-.12-.22-.83-.37-.93-.39.13.32.22.64.22.96.11-.26.5-.53.71-.57Z"/>
    <path class="cls-3" d="m94.44,104.86s-.09,0-.15,0h.01s.14,0,.14,0Z"/>
    <path class="cls-3" d="m91.85,125.04c.06.56.01.66.25,1.37.35-.39.4-.41.83-.64-.56-.06-.8-.13-1.08-.73Z"/>
    <path class="cls-3" d="m76.92,125.4c.08.67.4,1.24.78,1.5.26-.5.4-.86.78-1.26-.69.14-1.13-.01-1.56-.24Z"/>
    <path class="cls-3" d="m80.71,123.83c.44.7.27.25.73,1.12.41-.51.33-.6.53-1.12-.55.16-.6.15-1.26,0Z"/>
    <path class="cls-3" d="m74.44,124.99c-.71-.09-1-.28-1.19-.75-.2.53-.15.96-.1,1.47.56-.34.67-.57,1.28-.73Z"/>
    <path class="cls-3" d="m89.55,122.46c-.37.34-.47.67-.58,1.05.32-.09.68-.06,1.03-.04-.24-.27-.44-.64-.45-1Z"/>
    <path class="cls-3" d="m84.34,120.12c-.19-.56-.5-.85-.9-1.25l-.42-.4c-1.34,1.02-2.32,2.46-3.39,3.75.93-3.16,2.26-4.39,5.03-5.6.88-.39.91-.63.18-1.24-1.42-1.19-2.12-1.85-.96-3.83-1.16-2.83-2.45-6.18-5.1-6.41-.47.91-1.04,1.55-1.73,2.31-1.21,1.21-2.03,2.09-2.12,3.81.46,1.77,1.66,2.61,3.18,3.46,1.27.67,1.9,1.23,1.53,2.54-.21.77-.69,1.57-1.18,2.26-.94,1.29-1.86,1.29-3.26.6-.68-.33-1.33-.6-2.11.06-.42.5-.5,1.15,0,1.6.88-.74,1.35-.98,2.63.1-1.18-.24-1.79.08-2.03.55-.49.91.81,2.46,2.21,1.38.4-1.07,1.02-1.31,1.99-1.43-.65.53-1.9,1.48-.46,2.48.57.39,1.74-.24,2.02-1.98,2.42,1.24,3.58-.58,1.52-2.2,1.14-.54,2.04-.98,3.37-.55h0Zm-1.15-9.18c-1.46,2.38-.87,3.11.8,4.74-2.64-.46-3.94-3.38-.8-4.74Z"/>
    <path class="cls-3" d="m39.95,109.58c.13.34,1.56,2.04,1.5,1.79-.18-.93-.27-1.88-.33-2.82-.62-.14-1.1-.49-1.46-1.07,1.89.46,4.77,1.08,7.2.06.12-1.35-.17-2.67.03-4.02-2.72,1.14-4.9,1.98-7.83,2.02-.46-.08-.67-.17-.99-.51-.33-.59-.45-1.18-.57-1.84-.12-.48-.26-.91-.64-1.26-.32-.13-1.48.29-1.13.56.76.67.86,1.43,1.05,2.42-.5-.53-.92-.97-1.53-1.33-1.46-.55-1.41,1.13-1.11,2.02.84-.23,1.5-.09,2.32.14-2,.33-2.88,2.52-1.19,2.64.59.05,1.56-.49,2.09-.74-.03,2.3.4,2.75,2.59,1.93Z"/>
    <path class="cls-3" d="m69.96,89.11c-.14,1.59-.5,4.08,1.42,4.67-.51-1.22-.8-2.53-.71-3.87-.26-.25-.45-.56-.71-.8Z"/>
    <path class="cls-3" d="m48.89,101.75c-.5.81-.84,1.42-1.03,2.35-.08,1.06.06,2.11.02,3.19l.9-.87c.43,1.56.59,3.15.29,4.73,1.04-1.32,1.01-2.72.45-4.33,1.57,1.17,1.42,2.09,1.19,3.88.05.53.08.87.05,1.37,1.61-1.78,1.88-3.9,2.12-6.14.67.47,1.44,1.07,2.29,1.06-.56-1.76-.15-3.36.63-4.96.46.73.95,1.55,1.54,2.18.42-1.2,1.31-1.85,2.19-2.69.95-1.16,1.21-2.22,1.34-3.64-.83,1.38-1.88,2.52-2.53,4-.45-2.09-.88-3.61,1.34-4.85-.31.63-.69,1.36-.74,2.08.6-.58,1.28-1.04,1.96-1.51l.04-.55c.5,1.23,1.03,2.5,1.54,3.74,1.04-.74,1.82-1.62,2.44-2.61.76-1.2,1.22-2.5,1.66-3.84.48.95.87,1.87,1.72,2.52.1-.67.31-1.32.52-1.98.42.55.82,1.1,1.46,1.43-.2-.49-.56-1.5-.57-2.87l-.7-1.65c-.53.95-1.33,1.69-2.18,2.35-.62-1.56-.59-2.48.14-4.15-.02.8-.1,1.8.29,2.52,1.14-1.21,1.62-2.84,2.1-4.4-.17-.33-.34-.67-.5-1-.35,1.26-1.04,1.68-2.04,2.33.85-1.5,1.16-2.94,1.44-4.6,1.59,1.46,1.88,4.57,4.84,4.92-1.61-1.8-1.61-3.97-2.31-5.72-1.85-.56-2.29-1.6-2.4-3.49.57.98,2.43,3.43,3.82,2.33-.84-.33-1.41-1.04-1.83-1.8-.47-.92-.93-1.85-1.75-2.49h0c-.26.72-.66,1.01-1.24,1.47.47-1.5.56-2.83.17-4.33-1.58.04-2.55.91-3.64,2.01-.05-.51-.09-.87.1-1.36-1.29-.34-2.33-.69-3.66-.31-.5.23-.99.53-1.49.76.91.61,2.08.81,3.14,1.01.53,1.36.02,3.19-2.27,2.15.83-.2,2.2-.78,2.09-1.98-1.26.78-1.96,1.45-2.96,2.61.06-1.08.53-1.69,1.26-2.38-.87-.3-1.31-.71-1.5-1.31-.31.12-.64.17-.96.22-.85.01-1.62.16-2.35.46-.81.33-1.35.79-1.98,1.38.01.04.07.24.11.24.51.12.98-.96,2.29-.51-.59.38-1.42.67-1.72,1.35-.33.74.34,1.49.88,1.97.84-.04,1.64-.29,2.47-.41.78.03,1.16.25,1.5.99.34,1.43-.84,1.73-1.99,1.84-.77.02-1.53,0-2.28-.12l-.04.09c-.68,2,.92,2.03,2.42,1.77.88-.15,1.9-.15,2.67-.7,1.03-.69,1.16-1.63,1.61-2.94.12,2.82-.8,4.27-3.58,4.56-.65,1.42-2.52,2.15-3.89,2.55,1,.62,2.27.85,3.36,1.18-1.39.11-2.59.17-3.77.59-1.05.38-1.87,1.06-2.74,1.74-.21.16-1,.74-1.26.74,1.68.78,4.01-1.2,5.28-2.07,0,1.16-.16,1.97-.83,2.88l.05.02h0c1.58-.27,2.18-1.08,3.02-2.26-.4,2.95-1.73,4.11-5.22,2.79.54-.38,1.32-.83,1.66-1.39-.83.5-1.73.8-2.6,1.24-1.21.84-1.76,2.14-2.31,3.46-.54,1.24-1.1,2.23-2.2,3.07.78.53,1.85.22,2.68.08h0Zm9.61-23.2c0-.45.19-.82.42-.82s.43.37.43.82-.2.81-.43.81-.42-.36-.42-.81h0Zm-1.56,6.37c1.7-.19,2.44-.57,2.05-2.62,1.88,2.49-.58,3.56-2.05,2.62h0Zm10.81,1.31c-1.26,2.55-2.29,5.2-3.66,7.68-.82-2.25-1.19-3.7.45-5.97-.21,1.32-.41,2.35-.15,3.67.58-2.08,1.8-3.95,3.36-5.38h0Zm-1.78-4.01c1.38,1.62,1.35,4.19-1.05,4.96,1.02-1.71,1.19-2.94,1.05-4.96h0Zm1.08-6.13c.69,1.63.52,2.59-.46,4.27.06-1.11.18-1.81-.13-2.9h-.05c-.84.27-1.55.83-2.18,1.45.51-1.4,1.28-2.46,2.81-2.83h0Zm-4.04,3.62c.67.8,1.2,1.83.93,2.92-.31,1.22-1.22,1.66-2.52,2,1.75-1.54,1.84-2.74,1.59-4.92h0Zm-2.01,7.6c-.35.8-.85,1.71-1.03,2.57,1.65-1.08,2.72-2.96,3.6-4.69-.61,3.64-2.12,5.5-5.45,6.91.3-2.04,1.08-3.35,2.88-4.8h0Zm-1.16,4.99c-.99,1.41-2.66,3.04-2.99,4.78,2.01-1.35,3.64-3.28,5.19-5.14l-.94,3.82c1.09-.51,1.52-1.55,2.3-2.25.52,2.72.95,3.48-.62,5.78.14-1.17.27-2.46,0-3.62-.9.93-1.86,1.31-3.08,1.64l.41-1.65c-1.35,1.3-2.72,2.27-4.32,3.22.07-3.07,1.29-5.07,4.04-6.57h0Zm-4.97,9.24c-1.63,2.1-2.53,3.43-2.73,6.28-1.95-.68-2.22-1.54-1.76-3.79.17.42.6,1.56,1.15,2.27.33-2.63,2.05-4.07,3.34-4.76h0Zm-5.74-2.29c1.31-2.01,1.75-2.6,4.12-2.96-1.34,1.02-2.68,2.2-3.38,3.81.79-.29,1.54-.77,2.29-1.15-.57,1.16-1.32,2.43-1.6,3.72,1.35-.39,2.37-1.91,3.31-2.9-.59,1.97-2.04,4.3-4.31,4.04-.03-.49,0-1.92.54-2.77-.99.29-1.26.16-1.62.14.14-.7.37-1.27.66-1.92Z"/>
    <path class="cls-3" d="m82.93,89.85h.03c.69,0,1.36.13,2.05.22.27-.4.63-.76,1.02-1.03-.17-.12-.35-.25-.49-.43-.84-.1-2.18.47-2.61,1.24Z"/>
    <path class="cls-3" d="m55.32,83.56c.09-.33.16-.63.42-.9-.29.08-.53.12-.84.03.08.3.25.6.42.88Z"/>
    <path class="cls-3" d="m75.22,83.39c1.95,2.3,5.56,4.12,8.43,4.75.32-.13.66-.28,1.01-.38-.66-.22-1.33-.58-1.99-.78-1.68-.68-3.34-1.4-4.79-2.42-1.02-.71-1.99-1.46-2.45-2.62-.49-1.23-.43-2.38.91-3.5.86-.32,1.31-.32,2.19-.05.11-.19.25-.38.41-.55-4.14-1.67-6.08,3.06-3.72,5.54Z"/>
    <path class="cls-3" d="m88.23,88.3c-.99-.71-1.43-1.39-1.3-2.53-1.38.54-1.27,2.06.31,3.02l1.8.66c-.62.04-1.2.08-1.79.2-1.06.22-2.15,1.31-1.27,2.43.19-1.93,2.82-.66,3.59-1.95.44-.74-.88-1.48-1.35-1.83Z"/>
    <path class="cls-3" d="m46.59,108.7c-.97.18-1.97.23-2.95.21.84.37,1.66.74,2.55.97.14-.39.26-.75.37-1.13l.02-.05Z"/>
    <path class="cls-3" d="m37.84,110.94c-.59-.22-.61-.17-.76-.63-.1.41-.08.83.13,1.24.24-.48.49-.38.63-.61Z"/>
    <path class="cls-3" d="m48.24,110.15c.06-.62.08-1.24,0-1.86l-1.75,1.66c.58.1,1.15.19,1.75.2Z"/>
    <path class="cls-3" d="m43.27,108.91l-1.79-.25c.53,1.15,1.07,1.88,2.18,2.36l-.05-.23c-.15-.63-.24-1.24-.34-1.87Z"/>
    <path class="cls-3" d="m80.57,77.99c-.58.26-.86.39-1.23.99-.2.8.07,1.57-.11,2.35.82-.18,1.33-1.48,1.66-2.13.15,1.58.28,3.1,1.51,4.3-.14-1.07-.44-2.03-.78-3.04,1.46,1.44,2.34,2.43,4.33,3.04l-.07-.1c-.94-1.25-2.17-2.16-3.37-3.14,1.21.43,3.03,1.31,4.38.3-1-.3-2.25-.77-3.23-1.52-1.03-.79-1.71-1.5-3.09-1.05Z"/>
    <polygon class="cls-3" points="92.92 42.1 92.92 48.79 101.43 48.79 101.43 45.29 100 45.29 100 42.1 92.92 42.1"/>
    <path class="cls-3" d="m105.53,106.57c.31,2.4.52,4.79.62,7.21h7.05l-.21-7.21h-7.46Z"/>
    <rect class="cls-4" x="82.55" y="43.02" width="3.83" height="5.83"/>
    <polygon class="cls-3" points="90.23 24.71 90.23 33.39 113.61 33.38 113.61 24.71 109.45 24.71 109.45 29.83 104.06 29.83 104.06 24.71 99.78 24.71 99.78 29.83 94.38 29.83 94.38 24.71 90.23 24.71"/>
    <polygon class="cls-3" points="21.55 66.38 34.47 66.38 34.47 59.53 21.74 59.53 21.55 66.38"/>
    <polygon class="cls-3" points="110.92 34.42 92.92 34.42 92.92 41.11 100 41.11 100 36.75 103.83 36.75 103.83 41.11 110.92 41.11 110.92 34.42"/>
    <path class="cls-3" d="m32.17,90.89h-11.32l-.19,6.84h9.18c.65-2.32,1.42-4.6,2.33-6.84Z"/>
    <path class="cls-3" d="m20.21,113.73h7.02v-.29c.07-2.31.4-4.6.75-6.87h-7.57l-.2,7.16Z"/>
    <polygon class="cls-3" points="102.41 123.61 114.99 123.61 114.99 114.81 102.79 114.81 102.41 123.61"/>
    <polygon class="cls-3" points="18.41 123.61 31.1 123.61 30.73 114.81 18.41 114.81 18.41 123.61"/>
    <rect class="cls-4" x="46.11" y="43.02" width="3.83" height="5.83"/>
    <path class="cls-3" d="m112.54,90.89h-11.25c.95,2.24,1.74,4.52,2.4,6.84h9.04l-.19-6.84Z"/>
    <path class="cls-3" d="m104.95,98.73h-.99c.37,1.45.71,2.91.99,4.38v-4.38Z"/>
    <polygon class="cls-3" points="103.83 45.29 102.41 45.29 102.41 48.79 110.92 48.79 110.92 42.1 103.83 42.1 103.83 45.29"/>
    <polygon class="cls-3" points="54.39 16.02 54.39 24.68 79.02 24.68 79.02 16.02 74.61 16.02 74.61 21.13 68.98 21.13 68.98 16.02 64.42 16.02 64.42 21.13 58.8 21.13 58.8 16.02 54.39 16.02"/>
    <polygon class="cls-3" points="33.18 45.29 31.77 45.29 31.77 48.79 40.28 48.79 40.28 42.09 33.18 42.09 33.18 45.29"/>
    <polygon class="cls-3" points="113.83 51.74 114.39 49.84 18.99 49.83 19.57 51.74 113.83 51.74"/>
    <polygon class="cls-3" points="22.27 42.1 22.27 48.79 30.78 48.79 30.78 45.29 29.36 45.29 29.36 42.1 22.27 42.1"/>
    <polygon class="cls-3" points="40.28 34.42 22.27 34.42 22.27 41.11 29.36 41.11 29.36 36.75 33.18 36.75 33.18 41.11 40.28 41.11 40.28 34.42"/>
    <polygon class="cls-3" points="19.58 24.71 19.58 33.39 42.96 33.39 42.96 24.71 38.82 24.71 38.82 29.83 33.42 29.83 33.42 24.71 29.14 24.71 29.14 29.83 23.73 29.83 23.73 24.71 19.58 24.71"/>
    <rect class="cls-4" x="56.73" y="42.03" width="9.35" height="6.81"/>
    <rect class="cls-4" x="67.06" y="42.03" width="9.61" height="6.81"/>
    <polygon class="cls-3" points="73.73 33.4 68.62 33.4 68.62 37.54 64.79 37.54 64.79 33.4 59.67 33.4 59.67 41.05 73.73 41.05 73.73 33.4"/>
    <rect class="cls-4" x="74.71" y="33.4" width="1.96" height="7.64"/>
    <polygon class="cls-3" points="76.67 25.72 67.19 25.72 67.19 29.01 68.62 29.01 68.62 32.41 76.67 32.41 76.67 25.72"/>
    <rect class="cls-4" x="56.73" y="33.4" width="1.96" height="7.64"/>
    <polygon class="cls-3" points="64.79 29.01 66.21 29.01 66.21 25.72 56.73 25.72 56.73 32.41 64.79 32.41 64.79 29.01"/>
    <path class="cls-3" d="m29.57,98.73h-1.14v5.08c.33-1.71.71-3.41,1.14-5.08Z"/>
    <rect class="cls-4" x="91.5" y="67.37" width="13.45" height="6.84"/>
    <polygon class="cls-3" points="98.94 75.2 98.94 82.06 112.29 82.06 112.1 75.2 98.94 75.2"/>
    <polygon class="cls-3" points="112.52 89.9 112.32 83.04 105.94 83.04 105.94 89.9 112.52 89.9"/>
    <polygon class="cls-3" points="105.94 52.74 105.94 58.55 111.64 58.55 111.46 52.74 105.94 52.74"/>
    <path class="cls-3" d="m90.51,74.21v-6.84l-8.8.11c2.98,1.98,5.79,4.24,8.36,6.73h.44Z"/>
    <rect class="cls-4" x="83.19" y="59.53" width="14.77" height="6.85"/>
    <polygon class="cls-3" points="98.94 66.38 111.85 66.38 111.65 59.53 98.94 59.53 98.94 66.38"/>
    <polygon class="cls-3" points="105.94 67.37 105.94 74.21 112.06 74.21 111.88 67.37 105.94 67.37"/>
    <path class="cls-3" d="m104.95,89.9v-6.85h-7.76c1.37,2.2,2.59,4.49,3.67,6.85h4.09Z"/>
    <polygon class="cls-3" points="112.96 105.58 112.76 98.73 105.94 98.73 105.94 105.58 112.96 105.58"/>
    <rect class="cls-4" x="76.19" y="52.74" width="14.33" height="5.81"/>
    <path class="cls-3" d="m56.49,67.45c3.29-1.8,6.71-3.24,10.34-4.22,11.8,4.49,22.66,12.31,29.31,23.29,4.85,8.55,7.06,17.58,7.37,27.25h1.65c-.09-2.47-.31-4.92-.65-7.35-2.03-14.08-8.92-27.36-20.42-36.04-5.23-3.94-11.24-6.87-17.45-9.07-11.41,3.94-21.51,10.49-28.58,20.62l-.71,1.07c-5.28,8.54-8.98,20.39-9.11,30.73h1.68c.61-11.08,3.35-21.94,9.72-31.19,4.55-6.26,10.26-11.28,16.85-15.09Z"/>
    <path class="cls-3" d="m96.53,82.06h1.42v-6.86l-6.84.03c.17,0,3.13,3.51,5.42,6.82Z"/>
    <rect class="cls-4" x="91.5" y="52.74" width="13.45" height="5.81"/>
    <path class="cls-3" d="m42.19,75.21h-6.75v6.85h1.36c1.62-2.44,3.39-4.71,5.39-6.85Z"/>
    <path class="cls-3" d="m20.88,89.9h6.57c0-2.27,0-4.56.01-6.85h-6.39l-.19,6.85Z"/>
    <rect class="cls-4" x="28.44" y="67.37" width="13.46" height="6.84"/>
    <polygon class="cls-3" points="21.33 74.22 27.46 74.22 27.46 67.37 21.52 67.37 21.33 74.22"/>
    <rect class="cls-4" x="28.44" y="52.74" width="13.46" height="5.81"/>
    <polygon class="cls-3" points="27.46 98.73 20.64 98.73 20.44 105.58 27.46 105.58 27.46 98.73"/>
    <polygon class="cls-3" points="34.47 75.21 21.3 75.21 21.1 82.06 34.47 82.06 34.47 75.21"/>
    <rect class="cls-4" x="42.88" y="52.74" width="14.33" height="5.81"/>
    <path class="cls-3" d="m51.63,67.37h-8.75s0,6.84,0,6.84h.26c2.57-2.55,5.44-4.88,8.48-6.84Z"/>
    <rect class="cls-4" x="58.19" y="52.74" width="17.01" height="5.81"/>
    <path class="cls-3" d="m36.16,83.04h-7.73v6.85h4.15c1.04-2.36,2.23-4.64,3.58-6.85Z"/>
    <path class="cls-3" d="m66.64,60.27c4.64,1.58,9.13,3.59,13.35,6.11h2.21v-6.85h-31.01v6.85h2.01c4.26-2.53,8.76-4.53,13.44-6.11Z"/>
    <polygon class="cls-3" points="21.93 52.74 21.78 58.55 27.46 58.55 27.46 52.74 21.93 52.74"/>
    <rect class="cls-4" x="35.44" y="59.53" width="14.77" height="6.85"/>
    <path class="cls-1" d="m183.14,7.25c0,25.82-3.31,32.95-9.31,32.95-.46,0-.93,0-1.45-.11v-3.89c.15.06.31.06.47.06,5.38,0,6-9.64,6.05-32.9h18.45v36.73h-4.19V7.25h-10.03Z"/>
    <path class="cls-1" d="m221.85,31.79c0,5.16-4.13,8.31-8.27,8.31h-8.74V11.61h3.98v11.29h4.65c4.65,0,8.37,3.62,8.37,8.89h0Zm-13.02,4.74h4.5c3.36,0,4.55-2.07,4.55-5.06s-1.6-5-4.5-5h-4.55v10.06Z"/>
    <path class="cls-1" d="m226.25,11.61h8.38c4.6,0,8.01,3.04,8.01,6.77,0,3.51-1.91,5.48-4.5,6.6,2.64.64,5.27,2.82,5.27,7.35,0,4.95-4.8,7.77-8.74,7.77h-8.42V11.61h0Zm3.98,3.52v8.31h4.29c2.28,0,4.03-1.75,4.03-4.15,0-2.98-1.6-4.15-3.88-4.15h-4.44Zm0,11.82v9.58h4.81c2.58,0,4.23-1.49,4.23-4.79,0-2.66-1.54-4.79-4.14-4.79h-4.9Z"/>
    <path class="cls-1" d="m253.43,5.55c0,1.38-1.08,2.5-2.42,2.5s-2.38-1.11-2.38-2.5,1.04-2.44,2.38-2.44,2.42,1.06,2.42,2.44h0Zm-.41,34.55h-3.98V11.61h3.98v28.49Z"/>
    <path class="cls-1" d="m260.63,11.61h8.37c4.6,0,8.02,3.04,8.02,6.76,0,3.51-1.92,5.48-4.5,6.6,2.64.64,5.28,2.82,5.28,7.35,0,4.95-4.81,7.77-8.74,7.77h-8.42V11.61h0Zm3.98,3.52v8.31h4.29c2.28,0,4.04-1.75,4.04-4.15,0-2.98-1.61-4.15-3.88-4.15h-4.45Zm0,11.82v9.58h4.81c2.59,0,4.24-1.49,4.24-4.79,0-2.66-1.55-4.79-4.14-4.79h-4.91Z"/>
    <path class="cls-1" d="m299.78,19.76l-3.88.9c-.52-3.36-1.81-6.02-4.81-6.02-4.55,0-5.22,5.54-5.22,11.08s.67,11.33,5.22,11.33c3,0,4.23-2.61,4.81-5.96,1.76.43,3.88.91,3.88.96-.72,4.74-3.36,8.57-8.69,8.57-7.65,0-9.26-7.34-9.26-14.69s1.61-14.85,9.26-14.85c5.27,0,8.01,3.94,8.69,8.67Z"/>
    <path class="cls-1" d="m321.5,31.79c0,5.16-4.14,8.31-8.27,8.31h-8.74s0-28.49,0-28.49h3.98v11.29h4.65c4.65,0,8.38,3.61,8.38,8.89h0Zm-13.02,4.74h4.49c3.36,0,4.54-2.08,4.54-5.06s-1.6-5.01-4.49-5h-4.54v10.06Z"/>
    <path class="cls-1" d="m325.96,11.61h3.98v11.82h2.07c1.39,0,2.48-1.01,3.04-2.34l2.43-5.96c1.24-2.55,3.11-3.62,5.33-3.62.46,0,.98,0,1.5.1v3.56c-.31-.05-.72-.05-.98-.05-1.34,0-2.22.69-2.79,2.34l-1.66,4.09c-.72,1.87-2.07,3.03-3.2,3.3,1.14.21,3.25,1.55,3.87,3.52l1.71,5.59c.1.96,1.39,2.66,2.84,2.66.2,0,.41,0,.67-.1v3.57c-.57.16-1.09.21-1.55.21-2.43,0-4.45-1.65-5.22-4.53l-2.18-6.33c-.78-1.76-1.76-2.5-2.84-2.5h-3.05v13.15h-3.98V11.61Z"/>
    <path class="cls-1" d="m355.12,40.63c-4.76,0-7.24-3.52-7.24-8.36,0-6.33,3.57-9.79,10.65-9.79.98,0,2.01,0,3,.05v-2.24c0-4.62-1.45-5.69-4.34-5.69-2.63,0-3.77,1.75-4.44,3.73l-3.62-1.06c1.55-4.1,3.68-6.23,8.12-6.23,4.7,0,8.32,2.02,8.32,9.31v13.63c0,1.65.36,2.72,1.76,2.72.21,0,.46-.06.77-.11v3.52c-.56.11-1.03.16-1.5.16-2.07,0-3.52-1.07-4.55-4.05-2.12,3.72-3.93,4.42-6.93,4.42h0Zm6.46-14.96c-5.58.06-9.67.17-9.67,6.28,0,2.88,1.04,5.11,4.09,5.11,4.34,0,5.58-3.99,5.58-8.46v-2.93Z"/>
    <path class="cls-1" d="m200.05,87.09h-3.98v-9.68c0-2.4.26-9.58.56-11.71l-7.65,15.22h-2.69l-7.65-15.22c.26,2.13.57,9.31.57,11.71v9.68h-3.98v-28.47h3.98l8.42,16.98,8.43-16.98h3.98v28.47Z"/>
    <path class="cls-1" d="m211.62,52.54c0,1.39-1.08,2.5-2.43,2.5s-2.38-1.12-2.38-2.5,1.04-2.44,2.38-2.44,2.43,1.07,2.43,2.44h0Zm-.41,34.55h-3.98v-28.47h3.98v28.47Z"/>
    <path class="cls-1" d="m235.04,66.76l-3.88.9c-.52-3.35-1.81-6.02-4.81-6.02-4.55,0-5.22,5.54-5.22,11.07s.67,11.33,5.22,11.33c3,0,4.24-2.61,4.81-5.96,1.76.43,3.88.91,3.88.96-.73,4.74-3.36,8.57-8.69,8.57-7.65,0-9.25-7.35-9.25-14.7s1.6-14.85,9.25-14.85c5.27,0,8.02,3.93,8.69,8.68Z"/>
    <path class="cls-1" d="m257.04,78.79c0,5.17-4.13,8.3-8.27,8.3h-8.74v-28.48h3.98v11.28h4.65c4.65,0,8.38,3.62,8.38,8.89h0Zm-13.03,4.74h4.49c3.36,0,4.55-2.08,4.55-5.06s-1.6-5.01-4.5-5.01h-4.55v10.06Z"/>
    <path class="cls-1" d="m261.13,58.62h3.98v11.81h2.07c1.39,0,2.48-1,3.05-2.34l2.43-5.96c1.24-2.56,3.1-3.62,5.32-3.62.47,0,.98,0,1.5.11v3.56c-.31-.05-.72-.05-.99-.05-1.34,0-2.22.69-2.79,2.34l-1.65,4.09c-.72,1.86-2.07,3.03-3.2,3.3,1.13.22,3.25,1.55,3.87,3.51l1.71,5.59c.1.97,1.39,2.67,2.85,2.67.2,0,.41,0,.66-.11v3.57c-.57.16-1.09.22-1.55.22-2.43,0-4.45-1.65-5.22-4.52l-2.17-6.34c-.78-1.76-1.76-2.5-2.84-2.5h-3.05v13.15h-3.98v-28.48Z"/>
    <path class="cls-1" d="m290.28,87.63c-4.76,0-7.24-3.51-7.24-8.36,0-6.33,3.57-9.79,10.65-9.79.98,0,2.02,0,3,.05v-2.24c0-4.63-1.45-5.7-4.34-5.7-2.64,0-3.77,1.76-4.45,3.73l-3.61-1.06c1.55-4.1,3.67-6.23,8.11-6.23,4.71,0,8.33,2.02,8.33,9.32v13.63c0,1.65.35,2.72,1.75,2.72.21,0,.47-.06.78-.11v3.51c-.57.11-1.03.16-1.5.16-2.07,0-3.52-1.07-4.55-4.05-2.12,3.73-3.93,4.42-6.92,4.42h0Zm6.46-14.97c-5.58.05-9.67.17-9.67,6.29,0,2.88,1.03,5.11,4.08,5.11,4.34,0,5.58-3.99,5.58-8.46v-2.93Z"/>
    <path class="cls-1" d="m175.23,105.62h2.68l1.04,3.41c1.6-2.23,3.47-3.94,6.2-3.94,7.44,0,9.15,7.56,9.15,14.85s-1.76,14.7-9.15,14.7c-2.63,0-4.44-1.44-5.94-3.51v11.23h-3.98v-36.73h0Zm3.98,14.31c0,5.49.78,11.08,5.43,11.08s5.64-5.75,5.64-11.13-.78-11.23-5.64-11.23-5.43,5.85-5.43,11.28Z"/>
    <path class="cls-1" d="m205.68,134.63c-4.76,0-7.24-3.51-7.24-8.36,0-6.34,3.57-9.8,10.65-9.8.98,0,2.02,0,3,.06v-2.24c0-4.63-1.45-5.69-4.34-5.69-2.64,0-3.77,1.75-4.44,3.73l-3.62-1.06c1.55-4.1,3.67-6.23,8.12-6.23,4.7,0,8.32,2.02,8.32,9.31v13.63c0,1.65.36,2.71,1.76,2.71.21,0,.46-.05.77-.11v3.51c-.57.11-1.04.16-1.5.16-2.07,0-3.52-1.06-4.55-4.05-2.12,3.73-3.93,4.42-6.92,4.42h0Zm6.46-14.96c-5.59.05-9.67.16-9.67,6.28,0,2.88,1.03,5.11,4.08,5.11,4.34,0,5.59-3.99,5.59-8.46v-2.93Z"/>
    <path class="cls-1" d="m241.65,105.62v24.92h2.59v9.95h-3.1l-.51-6.39h-16.03l-.52,6.39h-3.1v-9.64l1.61-.32c3.2-2.93,4.18-9.9,4.24-24.92h14.83Zm-3.98,24.92v-21.35h-7.08c-.42,11.87-1.09,16.98-3.77,21.35h10.86Z"/>
    <path class="cls-1" d="m255.08,134.63c-4.75,0-7.23-3.51-7.23-8.36,0-6.34,3.57-9.8,10.65-9.8.98,0,2.02,0,3,.06v-2.24c0-4.63-1.45-5.7-4.35-5.7-2.63,0-3.77,1.75-4.44,3.73l-3.61-1.06c1.55-4.1,3.67-6.23,8.11-6.23,4.71,0,8.32,2.02,8.32,9.31v13.63c0,1.65.37,2.72,1.76,2.72.21,0,.47-.05.78-.11v3.52c-.57.11-1.03.16-1.5.16-2.07,0-3.52-1.07-4.55-4.05-2.12,3.72-3.93,4.41-6.93,4.41h0Zm6.46-14.96c-5.58.05-9.66.16-9.66,6.28,0,2.88,1.04,5.11,4.08,5.11,4.34,0,5.58-3.99,5.58-8.46v-2.93Z"/>
  </g>
</svg>