<?xml version="1.0" encoding="UTF-8"?>
<svg
  id="_Шар_2"
  data-name="Шар 2"
  xmlns="http://www.w3.org/2000/svg"
  viewBox="0 0 452.99 293.5"
>
  <defs>
    <style>
      .cls-1 {
        font-family: "GIZGravurTTCyr-CondBold", sans-serif;
      }

      .cls-1 {
        font-weight: 700;
      }

      .cls-5 {
        stroke-width: 0px;
      }

      .cls-6 {
        letter-spacing: 0em;
      }

      .cls-7 {
        fill: #fff;
        font-size: 25.13px;
      }

      .cls-2 {
        font-family: "GIZGravurTTCyr-Cond", sans-serif;
        font-size: 35px;
      }

      .cls-9 {
        letter-spacing: 0em;
      }

      .cls-10 {
        fill: #ffd000;
        font-size: 74.75px;
      }
    </style>
  </defs>
  <g id="Layer_1" data-name="Layer 1">
    <g>
      <rect class="cls-5" y="76.59" width="278.87" height="157.1" />
      <polygon
        class="cls-5"
        points="41.54 0 214.45 92.3 214.45 231.41 41.54 139.1 41.54 0"
      />
      <polygon
        class="cls-5"
        points="309.91 150.69 269.65 226.12 208.96 226.12 249.23 150.69 309.91 150.69"
      />
      <polygon
        class="cls-5"
        points="17.34 156.83 106.61 204.49 106.61 276.31 17.34 228.65 17.34 156.83"
      />
      <text class="cls-1" transform="translate(39.4 126.82)">
        <tspan class="cls-7">
          <tspan x="0" y="0">RESPONSIBILITY</tspan>
        </tspan>
        <tspan class="cls-10">
          <tspan class="cls-6" x="0" y="66.77">T</tspan>
          <tspan x="36.78" y="66.77">O BE</tspan>
        </tspan>
      </text>
      <polygon
        class="cls-5"
        points="17.34 146.86 106.61 194.52 106.61 281.03 17.34 233.37 17.34 146.86"
      />
      <g>
        <path
          class="cls-5"
          d="m334.31,100.25h6.83c0-.07-.02-.13-.02-.2v-2.67c0-1.67.76-3.18,1.93-4.24h-8.74v-9.44h17v-7.11h-25.65v40.6h25.87v-7.11h-17.23v-9.84Z"
        />
        <path
          class="cls-5"
          d="m376.74,105.19l8.19.97c-.15,3.34-1.12,5.95-2.9,7.85-2.43,2.54-6.35,3.81-11.77,3.81s-9.65-1.63-12.11-4.89c-.99-1.33-1.68-2.86-2.08-4.61-.4-1.74-.6-4.06-.6-6.94v-8.87c0-3.15.25-5.64.74-7.48.49-1.84,1.33-3.42,2.5-4.75,2.54-2.81,6.39-4.21,11.54-4.21,4.59,0,8.03.98,10.32,2.93,2.29,1.95,3.53,5,3.73,9.13l-8.02.57c-.23-1.93-.82-3.35-1.76-4.24-.95-.89-2.33-1.34-4.15-1.34-2.31,0-3.92.72-4.81,2.16-.89,1.44-1.34,4.08-1.34,7.91v7.51c0,3.83.45,6.46,1.34,7.9.89,1.44,2.51,2.16,4.86,2.16,3.75,0,5.86-1.86,6.31-5.57Z"
        />
        <path
          class="cls-5"
          d="m387.82,101.67v-9.55c0-3.07.26-5.52.77-7.34s1.39-3.37,2.64-4.66c1.36-1.48,2.98-2.54,4.83-3.18,1.86-.65,4.23-.97,7.11-.97,3.07,0,5.61.38,7.62,1.14,2.01.76,3.68,1.99,5,3.7,1.86,2.39,2.79,6.16,2.79,11.32v9.55c0,3.07-.26,5.52-.77,7.33s-1.39,3.38-2.64,4.66c-1.36,1.48-2.98,2.54-4.83,3.18-1.86.64-4.25.97-7.17.97-3.07,0-5.6-.38-7.59-1.14-1.99-.76-3.65-1.99-4.98-3.7-1.86-2.35-2.79-6.12-2.79-11.32Zm22.01-.74v-8.08c0-3.68-.48-6.24-1.45-7.68-.97-1.44-2.68-2.16-5.15-2.16s-4.24.71-5.2,2.13c-.97,1.42-1.45,3.99-1.45,7.71v8.08c0,3.68.48,6.24,1.45,7.68.97,1.44,2.68,2.16,5.15,2.16s4.24-.71,5.2-2.13,1.45-3.99,1.45-7.7Z"
        />
        <path
          class="cls-5"
          d="m444.81,105.19l8.19.97c-.15,3.34-1.12,5.95-2.9,7.85-2.43,2.54-6.35,3.81-11.77,3.81s-9.65-1.63-12.11-4.89c-.99-1.33-1.68-2.86-2.08-4.61-.4-1.74-.6-4.06-.6-6.94v-8.87c0-3.15.25-5.64.74-7.48.49-1.84,1.33-3.42,2.5-4.75,2.54-2.81,6.39-4.21,11.54-4.21,4.59,0,8.03.98,10.32,2.93,2.29,1.95,3.53,5,3.73,9.13l-8.02.57c-.23-1.93-.82-3.35-1.76-4.24-.95-.89-2.33-1.34-4.15-1.34-2.31,0-3.92.72-4.81,2.16-.89,1.44-1.34,4.08-1.34,7.91v7.51c0,3.83.45,6.46,1.34,7.9.89,1.44,2.51,2.16,4.86,2.16,3.75,0,5.86-1.86,6.31-5.57Z"
        />
        <path
          class="cls-5"
          d="m325.61,175.46v-40.6h8.76v33.49h17.12v7.11h-25.87Z"
        />
        <path
          class="cls-5"
          d="m361.1,175.46l-13.65-40.6h8.76l8.76,29,8.76-29h8.76l-13.71,40.6h-7.68Z"
        />
        <path class="cls-5" d="m386,175.46v-40.6h8.76v40.6h-8.76Z" />
        <path
          class="cls-5"
          d="m411.88,175.46l-13.65-40.6h8.76l8.76,29,8.76-29h8.76l-13.71,40.6h-7.68Z"
        />
        <path
          class="cls-5"
          d="m322.82,233.73v-5.63l11.37-13.65c2.05-2.46,3.58-4.7,4.61-6.71.72-1.44,1.08-2.94,1.08-4.49,0-2.46-1.27-3.7-3.81-3.7-1.86,0-3.15.78-3.87,2.33-.49.95-.8,1.97-.91,3.07l-8.02-.57c.38-7.92,4.74-11.88,13.08-11.88,3.94,0,6.96.97,9.04,2.9,2.08,1.93,3.13,4.72,3.13,8.36,0,3.03-.91,5.99-2.73,8.87-.72,1.18-1.35,2.09-1.88,2.73-.53.64-1.97,2.33-4.32,5.06l-5.35,6.2h14.22v7.11h-25.65Z"
        />
        <path
          class="cls-5"
          d="m353.02,218.43v-10.01c0-5.53.93-9.48,2.79-11.83,1.17-1.44,2.55-2.48,4.12-3.13,1.57-.65,3.59-.97,6.06-.97,2.62,0,4.77.38,6.45,1.14,1.69.76,3.1,1.97,4.24,3.64,1.52,2.24,2.27,5.95,2.27,11.15v10.01c0,5.5-.93,9.44-2.79,11.83-1.18,1.44-2.55,2.48-4.12,3.13-1.57.64-3.59.97-6.06.97-2.62,0-4.77-.38-6.45-1.14s-3.1-1.97-4.24-3.64c-1.52-2.31-2.27-6.03-2.27-11.15Zm17.34-.74v-8.53c0-3.68-.31-6.2-.94-7.56s-1.77-2.05-3.44-2.05-2.82.69-3.44,2.08c-.63,1.38-.94,3.9-.94,7.54v8.53c0,3.64.31,6.15.94,7.53.63,1.38,1.77,2.08,3.44,2.08s2.82-.68,3.44-2.05.94-3.89.94-7.56Z"
        />
        <path
          class="cls-5"
          d="m389.87,215.7v-6.71h2.96c3.72,0,5.57-1.61,5.57-4.83s-1.31-4.61-3.92-4.61-4.02,1.44-4.44,4.32l-7.73-.57c.45-7.2,4.66-10.8,12.62-10.8,3.94,0,6.95.96,9.01,2.87,2.07,1.92,3.1,4.71,3.1,8.39,0,2.09-.31,3.78-.94,5.09s-1.68,2.46-3.16,3.44c1.9,1.21,3.21,2.55,3.95,4.01.74,1.46,1.11,3.4,1.11,5.83,0,8.15-4.32,12.23-12.97,12.23-5.5,0-9.35-1.48-11.54-4.44-1.29-1.74-2.01-4.04-2.16-6.88l8.19-.97c.38,3.49,2.1,5.23,5.18,5.23,1.52,0,2.67-.46,3.47-1.39.8-.93,1.19-2.26,1.19-4.01,0-1.9-.54-3.4-1.62-4.52-1.08-1.12-2.53-1.68-4.35-1.68h-3.53Z"
        />
        <path
          class="cls-5"
          d="m412.16,218.43v-10.01c0-5.53.93-9.48,2.79-11.83,1.17-1.44,2.55-2.48,4.12-3.13,1.57-.65,3.59-.97,6.06-.97,2.62,0,4.77.38,6.45,1.14,1.69.76,3.1,1.97,4.24,3.64,1.52,2.24,2.27,5.95,2.27,11.15v10.01c0,5.5-.93,9.44-2.79,11.83-1.18,1.44-2.55,2.48-4.12,3.13-1.57.64-3.59.97-6.06.97-2.62,0-4.77-.38-6.45-1.14s-3.1-1.97-4.24-3.64c-1.52-2.31-2.27-6.03-2.27-11.15Zm17.34-.74v-8.53c0-3.68-.31-6.2-.94-7.56s-1.77-2.05-3.44-2.05-2.82.69-3.44,2.08c-.63,1.38-.94,3.9-.94,7.54v8.53c0,3.64.31,6.15.94,7.53.63,1.38,1.77,2.08,3.44,2.08s2.82-.68,3.44-2.05.94-3.89.94-7.56Z"
        />
      </g>
      <path
        class="cls-5"
        d="m330.72,92.55c.59,4.56.88,9.12.93,13.74.03,2.16-.29,4.44-.38,6.69.1,0,.2,0,.3,0,2.17.15,4.34.42,6.5.67l11.26-21.1h-18.61Z"
      />
    </g>
    <text class="cls-2" transform="translate(120 283.84)">
      <tspan class="cls-9" x="0" y="0">CANDIDATE CITY</tspan>
    </text>
  </g>
</svg>