<?xml version="1.0" encoding="UTF-8"?>
<svg id="_Шар_2" data-name="Шар 2" xmlns="http://www.w3.org/2000/svg" viewBox="0 0 480.93 288.1">
  <defs>
    <style>
      .cls-1, .cls-2, .cls-3 {
        stroke-width: 0px;
      }

      .cls-2 {
        fill: #ffd000;
      }

      .cls-3 {
        fill: #fff;
      }
    </style>
  </defs>
  <g id="Layer_1" data-name="Layer 1">
    <g>
      <g>
        <g>
          <rect class="cls-1" y="76.59" width="278.87" height="157.1"/>
          <polygon class="cls-1" points="41.54 0 214.45 92.3 214.45 231.41 41.54 139.1 41.54 0"/>
          <polygon class="cls-1" points="309.91 150.69 269.65 226.12 208.96 226.12 249.23 150.69 309.91 150.69"/>
          <polygon class="cls-1" points="17.34 156.83 106.61 204.49 106.61 276.31 17.34 228.65 17.34 156.83"/>
          <g>
            <path class="cls-3" d="m45.31,119.69v7.14h-3.87v-17.94h6.81c1.21,0,2.17.1,2.88.3.71.2,1.3.54,1.77,1.01.87.87,1.31,2.19,1.31,3.97,0,1.54-.25,2.71-.75,3.52-.5.8-1.33,1.37-2.49,1.71l3.87,7.44h-4.27l-3.37-7.14h-1.88Zm-.08-2.97h2.69c.89,0,1.52-.18,1.9-.54s.57-.98.57-1.85-.19-1.49-.57-1.85c-.38-.36-1.03-.54-1.95-.54h-2.64v4.78Z"/>
            <path class="cls-3" d="m57.75,126.82v-17.94h11.33v3.14h-7.51v4.17h6.36v3.14h-6.36v4.35h7.62v3.14h-11.43Z"/>
            <path class="cls-3" d="m71.42,123.96l2.94-1.86c.77,1.26,2.08,1.88,3.92,1.88s2.81-.71,2.81-2.14c0-.74-.25-1.26-.75-1.58-.25-.17-.5-.29-.75-.36-.25-.08-1-.27-2.24-.59-1.86-.47-3.18-1.11-3.96-1.94-.78-.82-1.17-1.98-1.17-3.47,0-1.71.53-3.02,1.58-3.93s2.56-1.37,4.52-1.37c2.85,0,4.84.97,5.98,2.92l-2.87,1.83c-.77-1.11-1.84-1.66-3.22-1.66-.74,0-1.31.18-1.71.53-.4.35-.6.84-.6,1.46,0,.69.23,1.21.7,1.57.47.36,1.35.71,2.64,1.04,1.16.29,1.96.51,2.41.68.45.17.91.39,1.36.68,1.17.8,1.76,2.15,1.76,4.02s-.5,3.12-1.48,4c-1.12.97-2.81,1.46-5.05,1.46-2.04,0-3.72-.4-5.03-1.21-.7-.45-1.31-1.11-1.81-1.96Z"/>
            <path class="cls-3" d="m91.45,120.57v6.26h-3.87v-17.94h6.13c1.31,0,2.34.11,3.1.33.76.22,1.39.59,1.9,1.11.9.96,1.36,2.42,1.36,4.4,0,2.16-.54,3.7-1.61,4.62-.94.82-2.52,1.23-4.75,1.23h-2.26Zm-.08-3.09h2.36c.91,0,1.55-.21,1.92-.63s.57-1.13.57-2.14-.19-1.72-.57-2.14c-.38-.42-1.02-.63-1.92-.63h-2.36v5.53Z"/>
            <path class="cls-3" d="m102.76,119.96v-4.22c0-1.36.11-2.44.34-3.24.23-.8.62-1.49,1.17-2.06.6-.65,1.32-1.12,2.14-1.41.82-.29,1.87-.43,3.14-.43,1.36,0,2.48.17,3.37.5.89.34,1.62.88,2.21,1.63.82,1.06,1.23,2.72,1.23,5v4.22c0,1.36-.11,2.44-.34,3.24-.23.8-.62,1.49-1.17,2.06-.6.65-1.32,1.12-2.14,1.41-.82.29-1.88.43-3.17.43-1.36,0-2.48-.17-3.36-.5s-1.61-.88-2.2-1.63c-.82-1.04-1.23-2.71-1.23-5Zm9.73-.33v-3.57c0-1.62-.21-2.76-.64-3.39-.43-.64-1.19-.96-2.28-.96s-1.87.31-2.3.94c-.43.63-.64,1.76-.64,3.41v3.57c0,1.63.21,2.76.64,3.39.43.64,1.18.95,2.27.95s1.87-.31,2.3-.94c.43-.63.64-1.76.64-3.41Z"/>
            <path class="cls-3" d="m119.95,126.82v-17.94h3.74l6.36,11.49v-11.49h3.74v17.94h-3.74l-6.36-11.49v11.49h-3.74Z"/>
            <path class="cls-3" d="m136.09,123.96l2.94-1.86c.77,1.26,2.08,1.88,3.92,1.88s2.81-.71,2.81-2.14c0-.74-.25-1.26-.75-1.58-.25-.17-.5-.29-.75-.36-.25-.08-1-.27-2.24-.59-1.86-.47-3.18-1.11-3.96-1.94-.78-.82-1.17-1.98-1.17-3.47,0-1.71.53-3.02,1.58-3.93s2.56-1.37,4.52-1.37c2.85,0,4.84.97,5.98,2.92l-2.87,1.83c-.77-1.11-1.84-1.66-3.22-1.66-.74,0-1.31.18-1.71.53-.4.35-.6.84-.6,1.46,0,.69.23,1.21.7,1.57.47.36,1.35.71,2.64,1.04,1.16.29,1.96.51,2.41.68.45.17.91.39,1.36.68,1.17.8,1.76,2.15,1.76,4.02s-.5,3.12-1.48,4c-1.12.97-2.81,1.46-5.05,1.46-2.04,0-3.72-.4-5.03-1.21-.7-.45-1.31-1.11-1.81-1.96Z"/>
            <path class="cls-3" d="m152.25,126.82v-17.94h3.87v17.94h-3.87Z"/>
            <path class="cls-3" d="m160.14,126.82v-17.94h7.09c1.09,0,1.95.08,2.58.25.63.17,1.18.45,1.65.85.97.84,1.46,2.1,1.46,3.79s-.5,2.88-1.51,3.67c.57.49.94.86,1.11,1.13.49.77.73,1.84.73,3.22,0,1.88-.55,3.24-1.66,4.1-.85.62-2.2.93-4.02.93h-7.41Zm3.84-10.66h2.97c.77,0,1.32-.16,1.65-.49.33-.33.49-.87.49-1.62s-.16-1.32-.49-1.63c-.33-.32-.88-.48-1.65-.48h-2.97v4.22Zm0,7.59h3.29c.75,0,1.29-.18,1.62-.53.33-.35.49-.93.49-1.73s-.16-1.4-.49-1.75c-.33-.34-.87-.52-1.62-.52h-3.29v4.52Z"/>
            <path class="cls-3" d="m176.1,126.82v-17.94h3.87v17.94h-3.87Z"/>
            <path class="cls-3" d="m183.99,126.82v-17.94h3.87v14.8h7.57v3.14h-11.44Z"/>
            <path class="cls-3" d="m197.71,126.82v-17.94h3.87v17.94h-3.87Z"/>
            <path class="cls-3" d="m209.07,126.82v-14.8h-4.78v-3.14h13.4v3.14h-4.75v14.8h-3.87Z"/>
            <path class="cls-3" d="m224.65,126.82v-6.46l-5.53-11.49h4.1l3.37,7.67,3.37-7.67h4.1l-5.53,11.49v6.46h-3.87Z"/>
            <path class="cls-2" d="m54.43,193.59v-44.03h-14.2v-9.34h39.84v9.34h-14.13v44.03h-11.51Z"/>
            <path class="cls-2" d="m85.37,173.18v-12.56c0-4.04.34-7.25,1.01-9.64s1.83-4.43,3.48-6.13c1.79-1.94,3.91-3.34,6.35-4.19,2.44-.85,5.56-1.27,9.34-1.27,4.04,0,7.37.5,10.02,1.49,2.64,1,4.83,2.62,6.58,4.86,2.44,3.14,3.66,8.1,3.66,14.87v12.56c0,4.04-.34,7.25-1.01,9.64-.67,2.39-1.83,4.44-3.48,6.13-1.79,1.94-3.91,3.34-6.35,4.19-2.44.85-5.58,1.27-9.42,1.27-4.04,0-7.36-.5-9.98-1.5s-4.8-2.62-6.54-4.86c-2.44-3.09-3.66-8.05-3.66-14.88Zm28.93-.97v-10.61c0-4.83-.64-8.2-1.91-10.09-1.27-1.89-3.53-2.84-6.76-2.84s-5.57.93-6.84,2.8c-1.27,1.87-1.91,5.25-1.91,10.13v10.61c0,4.83.63,8.2,1.91,10.09,1.27,1.89,3.52,2.84,6.76,2.84s5.57-.93,6.84-2.8,1.91-5.24,1.91-10.13Z"/>
            <path class="cls-2" d="m151.45,193.59v-53.37h21.08c3.24,0,5.79.25,7.66.75,1.87.5,3.5,1.35,4.9,2.54,2.89,2.49,4.33,6.25,4.33,11.29s-1.5,8.57-4.49,10.91c1.69,1.45,2.79,2.57,3.29,3.36,1.45,2.29,2.17,5.48,2.17,9.57,0,5.58-1.64,9.64-4.93,12.18-2.54,1.84-6.53,2.77-11.96,2.77h-22.05Zm11.44-31.69h8.82c2.29,0,3.92-.49,4.9-1.46s1.46-2.58,1.46-4.82-.49-3.91-1.46-4.86c-.97-.95-2.6-1.42-4.9-1.42h-8.82v12.56Zm0,22.57h9.79c2.24,0,3.85-.52,4.82-1.57s1.46-2.77,1.46-5.16-.49-4.17-1.46-5.19c-.97-1.02-2.58-1.53-4.82-1.53h-9.79v13.45Z"/>
            <path class="cls-2" d="m198.99,193.59v-53.37h33.71v9.34h-22.35v12.41h18.91v9.34h-18.91v12.93h22.65v9.34h-34.01Z"/>
          </g>
          <polygon class="cls-1" points="17.34 146.86 106.61 194.52 106.61 281.03 17.34 233.37 17.34 146.86"/>
        </g>
        <g>
          <g>
            <path class="cls-1" d="m348.86,105.07l8.19.97c-.15,3.34-1.12,5.95-2.9,7.85-2.43,2.54-6.35,3.81-11.77,3.81s-9.65-1.63-12.11-4.89c-.99-1.33-1.68-2.86-2.08-4.6-.4-1.74-.6-4.06-.6-6.94v-8.87c0-3.15.25-5.64.74-7.48.49-1.84,1.33-3.42,2.5-4.75,2.54-2.8,6.39-4.21,11.54-4.21,4.59,0,8.03.98,10.32,2.93,2.29,1.95,3.53,4.99,3.72,9.12l-8.02.57c-.23-1.93-.82-3.34-1.76-4.24-.95-.89-2.33-1.34-4.15-1.34-2.31,0-3.91.72-4.8,2.16-.89,1.44-1.34,4.07-1.34,7.9v7.5c0,3.83.45,6.46,1.34,7.9.89,1.44,2.51,2.16,4.86,2.16,3.75,0,5.86-1.86,6.31-5.57Z"/>
            <path class="cls-1" d="m383.49,105.07l8.19.97c-.15,3.34-1.12,5.95-2.9,7.85-2.43,2.54-6.35,3.81-11.77,3.81s-9.65-1.63-12.11-4.89c-.99-1.33-1.68-2.86-2.08-4.6-.4-1.74-.6-4.06-.6-6.94v-8.87c0-3.15.25-5.64.74-7.48.49-1.84,1.33-3.42,2.5-4.75,2.54-2.8,6.39-4.21,11.54-4.21,4.59,0,8.03.98,10.32,2.93,2.29,1.95,3.53,4.99,3.72,9.12l-8.02.57c-.23-1.93-.82-3.34-1.76-4.24-.95-.89-2.33-1.34-4.15-1.34-2.31,0-3.91.72-4.8,2.16-.89,1.44-1.34,4.07-1.34,7.9v7.5c0,3.83.45,6.46,1.34,7.9.89,1.44,2.51,2.16,4.86,2.16,3.75,0,5.86-1.86,6.31-5.57Z"/>
            <path class="cls-1" d="m397.47,117.07v-40.59h8.64v16.37l11.94-16.37h10.23l-13.42,16.71,14.04,23.88h-10.18l-9.55-17.97-3.07,4.04v13.93h-8.64Z"/>
            <polygon class="cls-1" points="345.96 134.74 337.49 134.74 322.82 175.34 332.26 175.34 341.81 144.98 351.19 175.34 360.69 175.34 345.96 134.74"/>
            <path class="cls-1" d="m399.63,175.34v-40.59h16.03c2.46,0,4.41.19,5.83.57,1.42.38,2.66,1.02,3.72,1.93,2.2,1.9,3.3,4.76,3.3,8.58s-1.14,6.52-3.41,8.3c1.29,1.1,2.12,1.95,2.5,2.56,1.1,1.74,1.65,4.17,1.65,7.28,0,4.25-1.25,7.33-3.75,9.27-1.93,1.4-4.97,2.1-9.1,2.1h-16.77Zm8.7-24.11h6.71c1.74,0,2.98-.37,3.72-1.11.74-.74,1.11-1.96,1.11-3.67s-.37-2.98-1.11-3.7c-.74-.72-1.98-1.08-3.72-1.08h-6.71v9.55Zm0,17.17h7.45c1.71,0,2.93-.4,3.67-1.19s1.11-2.1,1.11-3.92-.37-3.17-1.11-3.95c-.74-.78-1.96-1.17-3.67-1.17h-7.45v10.23Z"/>
            <path class="cls-1" d="m434.59,175.34v-40.59h8.76v40.59h-8.76Z"/>
            <path class="cls-1" d="m451.31,175.34v-40.59h16.03c2.46,0,4.41.19,5.83.57,1.42.38,2.66,1.02,3.72,1.93,2.2,1.9,3.3,4.76,3.3,8.58s-1.14,6.52-3.41,8.3c1.29,1.1,2.12,1.95,2.5,2.56,1.1,1.74,1.65,4.17,1.65,7.28,0,4.25-1.25,7.33-3.75,9.27-1.93,1.4-4.97,2.1-9.1,2.1h-16.77Zm8.7-24.11h6.71c1.74,0,2.98-.37,3.72-1.11.74-.74,1.11-1.96,1.11-3.67s-.37-2.98-1.11-3.7c-.74-.72-1.98-1.08-3.72-1.08h-6.71v9.55Zm0,17.17h7.45c1.71,0,2.93-.4,3.67-1.19s1.11-2.1,1.11-3.92-.37-3.17-1.11-3.95c-.74-.78-1.96-1.17-3.67-1.17h-7.45v10.23Z"/>
            <path class="cls-1" d="m325.72,233.6v-5.63l11.37-13.64c2.05-2.46,3.58-4.7,4.61-6.71.72-1.44,1.08-2.94,1.08-4.49,0-2.46-1.27-3.7-3.81-3.7-1.86,0-3.15.78-3.87,2.33-.49.95-.8,1.97-.91,3.07l-8.02-.57c.38-7.92,4.74-11.88,13.08-11.88,3.94,0,6.96.97,9.04,2.9,2.08,1.93,3.13,4.72,3.13,8.36,0,3.03-.91,5.99-2.73,8.87-.72,1.18-1.35,2.08-1.88,2.73-.53.65-1.97,2.33-4.32,5.06l-5.34,6.2h14.21v7.11h-25.64Z"/>
            <path class="cls-1" d="m355.91,218.31v-10.01c0-5.53.93-9.47,2.79-11.83,1.17-1.44,2.55-2.48,4.12-3.13,1.57-.64,3.59-.97,6.06-.97,2.61,0,4.77.38,6.45,1.14,1.69.76,3.1,1.97,4.24,3.64,1.52,2.24,2.27,5.95,2.27,11.14v10.01c0,5.5-.93,9.44-2.79,11.83-1.17,1.44-2.55,2.48-4.12,3.13-1.57.64-3.59.97-6.05.97-2.62,0-4.77-.38-6.45-1.14-1.69-.76-3.1-1.97-4.24-3.64-1.52-2.31-2.27-6.03-2.27-11.14Zm17.34-.74v-8.53c0-3.68-.31-6.2-.94-7.56-.63-1.36-1.77-2.05-3.44-2.05s-2.81.69-3.44,2.08c-.62,1.38-.94,3.89-.94,7.53v8.53c0,3.64.31,6.15.94,7.53.63,1.38,1.77,2.08,3.44,2.08s2.81-.68,3.44-2.05c.62-1.36.94-3.88.94-7.56Z"/>
            <path class="cls-1" d="m392.75,215.58v-6.71h2.96c3.71,0,5.57-1.61,5.57-4.83s-1.31-4.61-3.92-4.61-4.02,1.44-4.43,4.32l-7.73-.57c.46-7.2,4.66-10.8,12.62-10.8,3.94,0,6.95.96,9.01,2.87,2.07,1.91,3.1,4.71,3.1,8.39,0,2.08-.31,3.78-.94,5.09-.63,1.31-1.68,2.45-3.16,3.44,1.89,1.21,3.21,2.55,3.95,4.01.74,1.46,1.11,3.4,1.11,5.83,0,8.15-4.32,12.22-12.96,12.22-5.5,0-9.34-1.48-11.54-4.43-1.29-1.74-2.01-4.04-2.16-6.88l8.19-.97c.38,3.49,2.1,5.23,5.17,5.23,1.52,0,2.67-.46,3.47-1.39.8-.93,1.19-2.26,1.19-4.01,0-1.9-.54-3.4-1.62-4.52-1.08-1.12-2.53-1.68-4.35-1.68h-3.52Z"/>
            <path class="cls-1" d="m415.04,218.31v-10.01c0-5.53.93-9.47,2.79-11.83,1.17-1.44,2.55-2.48,4.12-3.13,1.57-.64,3.59-.97,6.06-.97,2.61,0,4.77.38,6.45,1.14,1.69.76,3.1,1.97,4.24,3.64,1.52,2.24,2.27,5.95,2.27,11.14v10.01c0,5.5-.93,9.44-2.79,11.83-1.17,1.44-2.55,2.48-4.12,3.13-1.57.64-3.59.97-6.05.97-2.62,0-4.77-.38-6.45-1.14-1.69-.76-3.1-1.97-4.24-3.64-1.52-2.31-2.27-6.03-2.27-11.14Zm17.34-.74v-8.53c0-3.68-.31-6.2-.94-7.56-.63-1.36-1.77-2.05-3.44-2.05s-2.81.69-3.44,2.08c-.62,1.38-.94,3.89-.94,7.53v8.53c0,3.64.31,6.15.94,7.53.63,1.38,1.77,2.08,3.44,2.08s2.81-.68,3.44-2.05c.62-1.36.94-3.88.94-7.56Z"/>
            <path class="cls-1" d="m392.64,156.86c-.29-.46-1.84-3.64-6.56-4.97-1.51-.43-3.97-.85-6.01-.85h-6.49v-17h-9v41h16.85c4.13,0,7.16-.55,9.1-1.96,2.5-1.93,3.75-4.86,3.75-9.11,0-3.11-.55-5.37-1.65-7.12Zm-8.16,10.17c-.74.8-1.96,1.01-3.67,1.01h-7.23v-10h7.23c1.71,0,2.93.45,3.67,1.23.74.78,1.11,2.04,1.11,3.89s-.37,3.07-1.11,3.86Z"/>
          </g>
          <path class="cls-1" d="m330.76,92.47c.59,4.56.88,9.12.93,13.74.03,2.16-.29,4.44-.38,6.69.1,0,.2,0,.3,0,2.17.15,4.34.42,6.5.67l11.26-21.1h-18.61Z"/>
        </g>
      </g>
      <g>
        <path class="cls-1" d="m132.59,281.44l4.79-27.13h5.43l4.45,14.59,9.58-14.59h5.47l-4.79,27.13h-5.62l2.89-16.26-6.8,10.34h-3.76l-3.15-10.34-2.89,16.26h-5.59Z"/>
        <path class="cls-1" d="m163.6,281.44l4.79-27.13h5.85l-4.79,27.13h-5.85Z"/>
        <path class="cls-1" d="m190.58,273.43l5.36.65c-.58,2.69-1.73,4.65-3.44,5.91-1.71,1.25-4.1,1.88-7.16,1.88s-5.41-.68-6.88-2.05c-1.34-1.29-2.01-3.05-2.01-5.28,0-.91.16-2.36.49-4.33l1.06-5.89c.35-2.1.77-3.69,1.24-4.77.47-1.08,1.16-2.06,2.07-2.95,1.82-1.75,4.41-2.62,7.75-2.62,2.99,0,5.23.63,6.73,1.9,1.34,1.22,2.01,2.82,2.01,4.83,0,.38-.05.82-.15,1.33l-5.43.38c.03-.23.04-.44.04-.65,0-2.05-1.1-3.08-3.31-3.08-1.57,0-2.74.48-3.5,1.43-.76.95-1.37,2.72-1.82,5.3l-.87,5.02c-.25,1.44-.38,2.57-.38,3.38,0,1.17.27,2.01.82,2.55.54.53,1.4.8,2.56.8,1.29,0,2.32-.3,3.1-.89.77-.59,1.35-1.54,1.73-2.83Z"/>
        <path class="cls-1" d="m203.8,281.44l3.95-22.42h-7.22l.84-4.71h20.25l-.84,4.71h-7.18l-3.95,22.42h-5.85Z"/>
        <path class="cls-1" d="m221.51,270.39l1.1-6.35c.35-2.03.77-3.58,1.25-4.66.48-1.08,1.19-2.05,2.13-2.91,1.93-1.72,4.64-2.58,8.13-2.58,6.18,0,9.27,2.47,9.27,7.41,0,.91-.15,2.27-.46,4.07l-1.14,6.35c-.36,2.03-.77,3.58-1.25,4.66-.48,1.08-1.19,2.05-2.13,2.91-1.9,1.72-4.52,2.58-7.87,2.58s-5.9-.68-7.37-2.05c-1.42-1.32-2.13-3.09-2.13-5.32,0-1.14.15-2.51.46-4.1Zm14.67.19l.95-5.4c.25-1.57.38-2.61.38-3.12,0-2.31-1.22-3.46-3.65-3.46-1.67,0-2.91.48-3.72,1.42-.81.95-1.43,2.67-1.86,5.15l-.95,5.4c-.23,1.14-.34,2.19-.34,3.15,0,2.28,1.22,3.42,3.65,3.42,1.65,0,2.88-.48,3.69-1.44s1.43-2.67,1.86-5.13Z"/>
        <path class="cls-1" d="m256.2,281.44l4.79-27.13h5.78l-1.94,10.91,9.92-10.91h6.84l-10.94,11.17,6.57,15.96h-6.76l-4.29-12.01-2.55,2.7-1.63,9.31h-5.78Z"/>
        <path class="cls-1" d="m296.33,276.35h-9.46l-2.51,5.09h-6.46l14.59-27.13h5.66l5.05,27.13h-6.19l-.68-5.09Zm-.57-4.71l-1.48-10.53-5.21,10.53h6.69Z"/>
        <path class="cls-1" d="m305.37,281.44l4.79-27.13h5.85l-1.94,11.06h7.98l1.94-11.06h5.85l-4.79,27.13h-5.85l2.01-11.36h-7.98l-2.01,11.36h-5.85Z"/>
        <path class="cls-1" d="m430.56,276.35h-9.46l-2.51,5.09h-6.46l14.59-27.13h5.66l5.05,27.13h-6.19l-.68-5.09Zm-.57-4.71l-1.48-10.53-5.21,10.53h6.69Z"/>
        <path class="cls-1" d="m442.3,281.44l3.95-22.42h-7.22l.84-4.71h20.25l-.84,4.71h-7.18l-3.95,22.42h-5.85Z"/>
        <path class="cls-1" d="m374.47,281.44l3.08-17.37-12.69,17.37h-5.66s4.83-27.13,4.83-27.13h5.66s-3.12,17.37-3.12,17.37l12.73-17.37h5.66s-4.83,27.13-4.83,27.13h-5.66Z"/>
        <path class="cls-1" d="m353.47,288.1h-5.76l1.17-6.67h-14.29l-1.17,6.65h-5.89l1.95-11.38h1.15c2.35-1.34,4.1-4.27,5.15-8.27l3.43-14.12h17.45l-3.91,22.37h2.86l-2.15,11.41Zm-15.97-11.4h9.42s3.03-17.36,3.03-17.36h-6.06l-2.1,8.76c-.94,3.59-2.41,6.59-4.28,8.6Z"/>
        <path class="cls-1" d="m408.22,288.1h-5.76l1.17-6.67h-14.29l-1.17,6.65h-5.89l1.95-11.38h1.15c2.35-1.34,4.1-4.27,5.15-8.27l3.43-14.12h17.45l-3.91,22.37h2.86l-2.15,11.41Zm-15.97-11.4h9.42s3.03-17.36,3.03-17.36h-6.06l-2.1,8.76c-.94,3.59-2.41,6.59-4.28,8.6Z"/>
      </g>
    </g>
  </g>
</svg>