<?xml version="1.0" encoding="UTF-8"?>
<svg id="_Шар_2" data-name="Шар 2" xmlns="http://www.w3.org/2000/svg" viewBox="0 0 347.12 167.89">
  <defs>
    <style>
      .cls-1 {
        fill: #292828;
      }

      .cls-1, .cls-2, .cls-3 {
        fill-rule: evenodd;
      }

      .cls-1, .cls-2, .cls-3, .cls-4 {
        stroke-width: 0px;
      }

      .cls-2 {
        fill: #005899;
      }

      .cls-3, .cls-4 {
        fill: #fc0;
      }
    </style>
  </defs>
  <g id="_1" data-name="1">
    <path class="cls-2" d="m130.91,98.27v.37c.01,38.25-29.3,69.25-65.45,69.25C29.31,167.89,0,136.88,0,98.64v-.37s0,0,0,0V0h130.92v98.27h-.01Z"/>
    <path class="cls-3" d="m49.52,124.13c.3-.27.46-.7.47-1.12-.17.27-.88.27-1.02.27.17.24.42.53.55.84Z"/>
    <path class="cls-3" d="m60.29,114.27c-.32-.73-.95-1.52-1.27-2.24-.52.7-1.74,2.14-2.27,2.52-.06.05,1.78-.4,3.54-.28Z"/>
    <path class="cls-3" d="m46.28,125.31c.19-.37.38-.92.52-1.12-.43.11-.82.23-1.22.06.08.29.4.82.7,1.06Z"/>
    <path class="cls-3" d="m56.35,114.87c-.39.3-.78.6-1.17.92,1.14.22,2.72.2,3.84-.02-.73-.36-1.9-.67-2.67-.9Z"/>
    <path class="cls-3" d="m85.64,118.91c0-.27-.53-1.32-.77-1.25-.51.24-1.09.33-1.54.71.03-.06,1.74.15,2.3.53Z"/>
    <path class="cls-3" d="m32.24,104.2c.22,0,.7.37.88.51,0-.32,0-.71.19-1.03-.34,0-.8.25-1.07.52Z"/>
    <path class="cls-3" d="m33.5,107.93c-.17.2-.41.48-.49,1.24.29-.13.68-.25,1.11-.3-.34-.22-.5-.53-.63-.94Z"/>
    <path class="cls-3" d="m72.13,120.44c-.42.25-.8.66-1.05,1.12.45.07.75.23,1.3.51-.26-.6-.2-1.06-.26-1.63Z"/>
    <path class="cls-3" d="m42.03,124.19c-.28-.12-.63-.33-.85-.55-.09.22-.19.75-.11,1.13.29-.26.55-.48.96-.58Z"/>
    <path class="cls-3" d="m40.34,120.81c-.1-.07-.25-1.29-.26-1.29-.24.15-.74.83-.91,1.12.49-.09.98.1,1.17.17Z"/>
    <path class="cls-3" d="m83.59,105.33c-.77-1.71-1.94-2.8-3.12-4.2,1.78.42,2.75,1.29,3.7,2.89.58,1.2.97,2.48,1.34,3.75-.99-.48-1.44-1.42-1.91-2.45h0Zm-16.29,1.48c1-1.2,1.34-2.04,1.29-3.7,2.08,1.9.55,3.34-1.29,3.7h0Zm-2.37.79c1.87-.78,3.84-2.19,1.56-4.31.09,1.86-.33,2.8-1.56,4.31h0Zm-1.97.43c.95-1.23,1.45-2.13,1.49-3.77,1.86,1.61-.21,3.74-1.49,3.77h0Zm35.8,7.13c.38-.13,1.05-.24,1.27-.64-2.1.09-1.34-1.46-2.47-1.72-1.24-.21-2.26-.24-3.14-1.23-1.2-1.33-1.22-2.99-1.13-4.8.5.27,1.01.51,1.58.58-.87-.69-1.5-1.49-2.11-2.37.53.04,1.12.07,1.66.01-.35-.23-1.99-1.96-1.98-1.91.1.69.14,1.34.16,2,.02,1.1-.03,2.18.08,3.27.24,1.9.6,3.56,2.6,4.48.59.2,1.19.37,1.77.58.91.54,1.19,1.02,1.03,2.16-.22,1.56-.3,2.8.39,4.41-1.46-1.71-1.6-2.5-1.21-4.59-.01-.45-.05-.69-.42-.99-.53-.25-1.12-.38-1.68-.55-1.94-.9-2.77-1.96-3.23-4.06-.24-1.61-.27-3.23-.33-4.86-.05-1.17-.13-2.3-.31-3.44h0s-.16-.7-.16-.7c.44.55.97,1.19,1.22,1.86.64.18,1.2.28,1.82.32-.67-1.2-1.27-2.2-2.53-2.87,2.1.2,4.83.43,6.43-1.21,1.1-1.13,1.12-2.87.12-4.4-1.91-2.15-4.98-3.1-7.5-4.3-.04.29-.15.52-.32.76,1.72.92,3.47,1.77,5.17,2.71,1.32.76,2.7,1.65,2.22,3.45-.84,3.11-5.55,1.63-7.33.74-3.51-1.68-7.12-2.17-10.96-2.09-2.7.11-5.38.4-8.07.62.24.47.54.93.83,1.37-1.83-.09-2.85-.81-2.89-.75-.04.39-.02.86,0,1.28-1.12-.19-1.75-.51-2.48-1.37-.95,2.36-2.68,4.15-4.8,5.49l-.64-1.55c-.97,1.86-2.95,2.72-3.47,4.9-.92-.18-1.53-.82-1.88-1.71-.29,1.56-.11,2.48.5,3.89-.98.2-1.91.32-2.86-.14-.36,2.54-1.23,4.64-3.59,6.05l-2.4,3.11c-1.18,1.53-2.09,2.46-4.2,2.23-1.5-.21-3.27-.31-2.48,1.49l.02.05c.91-.81,1.82-.56,2.9-.37-.93.37-1.78.49-2.13,1.02-.82,1.2.18,2.74,2.27,1.76.2-1.3.65-2.2,2.03-2.48-.39.61-1.73,2.63-.32,2.98,1.06.24,1.59-1.27,1.86-2,1.5,1.7,2.75.65,2.04-1.26,1.54-.77,3-1.66,4.46-2.57.65.21,1.18.33,1.88.23l-.03-.02c-.53-.53-.99-1.09-1.42-1.72-1.29,1.08-2.8,2.35-4.2,2.4,3.4-3.12,8.99-6.32,9.5-11.14.29.86.36,1.19.3,2.23,3.38-.14,6.9-1.88,9.72-3.62-1.82,2.91-6.76,4.51-10.06,4.45-.14.44-.51.97-.75,1.36,1.22.79,5.42.29,6.06.19-.25-.63-.32-1.11-.35-1.79.76.18,1.63.26,2.41.25-.4-.32-.77-.59-1.06-.98l7.11-3.66c1.6-.81,3.09-1.54,4.88-1.71,2.33.05,3.7,1.28,4.77,3.13.82,1.58,1.52,3.2,2.48,4.71,1.69,2.33,3.09,3.08,5.64,3.81,1.17.33,2.29.77,3.21,1.74.63.99,1.08,2.09.66,3.04-.86,1.97-4.53-.8-4.74,1.76.07.54.45.83,1.01.97.38-1.48,1.57-1.27,2.75-.8-1.81,0-2.03,1.5-1.46,2.21.4.48,1.11.6,1.7-.06.54-.63.27-1.96,1.59-2.36-.23.45-.34,1.17-.17,1.68.22.63.94.83,1.35.26.32-.44.26-1.18.18-1.8,1.95-.05,2.3-1.02,2.19-2.21-.1-.99-.53-2.12-.66-3.03.68-.16,1.19-.36,1.68-.93-.79-.15-1.13-.55-1.6-1.16Z"/>
    <path class="cls-3" d="m95.95,125.26c.24.35.42.55.88.88.04-.39.18-.75.32-1.11-.29.33-.67.44-1.2.23Z"/>
    <path class="cls-3" d="m99.1,123.79c.24-.48.3-.72.3-1.12-.25.27-.43.37-.87.47l.57.65Z"/>
    <path class="cls-3" d="m35.98,101.27c-.13-.22-.83-.37-.93-.39.14.32.22.64.23.96.11-.26.5-.52.71-.57Z"/>
    <path class="cls-3" d="m94.56,104.99s-.09,0-.14,0h0s.14,0,.14,0Z"/>
    <path class="cls-3" d="m91.96,125.19c.06.56.01.66.25,1.37.35-.39.4-.41.83-.64-.56-.06-.8-.13-1.08-.73Z"/>
    <path class="cls-3" d="m77.01,125.56c.08.67.4,1.24.77,1.5.26-.5.4-.86.78-1.27-.69.14-1.13,0-1.56-.24Z"/>
    <path class="cls-3" d="m80.81,123.99c.44.7.27.25.73,1.12.41-.51.33-.6.53-1.12-.55.15-.6.15-1.26,0Z"/>
    <path class="cls-3" d="m74.54,125.15c-.71-.09-1-.27-1.19-.75-.2.53-.15.96-.1,1.48.57-.34.67-.57,1.29-.73Z"/>
    <path class="cls-3" d="m89.66,122.62c-.38.34-.47.67-.58,1.05.31-.09.68-.06,1.03-.04-.24-.27-.44-.64-.45-1Z"/>
    <path class="cls-3" d="m83.29,111.08c-1.46,2.38-.87,3.11.8,4.75-2.64-.46-3.94-3.38-.8-4.75h0Zm1.15,9.19c-.19-.56-.5-.85-.9-1.26l-.43-.4c-1.34,1.02-2.33,2.47-3.39,3.75.93-3.16,2.26-4.39,5.04-5.6.88-.39.91-.63.18-1.24-1.42-1.19-2.12-1.85-.96-3.84-1.16-2.84-2.45-6.18-5.11-6.42-.47.92-1.04,1.56-1.74,2.31-1.2,1.21-2.03,2.09-2.12,3.82.46,1.77,1.66,2.62,3.18,3.46,1.27.67,1.9,1.23,1.53,2.54-.21.77-.69,1.57-1.18,2.26-.94,1.29-1.86,1.29-3.26.6-.68-.33-1.34-.6-2.11.06-.43.5-.5,1.15,0,1.6.88-.74,1.35-.98,2.63.1-1.18-.24-1.8.08-2.03.55-.49.91.81,2.47,2.21,1.38.4-1.07,1.02-1.31,1.99-1.44-.66.54-1.91,1.49-.46,2.48.58.39,1.75-.24,2.03-1.98,2.43,1.25,3.59-.58,1.52-2.2,1.14-.54,2.04-.98,3.37-.55Z"/>
    <path class="cls-3" d="m40,109.72c.13.34,1.57,2.04,1.5,1.79-.18-.93-.27-1.88-.33-2.82-.62-.14-1.1-.49-1.46-1.07,1.89.47,4.78,1.08,7.21.06.12-1.35-.17-2.67.03-4.02-2.73,1.14-4.9,1.98-7.84,2.02-.46-.08-.67-.18-1-.51-.33-.6-.44-1.19-.57-1.84-.13-.48-.26-.91-.65-1.26-.32-.13-1.48.29-1.12.56.76.68.86,1.43,1.05,2.43-.5-.53-.92-.97-1.53-1.33-1.46-.55-1.41,1.14-1.11,2.02.84-.23,1.5-.09,2.32.14-2,.33-2.88,2.52-1.19,2.64.59.05,1.56-.49,2.1-.74-.03,2.29.4,2.75,2.59,1.93Z"/>
    <path class="cls-3" d="m70.04,89.22c-.14,1.59-.5,4.09,1.42,4.68-.51-1.22-.8-2.53-.71-3.88-.26-.25-.45-.56-.7-.8Z"/>
    <path class="cls-3" d="m49.18,99.36c1.31-2.01,1.75-2.6,4.12-2.97-1.34,1.02-2.69,2.2-3.39,3.81.79-.29,1.54-.77,2.29-1.15-.57,1.16-1.32,2.43-1.6,3.72,1.36-.39,2.37-1.91,3.31-2.91-.59,1.97-2.04,4.3-4.32,4.05-.04-.49,0-1.92.54-2.78-.99.29-1.26.16-1.62.14.14-.7.37-1.27.66-1.92h0Zm5.75,2.29c-1.29.69-3.02,2.13-3.35,4.77-.55-.71-.99-1.85-1.16-2.27-.46,2.25-.18,3.11,1.77,3.8.2-2.86,1.1-4.19,2.74-6.29h0Zm4.98-9.26c-.99,1.41-2.66,3.05-2.99,4.79,2.01-1.35,3.65-3.29,5.19-5.14l-.94,3.83c1.09-.51,1.53-1.56,2.3-2.25.52,2.73.95,3.48-.62,5.78.14-1.17.27-2.46,0-3.63-.9.94-1.86,1.32-3.08,1.64l.41-1.66c-1.35,1.3-2.72,2.28-4.32,3.22.07-3.08,1.29-5.08,4.04-6.58h0Zm1.16-4.99c-1.81,1.44-2.59,2.76-2.89,4.8,3.34-1.42,4.85-3.28,5.46-6.92-.88,1.73-1.95,3.62-3.61,4.7.18-.87.68-1.77,1.03-2.57h0Zm2.01-7.61c.67.8,1.21,1.83.93,2.92-.31,1.22-1.22,1.66-2.52,2,1.75-1.54,1.84-2.74,1.59-4.92h0Zm4.05-3.62c.69,1.63.52,2.59-.46,4.28.06-1.11.18-1.81-.13-2.9h-.05c-.84.27-1.55.83-2.18,1.46.51-1.4,1.28-2.46,2.81-2.83h0Zm-1.08,6.14c1.38,1.63,1.35,4.2-1.05,4.96,1.02-1.71,1.18-2.94,1.05-4.96h0Zm1.78,4.02c-1.56,1.43-2.78,3.31-3.37,5.39-.26-1.33-.07-2.35.15-3.68-1.64,2.27-1.27,3.72-.45,5.97,1.38-2.48,2.41-5.13,3.67-7.68h0Zm-10.83-1.31c1.7-.19,2.44-.57,2.06-2.62,1.88,2.5-.59,3.56-2.06,2.62h0Zm1.56-6.38c0-.45.19-.82.43-.82s.42.37.42.82-.2.81-.42.81-.43-.36-.43-.81h0Zm-9.62,23.22c-.5.82-.84,1.43-1.03,2.36-.08,1.06.06,2.11.03,3.19l.9-.86c.43,1.56.59,3.16.29,4.74,1.04-1.32,1.01-2.72.45-4.33,1.57,1.18,1.43,2.09,1.19,3.89.04.53.08.87.04,1.38,1.61-1.78,1.88-3.9,2.12-6.15.67.47,1.44,1.07,2.29,1.06-.56-1.76-.15-3.36.63-4.97.45.73.95,1.55,1.54,2.18.42-1.2,1.3-1.84,2.19-2.7.95-1.16,1.21-2.22,1.34-3.64-.83,1.38-1.88,2.52-2.53,4.01-.45-2.09-.88-3.61,1.34-4.86-.31.63-.7,1.36-.74,2.09.6-.58,1.28-1.04,1.96-1.51l.04-.55c.51,1.23,1.03,2.5,1.54,3.75,1.04-.74,1.82-1.62,2.44-2.61.76-1.2,1.23-2.51,1.66-3.85.48.95.88,1.88,1.72,2.52.11-.67.31-1.32.52-1.98.42.55.82,1.1,1.46,1.43-.2-.49-.56-1.5-.57-2.87l-.7-1.66c-.53.95-1.34,1.7-2.18,2.36-.62-1.56-.59-2.48.14-4.16-.02.8-.1,1.8.29,2.53,1.15-1.21,1.62-2.85,2.11-4.4-.17-.33-.34-.68-.5-1-.35,1.26-1.04,1.68-2.04,2.33.84-1.5,1.16-2.95,1.44-4.61,1.6,1.46,1.88,4.57,4.85,4.92-1.62-1.8-1.62-3.97-2.32-5.73-1.85-.56-2.3-1.6-2.41-3.5.57.99,2.43,3.44,3.83,2.33-.84-.33-1.41-1.04-1.83-1.8-.47-.92-.93-1.85-1.76-2.49h0c-.25.72-.66,1.02-1.24,1.47.48-1.51.57-2.83.17-4.34-1.59.04-2.55.91-3.64,2.02-.05-.51-.09-.87.1-1.37-1.29-.34-2.34-.69-3.67-.31-.5.23-.99.53-1.49.76.91.61,2.09.81,3.14,1.01.53,1.36.03,3.19-2.27,2.15.83-.2,2.2-.78,2.09-1.98-1.26.78-1.97,1.46-2.96,2.61.06-1.08.53-1.69,1.27-2.38-.87-.3-1.32-.71-1.51-1.32-.31.12-.64.17-.96.22-.85.01-1.62.16-2.35.46-.81.33-1.35.79-1.98,1.38.02.03.07.24.11.24.51.13.98-.96,2.29-.51-.59.38-1.42.67-1.72,1.35-.33.74.34,1.5.88,1.97.84-.04,1.64-.29,2.47-.41.78.02,1.16.25,1.5.99.34,1.43-.84,1.73-2,1.84-.77.02-1.53,0-2.28-.12l-.04.09c-.68,2,.92,2.03,2.41,1.77.88-.15,1.91-.15,2.67-.7,1.03-.68,1.16-1.64,1.61-2.94.12,2.82-.8,4.27-3.58,4.56-.65,1.42-2.53,2.16-3.9,2.55,1.01.62,2.27.85,3.37,1.18-1.39.11-2.6.17-3.77.59-1.05.38-1.87,1.06-2.74,1.74-.21.17-1,.74-1.26.74,1.68.79,4.02-1.2,5.29-2.07,0,1.17-.16,1.97-.84,2.88l.05.02h.01c1.58-.27,2.18-1.08,3.02-2.26-.41,2.96-1.74,4.11-5.22,2.79.53-.38,1.32-.83,1.66-1.39-.83.5-1.74.81-2.6,1.24-1.22.84-1.77,2.14-2.31,3.46-.54,1.24-1.11,2.23-2.21,3.08.78.53,1.85.22,2.68.07Z"/>
    <path class="cls-3" d="m83.03,89.96h.03c.69,0,1.36.13,2.05.22.27-.4.63-.76,1.02-1.03-.17-.12-.35-.25-.49-.43-.84-.1-2.18.48-2.61,1.24Z"/>
    <path class="cls-3" d="m55.39,83.67c.09-.32.16-.63.42-.9-.29.08-.53.12-.84.03.08.29.25.6.42.88Z"/>
    <path class="cls-3" d="m75.31,83.5c1.95,2.3,5.56,4.13,8.44,4.76.32-.13.66-.28,1.01-.38-.66-.22-1.33-.58-1.99-.78-1.68-.68-3.34-1.4-4.8-2.42-1.02-.71-1.99-1.46-2.45-2.63-.5-1.23-.44-2.38.91-3.51.86-.32,1.31-.32,2.19-.05.1-.19.25-.38.41-.55-4.14-1.68-6.08,3.06-3.72,5.55Z"/>
    <path class="cls-3" d="m88.33,88.4c-.99-.71-1.43-1.39-1.3-2.53-1.38.54-1.28,2.07.31,3.02l1.8.66c-.62.04-1.2.08-1.79.2-1.06.22-2.15,1.31-1.27,2.43.19-1.93,2.82-.66,3.6-1.95.45-.74-.88-1.48-1.35-1.83Z"/>
    <path class="cls-3" d="m46.65,108.83c-.97.18-1.97.23-2.95.21.84.37,1.67.74,2.56.97.14-.39.26-.76.37-1.14l.02-.05Z"/>
    <path class="cls-3" d="m37.89,111.08c-.59-.22-.61-.18-.77-.63-.1.41-.08.83.13,1.24.24-.48.49-.38.64-.61Z"/>
    <path class="cls-3" d="m48.29,110.29c.06-.62.08-1.24,0-1.87l-1.75,1.67c.58.1,1.15.19,1.75.2Z"/>
    <path class="cls-3" d="m43.32,109.04l-1.79-.25c.53,1.16,1.07,1.88,2.18,2.37l-.05-.24c-.15-.63-.24-1.24-.34-1.88Z"/>
    <path class="cls-3" d="m80.67,78.09c-.58.25-.87.39-1.23.99-.2.8.07,1.58-.11,2.36.82-.18,1.33-1.49,1.66-2.13.15,1.58.28,3.1,1.52,4.3-.14-1.08-.44-2.03-.78-3.04,1.46,1.44,2.34,2.43,4.33,3.04l-.07-.11c-.94-1.26-2.18-2.16-3.37-3.14,1.2.43,3.03,1.31,4.38.3-1-.3-2.25-.77-3.23-1.52-1.03-.79-1.71-1.5-3.1-1.05Z"/>
    <polygon class="cls-3" points="93.03 42.15 93.03 48.85 101.55 48.85 101.55 45.34 100.12 45.34 100.12 42.15 93.03 42.15"/>
    <path class="cls-3" d="m105.65,106.7c.31,2.4.52,4.8.62,7.21h7.06l-.21-7.21h-7.47Z"/>
    <rect class="cls-4" x="82.65" y="43.07" width="3.83" height="5.84"/>
    <polygon class="cls-3" points="90.34 24.75 90.34 33.43 113.75 33.43 113.75 24.75 109.59 24.75 109.59 29.87 104.19 29.87 104.19 24.75 99.9 24.75 99.9 29.87 94.49 29.87 94.49 24.75 90.34 24.75"/>
    <polygon class="cls-3" points="21.57 66.47 34.51 66.47 34.51 59.61 21.77 59.61 21.57 66.47"/>
    <polygon class="cls-3" points="111.06 34.47 93.03 34.47 93.03 41.16 100.12 41.16 100.12 36.79 103.95 36.79 103.95 41.16 111.06 41.16 111.06 34.47"/>
    <path class="cls-3" d="m32.21,91h-11.33l-.19,6.85h9.19c.65-2.32,1.42-4.61,2.33-6.85Z"/>
    <path class="cls-3" d="m20.24,113.87h7.03v-.29c.07-2.31.4-4.6.75-6.88h-7.58l-.2,7.17Z"/>
    <polygon class="cls-3" points="102.54 123.76 115.13 123.76 115.13 114.95 102.91 114.95 102.54 123.76"/>
    <polygon class="cls-3" points="18.43 123.76 31.14 123.76 30.77 114.95 18.43 114.95 18.43 123.76"/>
    <rect class="cls-4" x="46.17" y="43.07" width="3.83" height="5.84"/>
    <path class="cls-3" d="m112.68,91h-11.26c.95,2.24,1.74,4.53,2.4,6.85h9.05l-.19-6.85Z"/>
    <path class="cls-3" d="m105.08,98.85h-.99c.37,1.46.71,2.92.99,4.39v-4.39Z"/>
    <polygon class="cls-3" points="103.95 45.34 102.53 45.34 102.53 48.85 111.06 48.85 111.06 42.15 103.95 42.15 103.95 45.34"/>
    <polygon class="cls-3" points="54.46 16.04 54.46 24.71 79.12 24.71 79.12 16.04 74.7 16.04 74.7 21.16 69.06 21.16 69.06 16.04 64.5 16.04 64.5 21.16 58.87 21.16 58.87 16.04 54.46 16.04"/>
    <polygon class="cls-3" points="33.22 45.34 31.81 45.34 31.81 48.85 40.33 48.85 40.33 42.15 33.22 42.15 33.22 45.34"/>
    <polygon class="cls-3" points="113.97 51.8 114.53 49.9 19.01 49.9 19.59 51.8 113.97 51.8"/>
    <polygon class="cls-3" points="22.3 42.15 22.3 48.85 30.82 48.85 30.82 45.34 29.4 45.34 29.4 42.15 22.3 42.15"/>
    <polygon class="cls-3" points="40.33 34.47 22.3 34.47 22.3 41.16 29.4 41.16 29.4 36.8 33.22 36.8 33.22 41.16 40.33 41.16 40.33 34.47"/>
    <polygon class="cls-3" points="19.61 24.74 19.61 33.43 43.01 33.43 43.01 24.74 38.86 24.74 38.86 29.87 33.46 29.87 33.46 24.74 29.17 24.74 29.17 29.87 23.76 29.87 23.76 24.74 19.61 24.74"/>
    <rect class="cls-4" x="56.8" y="42.08" width="9.36" height="6.82"/>
    <rect class="cls-4" x="67.14" y="42.08" width="9.62" height="6.82"/>
    <polygon class="cls-3" points="73.82 33.45 68.7 33.45 68.7 37.59 64.86 37.59 64.86 33.45 59.74 33.45 59.74 41.1 73.82 41.1 73.82 33.45"/>
    <rect class="cls-4" x="74.8" y="33.45" width="1.96" height="7.65"/>
    <polygon class="cls-3" points="76.77 25.76 67.27 25.76 67.27 29.05 68.7 29.05 68.7 32.45 76.77 32.45 76.77 25.76"/>
    <rect class="cls-4" x="56.8" y="33.45" width="1.96" height="7.65"/>
    <polygon class="cls-3" points="64.86 29.05 66.29 29.05 66.29 25.76 56.8 25.76 56.8 32.45 64.86 32.45 64.86 29.05"/>
    <path class="cls-3" d="m29.61,98.85h-1.14v5.09c.33-1.72.71-3.41,1.14-5.09Z"/>
    <rect class="cls-4" x="91.62" y="67.46" width="13.46" height="6.85"/>
    <polygon class="cls-3" points="99.06 75.3 99.06 82.16 112.43 82.16 112.24 75.3 99.06 75.3"/>
    <polygon class="cls-3" points="112.66 90.01 112.46 83.15 106.07 83.15 106.07 90.01 112.66 90.01"/>
    <polygon class="cls-3" points="106.07 52.81 106.07 58.62 111.77 58.62 111.6 52.81 106.07 52.81"/>
    <path class="cls-3" d="m90.63,74.31v-6.85l-8.81.11c2.99,1.98,5.8,4.24,8.37,6.74h.45Z"/>
    <rect class="cls-4" x="83.29" y="59.61" width="14.78" height="6.86"/>
    <polygon class="cls-3" points="99.06 66.47 111.98 66.47 111.79 59.61 99.06 59.61 99.06 66.47"/>
    <polygon class="cls-3" points="106.07 67.46 106.07 74.31 112.2 74.31 112.02 67.46 106.07 67.46"/>
    <path class="cls-3" d="m105.08,90.01v-6.86h-7.77c1.37,2.2,2.6,4.5,3.67,6.86h4.09Z"/>
    <polygon class="cls-3" points="113.1 105.71 112.9 98.85 106.07 98.85 106.07 105.71 113.1 105.71"/>
    <rect class="cls-4" x="76.28" y="52.81" width="14.34" height="5.81"/>
    <path class="cls-3" d="m56.56,67.54c3.29-1.8,6.72-3.25,10.35-4.23,11.81,4.49,22.69,12.32,29.34,23.32,4.85,8.56,7.07,17.6,7.38,27.29h1.66c-.09-2.47-.31-4.93-.65-7.36-2.03-14.1-8.93-27.39-20.45-36.08-5.24-3.95-11.25-6.88-17.47-9.08-11.42,3.95-21.54,10.5-28.61,20.65l-.71,1.07c-5.29,8.55-8.99,20.41-9.12,30.77h1.68c.62-11.09,3.35-21.96,9.73-31.23,4.55-6.27,10.27-11.29,16.87-15.1Z"/>
    <path class="cls-3" d="m96.65,82.16h1.42v-6.87l-6.85.03c.17,0,3.14,3.51,5.42,6.83Z"/>
    <rect class="cls-4" x="91.62" y="52.81" width="13.46" height="5.81"/>
    <path class="cls-3" d="m42.24,75.3h-6.76v6.85h1.36c1.62-2.44,3.39-4.72,5.4-6.85Z"/>
    <path class="cls-3" d="m20.91,90.01h6.58c0-2.28,0-4.57.01-6.86h-6.4l-.19,6.86Z"/>
    <rect class="cls-4" x="28.47" y="67.46" width="13.48" height="6.85"/>
    <polygon class="cls-3" points="21.35 74.31 27.5 74.31 27.5 67.46 21.54 67.46 21.35 74.31"/>
    <rect class="cls-4" x="28.47" y="52.81" width="13.48" height="5.81"/>
    <polygon class="cls-3" points="27.5 98.85 20.66 98.85 20.46 105.71 27.5 105.71 27.5 98.85"/>
    <polygon class="cls-3" points="34.51 75.3 21.32 75.3 21.13 82.16 34.51 82.16 34.51 75.3"/>
    <rect class="cls-4" x="42.94" y="52.81" width="14.34" height="5.81"/>
    <path class="cls-3" d="m51.69,67.46h-8.76v6.85h.26c2.57-2.55,5.45-4.88,8.49-6.85Z"/>
    <rect class="cls-4" x="58.27" y="52.81" width="17.03" height="5.81"/>
    <path class="cls-3" d="m36.21,83.15h-7.74v6.86h4.16c1.04-2.36,2.23-4.65,3.58-6.86Z"/>
    <path class="cls-3" d="m66.72,60.35c4.65,1.58,9.14,3.59,13.37,6.12h2.22v-6.86h-31.05v6.86h2.01c4.26-2.54,8.77-4.54,13.45-6.12Z"/>
    <polygon class="cls-3" points="21.96 52.81 21.81 58.62 27.5 58.62 27.5 52.81 21.96 52.81"/>
    <rect class="cls-4" x="35.48" y="59.61" width="14.79" height="6.86"/>
    <path class="cls-1" d="m180.88,78.52c-8.44,0-10.2,7.87-10.2,15.9s1.77,15.73,10.2,15.73c5.87,0,8.78-4.1,9.58-9.18l-4.28-1.03c-.63,3.59-1.99,6.38-5.3,6.38-5.02,0-5.76-6.1-5.76-12.14s.74-11.86,5.76-11.86c3.31,0,4.73,2.85,5.3,6.44l4.28-.97c-.74-5.07-3.76-9.29-9.58-9.29h0Zm24.35,0c-8.61,0-10.55,7.87-10.55,15.9,0,7.07,1.65,15.73,10.55,15.73s10.55-8.61,10.55-15.62-1.48-16.02-10.55-16.02h0Zm0,3.82c5.24,0,6.04,6.21,6.04,12.03s-.86,11.97-6.04,11.97-6.1-5.99-6.1-11.97.91-12.03,6.1-12.03h0Zm25.5,27.82c3.02,0,5.36-1.77,7.13-4.16l.74,3.59h3.36v-30.5h-4.39v17.9c0,3.93-1.25,9.06-5.99,9.06-3.53,0-5.36-2.05-5.36-6.56v-20.41h-4.39v21.26c0,6.5,3.59,9.8,8.89,9.8h0Zm29.84-31.64c-3.08,0-5.42,1.71-7.13,4.1l-.8-3.53h-3.36v30.5h4.39v-17.9c0-3.93,1.31-9.06,6.04-9.06,3.48,0,5.3,2.05,5.3,6.56v20.41h4.39v-21.26c0-6.5-3.59-9.8-8.84-9.8h0Zm25.17,0c-8.44,0-10.2,7.87-10.2,15.9s1.77,15.73,10.2,15.73c5.87,0,8.78-4.1,9.58-9.18l-4.28-1.03c-.63,3.59-1.99,6.38-5.3,6.38-5.02,0-5.76-6.1-5.76-12.14s.74-11.86,5.76-11.86c3.31,0,4.73,2.85,5.3,6.44l4.28-.97c-.74-5.07-3.76-9.29-9.58-9.29h0Zm19.12.57h-4.39v30.5h4.39v-30.5h0Zm-2.22-9.69c-1.6,0-2.79,1.25-2.79,2.85s1.2,2.85,2.79,2.85,2.91-1.25,2.91-2.85-1.31-2.85-2.91-2.85h0Zm9.65,33.4c0,4.16,2,7.18,7.18,7.18,1.03,0,1.65-.11,2.96-.4v-3.82c-.63.11-1.25.17-1.94.17-1.94,0-3.82-.63-3.82-3.14v-32.55h-4.39v32.55Z"/>
    <path class="cls-1" d="m172.67,55.3h18.58v-4.16h-13.85V15.96h-4.73v39.33h0Zm40.76-30.5l-9.23,30.5h-4.22l-9.23-30.5h4.67l6.67,24.11,6.78-24.11h4.56Zm9.4,0h-4.39v30.5h4.39v-30.5h0Zm-2.22-9.69c-1.6,0-2.79,1.25-2.79,2.85s1.2,2.85,2.79,2.85,2.91-1.25,2.91-2.85-1.31-2.85-2.91-2.85h0Zm29.92,9.69h-4.56l-6.78,24.11-6.67-24.11h-4.67l9.23,30.5h4.22l9.23-30.5h0Zm31.01-.57c-8.44,0-10.2,7.87-10.2,15.9s1.77,15.73,10.2,15.73c5.87,0,8.78-4.1,9.58-9.18l-4.28-1.03c-.63,3.59-1.99,6.38-5.3,6.38-5.02,0-5.76-6.1-5.76-12.14s.74-11.86,5.76-11.86c3.31,0,4.73,2.85,5.3,6.44l4.28-.97c-.74-5.07-3.76-9.29-9.58-9.29h0Zm19.12.57h-4.39v30.5h4.39v-30.5h0Zm-2.22-9.69c-1.6,0-2.79,1.25-2.79,2.85s1.2,2.85,2.79,2.85,2.91-1.25,2.91-2.85-1.31-2.85-2.91-2.85h0Zm11.22,13.51v19.89c0,4.16,2,7.18,7.18,7.18,1.08,0,2.22-.06,3.53-.4v-3.82c-.74.17-1.6.28-2.45.28-1.99,0-3.88-.68-3.88-3.25v-19.89h6.5v-3.82h-6.5v-8.84h-4.39v8.84h-3.99v3.82h3.99Zm18.03,31.24v3.82c.8.11,1.71.17,2.39.17,5.81,0,7.01-3.65,8.38-8.55l8.66-30.5h-4.9l-3.14,12.6c-1.14,4.67-2.05,8.27-2.85,11.69-.74-3.42-1.88-6.9-3.42-11.91l-3.82-12.37h-4.9l9.92,29.47c-.4,3.99-1.71,5.7-4.85,5.7-.4,0-1.03-.06-1.48-.11Z"/>
  </g>
</svg>