<?xml version="1.0" encoding="UTF-8"?>
<svg id="_Шар_2" data-name="Шар 2" xmlns="http://www.w3.org/2000/svg" viewBox="0 0 355.39 250.1">
  <defs>
    <style>
      .cls-1 {
        stroke-width: 0px;
      }
    </style>
  </defs>
  <g id="Layer_1" data-name="Layer 1">
    <path class="cls-1" d="m0,164.1l148.9,86v-46.5L0,117.6v46.5Z"/>
    <path class="cls-1" d="m148.9,74.5c-.03,41.12-33.38,74.43-74.5,74.4C33.28,148.87-.03,115.52,0,74.4.03,33.32,33.32.03,74.4,0c41.13.03,74.47,33.37,74.5,74.5Z"/>
    <path class="cls-1" d="m205.73,139.73c-4.34.11-8.62-.99-12.36-3.19-3.43-2.16-6.14-5.29-7.77-9l8.39-3.1c2.11,4.67,6,7,11.74,7,2.72.15,5.43-.55,7.74-2,1.84-1.09,2.98-3.06,3-5.2,0-1.8-.76-3.52-2.11-4.72-1.34-1.3-3.14-2-5-1.94h-9.47v-7.78h9.11c1.65.04,3.24-.59,4.42-1.74,1.22-1.02,1.93-2.54,1.91-4.14,0-1.96-1.02-3.77-2.69-4.79-2.12-1.3-4.58-1.93-7.07-1.82-5.5,0-9.26,2.32-11.29,6.95l-8.43-3.11c1.64-3.69,4.33-6.82,7.73-9,3.67-2.18,7.88-3.27,12.15-3.15,5.46,0,9.88,1.32,13.32,4,3.35,2.22,5.35,5.98,5.33,10,0,4.34-1.94,7.86-5.83,10.59,4.55,2.77,6.86,6.57,6.86,11.53.03,4.23-2.05,8.2-5.54,10.59-4.18,2.79-9.12,4.19-14.14,4.02Z"/>
    <path class="cls-1" d="m241.41,138.78h-8.68v-48.91h8.68l18.07,31.79,18.07-31.79h8.72v48.91h-8.72v-32.46l-15.18,26.79h-5.74l-15.22-26.79v32.46Z"/>
    <path class="cls-1" d="m303.76,138.78h-8.68v-48.91h8.68v48.91Z"/>
    <path class="cls-1" d="m320.87,138.78h-8.26v-48.95h7.6l26.83,34v-34h8.35v49h-7.6l-26.92-34.11v34.07h0Z"/>
  </g>
</svg>