<?xml version="1.0" encoding="UTF-8"?>
<svg id="_Шар_2" data-name="Шар 2" xmlns="http://www.w3.org/2000/svg" viewBox="0 0 261.49 94.33">
  <defs>
    <style>
      .cls-1 {
        fill: #fff;
      }

      .cls-1, .cls-2 {
        stroke-width: 0px;
      }

      .cls-2 {
        fill: #202020;
      }
    </style>
  </defs>
  <g id="Layer_1" data-name="Layer 1">
    <g>
      <g>
        <path class="cls-2" d="m.4,46.46v-12.74h1.93v12.74H.4Z"/>
        <path class="cls-2" d="m12.75,46.46v-5.57h-5.15v5.57h-1.93v-12.74h1.93v5.46h5.15v-5.46h1.95v12.74h-1.95Z"/>
        <path class="cls-2" d="m22.12,46.56c-1.32,0-2.47-.48-3.35-1.36-1.25-1.25-1.24-2.67-1.24-5.12s-.02-3.87,1.24-5.12c.88-.88,2.02-1.36,3.35-1.36,2.34,0,4.1,1.38,4.55,3.92h-1.97c-.3-1.29-1.16-2.18-2.58-2.18-.75,0-1.43.29-1.88.77-.63.68-.77,1.41-.77,3.97s.14,3.29.77,3.97c.45.48,1.13.77,1.88.77,1.41,0,2.29-.9,2.6-2.18h1.95c-.43,2.54-2.24,3.92-4.55,3.92Z"/>
        <path class="cls-2" d="m33.38,35.45v11.01h-1.93v-11.01h-3.51v-1.74h8.95v1.74h-3.51Z"/>
        <path class="cls-2" d="m46.55,46.46v-9.25l-5.71,9.25h-1.75v-12.74h1.93v9.23l5.69-9.23h1.77v12.74h-1.93Z"/>
        <path class="cls-2" d="m56.12,35.45v11.01h-1.93v-11.01h-3.51v-1.74h8.95v1.74h-3.51Z"/>
        <path class="cls-2" d="m65.59,44.38c-.5,1.16-1.31,2.08-2.69,2.08h-1.32v-1.74h.91c.77,0,1.2-.34,1.49-1.02l.45-1.04-4.13-8.95h2.04l3.04,6.82,2.74-6.82h2.04l-4.56,10.67Z"/>
        <path class="cls-2" d="m76.23,35.45v11.01h-1.93v-11.01h-3.51v-1.74h8.95v1.74h-3.51Z"/>
      </g>
      <g>
        <path class="cls-2" d="m4.58,68.04c-1.32,0-2.47-.48-3.35-1.36C-.02,65.42,0,64.01,0,61.56s-.02-3.87,1.24-5.12c.88-.88,2.02-1.36,3.35-1.36,2.34,0,4.1,1.38,4.55,3.92h-1.97c-.3-1.29-1.16-2.18-2.58-2.18-.75,0-1.43.29-1.88.77-.63.68-.77,1.41-.77,3.97s.14,3.29.77,3.97c.45.48,1.13.77,1.88.77,1.41,0,2.29-.9,2.6-2.18h1.95c-.43,2.54-2.24,3.92-4.55,3.92Z"/>
        <path class="cls-2" d="m15.84,56.92v11.01h-1.93v-11.01h-3.51v-1.74h8.95v1.74h-3.51Z"/>
        <path class="cls-2" d="m26.38,62.92h-2.9v5.01h-1.93v-12.74h4.83c2.42,0,4.08,1.58,4.08,3.87s-1.66,3.87-4.08,3.87Zm-.13-6h-2.77v4.26h2.77c1.4,0,2.27-.82,2.27-2.13s-.88-2.13-2.27-2.13Z"/>
        <path class="cls-2" d="m39.24,67.93l-.89-2.56h-5.03l-.89,2.56h-2.04l4.67-12.74h1.56l4.65,12.74h-2.02Zm-3.36-9.86l-2,5.66h3.95l-1.95-5.66Z"/>
        <path class="cls-2" d="m46.33,56.92v11.01h-1.93v-11.01h-3.51v-1.74h8.95v1.74h-3.51Z"/>
        <path class="cls-2" d="m52.04,67.93v-12.74h8.16v1.74h-6.23v3.72h5.3v1.72h-5.3v3.83h6.23v1.74h-8.16Z"/>
        <path class="cls-2" d="m64.85,56.92v11.01h-1.93v-12.74h7.84v1.74h-5.91Z"/>
        <path class="cls-2" d="m72.94,67.93v-12.74h1.93v12.74h-1.93Z"/>
        <path class="cls-2" d="m76.35,53.77v-1.93h1.65v1.93h-1.65Zm1.84,14.16v-12.74h1.93v12.74h-1.93Zm2.02-14.16v-1.93h1.65v1.93h-1.65Z"/>
      </g>
      <g>
        <path class="cls-2" d="m.4,89.4v-12.74h1.93v6.05l4.76-6.05h2.38l-4.9,6.01,5.35,6.73h-2.45l-5.14-6.66v6.66H.4Z"/>
        <path class="cls-2" d="m15.27,87.33c-.5,1.16-1.31,2.08-2.69,2.08h-1.32v-1.74h.91c.77,0,1.2-.34,1.49-1.02l.45-1.04-4.13-8.95h2.04l3.04,6.82,2.74-6.82h2.04l-4.56,10.67Z"/>
        <path class="cls-2" d="m28.15,89.4v-11.01h-3.67v4.03c0,5.35-1.29,6.98-3.85,6.98h-.81v-1.74h.34c1.41,0,2.43-.9,2.43-5.51v-5.49h7.48v12.74h-1.93Z"/>
        <path class="cls-2" d="m38.32,89.4h-4.89v-12.74h1.93v5.01h2.95c2.43,0,4.04,1.57,4.04,3.87s-1.63,3.87-4.04,3.87Zm-.16-6h-2.79v4.26h2.79c1.41,0,2.26-.81,2.26-2.13s-.84-2.13-2.26-2.13Z"/>
        <path class="cls-2" d="m48.11,78.4v11.01h-1.93v-11.01h-3.51v-1.74h8.95v1.74h-3.51Z"/>
        <path class="cls-2" d="m57.57,87.33c-.5,1.16-1.31,2.08-2.69,2.08h-1.32v-1.74h.91c.77,0,1.2-.34,1.49-1.02l.45-1.04-4.13-8.95h2.04l3.04,6.82,2.74-6.82h2.04l-4.56,10.67Z"/>
        <path class="cls-2" d="m68.74,84.39h-2.9v5.01h-1.93v-12.74h4.83c2.42,0,4.08,1.58,4.08,3.87s-1.66,3.87-4.08,3.87Zm-.13-6h-2.77v4.26h2.77c1.4,0,2.27-.82,2.27-2.13s-.88-2.13-2.27-2.13Z"/>
        <path class="cls-2" d="m82.62,89.4v-9.25l-5.71,9.25h-1.75v-12.74h1.93v9.23l5.69-9.23h1.77v12.74h-1.93Z"/>
      </g>
      <path class="cls-2" d="m117.71,8.12c-.19-2.41.81-4.17,2.84-5.4.23-.14.39-.4.6-.59,1.29-1.21,2.74-1.98,4.58-2.06,2.81-.12,5.61-.09,8.4.33.9.13,1.55.48,2.13,1.24.64.85,1.72,1.38,2.28,2.25,1.22,1.89,2.57,3.79,2.2,6.27-.05.33.07.68.09,1.02.03.34.17.74.04,1.01-1.12,2.3-2.73,4.25-5.03,5.35-1.19.57-2.67.56-4.02.76-.97.14-1.88-.06-2.84-.37-1.14-.37-2.43-.25-3.63-.5-1.83-.39-3.68-.79-4.96-2.37-1-1.24-2.14-2.41-2.42-4.05-.16-.95-.17-1.92-.25-2.88Zm6.02,2.57c.77.03,1.01-.15.82-.67-.03-.08-.16-.12-.25-.19-.16.24-.33.49-.57.85Zm2.22-6.62c.1.08.2.16.3.24.18-.24.36-.48.53-.72l-.23-.18c-.2.22-.41.43-.61.65Zm-4.68,5.85c-.1-.13-.19-.28-.22-.27-.13.04-.25.14-.37.22.06.08.14.23.19.23.14-.02.26-.11.41-.17Z"/>
      <path class="cls-1" d="m247.04,36.89c1.07-.33,1.19-1.84,1.87-2.28s1.55-.04,1.55,0-1.11.94-1.24,1.22-.5.86-.68,1.06-2.04.86-2.04.86l.54-.86Z"/>
      <path class="cls-2" d="m261.13,51.76c-.21-2.95-1.16-16.38-1.71-18.14-.31-.99-1.32-1.83-2.43-1.98-1.39-.19-2.83-.09-4.24-.11-.4,0-.81.07-1.19-.02-1.48-.33-2.93-.25-4.43-.09-1.78.19-3.16,3.08-4.29,4.42-2.27,2.72-4.69,5.31-6.97,8.03-1.17,1.39-2.37,2.38-3.37,3.92-.34,1.76-.04,3.63-.15,5.32.17.11.35.23.51.36.43.35.8.78,1.13,1.24.18.1.41.14.55.29,1.24,1.28,2.25,2.18,3.14,3.39,1.12,1.51,2.54,2.79,3.76,4.23,1.41,1.67,4.28,5.77,4.36,5.85.97,1.08,1.52,2.27,1.98,3.5.11.31.37.97.16,1.27-.52.73-1.24.74-3.16.85-2.29.13-4.59.04-6.87.17-1.44.09-1.85.24-2.9-.97-.6-.69-.98-1.56-1.57-2.26-1.75-2.03-3.5-4.06-5.01-6.28-.09-.14-.19-.27-.29-.4-.16-.18-.31-.36-.44-.56-.04-.06-.06-.09-.08-.13-.03-.04-.06-.08-.1-.12-.19-.22-.39-.44-.59-.64-.39-.39-.78-.78-1.17-1.18-.81-.84-1.56-1.76-2.19-2.76-.98,0-.66-.09-1.74-.03-.62.04-1.49.04-2.07.26-.64.24-.76,1.25-.78,1.94-.07,1.72-.21,3.44-.09,5.15.16,2.12-.11,4.11-1.11,5.99-.16.29-.34.67-.61.79-1.4.64-2.78,1.41-4.4,1.32-1.77-.09-3.54-.2-5.32-.29-.61-.03-1.05-.33-.96-.95.26-1.98-.75-3.97.08-5.95.1-.24,0-.57-.02-.85-.07-1.08-.21-2.15-.21-3.23,0-3.25.43-6.49.42-9.75,0-1.04.05-2.02-.33-3.02-.15-.38,0-.89.04-1.34.06-.67.21-1.34.22-2.01.02-1.48-.13-2.97-.02-4.44.05-.67,0-1.39.16-2.05-.06-.29-.1-.59-.1-.88,0-.57.13-1.08.32-1.56-.09-.24-.21-.47-.26-.73-.14-.65-.21-1.38-.21-2.06,0-.43-.21-1.75.07-.17-.21-1.15-.06-2.3.42-3.26-.33-.15-.67-.28-1.02-.37-2.66-.68-5.28-1.44-8.12-1.08-2.66.33-5.37.33-8.05.52-.37.03-.73.26-1.13.41-.03.46-.1.86-.06,1.25.13,1.46.32,2.87.17,4.38-.18,1.78-.71,3.32-1.65,4.75-.5.77-1.27,1.13-2.25.79-.54-.18-1.14-.44-1.66-.37-2.09.3-4.17.71-6.25,1.12-.78.15-1.52.52-2.3.6-2.28.23-3.94,2.28-3.48,4.62.13.65-.02,1.36-.09,2.03-.09.84-.28,1.68-.35,2.53-.08,1.01.27,2.05-.29,3.03-.11.2.02.56.09.83.29,1.11.56,2.23.91,3.32.37,1.19,1.07,2.14,2.23,2.7.98.47,1.94.98,2.92,1.44.41.2.83.46,1.26.49,2.11.11,4.24.37,6.32.16,1.8-.18,3.53.04,5.29.1.79.03,1.34.35,1.34,1.23,0,1.48.08,2.97-.03,4.44-.05.7-.25,1.08-.62,1.33-.12,1.18-1.06,1.82-2.23,1.89-.09,0-.16-.01-.23-.02-.23.16-.49.27-.84.27-.09,0-.15-.04-.23-.05-.14.05-.28.06-.43.07-.27.11-.56.17-.91.09-.25-.05-.49-.09-.74-.13-.03,0-.05.02-.08.02h-.25c-.06,0-.11-.03-.17-.03-.89.34-1.89.34-2.82.24-4.33-.49-8.69.11-13.01-.52-2.15-.31-4.13-.71-5.66-2.39-2.39-2.63-4.32-5.48-4.41-9.21-.02-.79-.05-1.59-.21-2.37-.43-2.08-.79-4.13-.16-6.24.13-.43.06-1.12-.21-1.41-.48-.51-.47-.98-.35-1.56.36-1.82.45-3.63-.07-5.45-.11-.37-.17-.84-.02-1.17.47-1.02.76-2.01.43-3.14-.09-.3,0-.71.14-1.01.68-1.37.78-2.85,1.05-4.32.47-2.64-.18-3.54-2.89-3.85-.66-.07-1.38-.24-1.91-.6-.91-.62-1.77-.68-2.75-.27-2.18.91-4.44.96-6.75.66-1.36-.18-2.74-.26-4.12-.26-.52,0-1.43.27-1.5.57-.22.99-.9,1.92-.29,3.1.39.75.59,1.88.31,2.62-.45,1.19-.26,2.18-.05,3.33.37,2,.68,4.02.12,6.09-.39,1.43-1.04,2.97.03,4.45.11.16.05.45.05.68.07,3.03.14,6.05.19,9.08.01.85-.1,1.69-.14,2.54-.07,1.49-.32,3-.13,4.45.21,1.64-.28,3.08-.76,4.52-.35,1.06-.96,2.18-2.29,2.32-1.82.19-3.66.41-5.48.37-1.69-.03-3.38-.38-5.07-.6-1-.13-1.48-.78-1.69-1.7-.11-.5-.07-1.17-.38-1.47-1.12-1.1-.97-2.36-.76-3.69.04-.27.04-.59-.07-.84-.37-.85-.06-2.02-1.18-2.51-.24-1.46-.6-2.91-.69-4.37-.08-1.3.25-2.61.23-3.91-.03-2.1-.16-4.19-.33-6.28-.12-1.44-.88-2.81-.36-4.31.08-.24-.1-.56-.12-.84-.17-2.54-.91-5.06-.13-7.62.1-.32.09-.68.1-1.03.09-2.03-1.14-3.33-3.18-3.42-3.88-.17-7.75-.35-11.85-.53-.08.36-.22.68-.22,1-.04,1.76,0,3.52-.07,5.27-.03,1-.42,1.95-.13,3,.29,1.05.27,2.15-.26,3.18-.1.19-.12.45-.1.67.12,1.42.18,2.85.4,4.26.3,1.94.12,3.89-.07,5.79-.23,2.24-.32,4.45.45,6.57.6,1.66.61,3.32.65,5.02.03,1.31.25,2.61.47,3.91.25,1.44.62,2.87.89,4.31.35,1.86.69,3.72,2.22,5.07.12.11.27.29.26.42-.12,2.05,2.17,3.08,2.16,5.09,0,.17.28.35.45.5,1.19.96,2.4,1.91,3.59,2.87.31.25.69.47.88.8.43.71,1.09.97,1.8,1.23.73.27,1.45.61,1.95.82.5-.15.89-.41,1.14-.32.7.27,1.35.57,2.14.29.23-.08.58.04.82.17.78.44,1.51.38,2.29-.02.29-.15.7-.22,1-.14,1.09.31,2.2.62,3.24,1.07,1.26.55,1.83.54,2.75-.44.27-.29.4-.7.59-1.05.87.45,1.47.78,1.95.65,1.66-.44,3.24-.46,4.8.29.1.05.22.07.34.07,2.11-.03,4.21-.04,6.32-.1,1.42-.05,2.86-.48,4.2.36.13.08.36.13.5.08,1.16-.47,2.33-.07,3.5-.06.22,0,.51.02.64-.11.77-.77,1.53-.58,2.34-.1.19.11.43.18.66.19,1.98.11,3.97.15,5.94.32,1.11.1,2.3-.11,3.29.72.24.21.87.27,1.11.11,1.15-.78,2.36-.6,3.62-.49.84.07,1.73-.32,2.54-.18,2.4.42,4.75.16,7.12-.15.45-.06.91.03,1.37.05.68.03,1.37.04,2.05.09,1.97.15,4.03-.45,5.9.66.21.13.61.14.82.02.52-.3,1.01.06,1.42,0,1.42-.2,2.82-.38,4.25-.1.08.02.2-.1.29-.17.83-.55,1.67-.41,2.42.11.74.5,1.45.46,2.29.29,1.28-.26,2.59-.42,3.89-.49,1.48-.08,2.99.18,4.44-.05,2.35-.37,4.65-.42,6.98.02.53.1,1.12-.11,1.69-.15,1.07-.08,2.15-.27,3.2-.16.33.04.67.15,1.01.3.01,0,.02,0,.03,0,.37,0,.73.06,1.08.15.51-.12,1.04-.17,1.57-.06.55-.13,1.13-.2,1.74-.2.05-.05.1-.09.14-.13.52-.55,1.07-.79,1.81-.78,1.13.01,2.29.05,3.4-.12,1.58-.25,3.13-.67,4.69-1.03,1.45-.33,2.9-.91,4.35-.92,1.7,0,3.24-.52,4.86-.79.92-.16,1.73-.45,2.43-1.12.35-.34.92-.45,1.38-.66.26-.12.65-.17.75-.37.56-1.18,1.4-1.29,2.2-2.19.37-.42,1.24-1.35,1.54-1.81,1.82-2.79,1.89-3.12,2.99-6.26.67-1.91,1.35-8.87,1.4-10.34.07-2.01-.22-13.4-.36-15.29Zm-19.93,5.89c.6.04,1.11.07,1.72.11.05.51.09.92.16,1.58-.94-.46-1.74-.54-1.87-1.69Zm2.05.8q.87-.8,1.83-.55c-.36.74-.92.57-1.83.55Zm4.04-3.55c-.12-.02-.2-.3-.3-.47.19-.09.37-.22.56-.25.06-.01.17.23.32.44-.23.12-.43.31-.58.28Zm-137.42-4.98c.23.22-.7,3.26-1.46,5.63-.27.29-.55.58-.83.87.98-3.22,2.09-6.69,2.3-6.49Zm.74,8.48c-1.07.33-1.19,1.84-1.87,2.28-.68.45-1.55.04-1.55,0s1.11-.94,1.24-1.22c.12-.29.5-.86.68-1.06s2.04-.86,2.04-.86l-.54.86Zm2.34,14.55c-.16-.1-.29-.27-.39-.44-.02-.03.24-.29.3-.27.17.06.31.22.54.4-.22.15-.4.34-.45.31Zm1.47-2.51s-.28-.01-.43-.02c.03-.33.06-.66.09-.99.17.03.35.06.52.09-.05.31-.09.62-.18.92Zm.42-2.13c.5-1.9.97-3.68,2.43-5,.96,1.35.89,2.12-.03,3.06-.53.54-.88,1.26-1.4,2.03-.16-.02-.54-.05-1-.09Zm4.65-1.38l-2.72,3.71s-.78.41-.78.29.41-.91.5-1.03c.08-.12.21-.1.54-.96s.95-1.48,1.07-1.6c.12-.12,1.4-1.16,1.4-1.16v.74Zm5.72,16.5c-.08.12-.21.1-.54.96-.33.86-.95,1.48-1.07,1.6s-1.4,1.16-1.4,1.16v-.74l2.72-3.71s.78-.41.78-.29-.41.91-.5,1.03Zm13.67,6.06c-.21-.11-.37-.38-.48-.61-.04-.08.18-.39.24-.37.29.06.61.13.83.3.19.14.26.43.51.88-.53-.08-.85-.07-1.1-.2Zm8.22-39.28c.11-.17,2.13-2.93,2.13-2.93-.12.23-6.04,11.08-6.32,10.65-.29-.43,4.08-7.55,4.19-7.72Zm-4.41,18.94c.08-.19.25-.35.42-.48.03-.02.22.17.44.35-.26.22-.45.37-.65.53-.08-.13-.25-.31-.21-.39Zm2.3,20.48c-.03.18-.53.41-.8.39-.36-.03-.69-.29-1.24-.54.7-.93.94-1.92,1.97-2.37.65.91.2,1.73.07,2.52Zm-.98-23.91c.85-.3,1.22-.09,1.42.64-.7.41-1.03.09-1.42-.64Zm2.61-10.34c-.2-.29,2.77-5.14,2.85-5.25.08-.12,1.45-1.99,1.45-1.99-.08.16-4.11,7.54-4.3,7.25Zm4.15,33.31c-.12.18-.35.28-.84.64,0-.58-.09-.89.02-1.11.13-.27.41-.5.68-.64.11-.06.53.21.52.25-.08.3-.2.6-.38.86Zm5.14,1.33c-.7-.01-1.21-.25-1.29-1.08.42-.38.87-.78,1.42-1.29.28.18.51.27.64.43.29.37.78.83.72,1.17-.12.74-.85.77-1.49.76Zm6.47-8.47c-.28.41-1.72,1.79-1.76,2.14-.04.34-1.21,2.55-1.21,2.55,0,0-.62-.41-.55-.62.07-.21,1.03-2.57,1.03-2.57l2.48-2.81.69-.48s-.41,1.38-.69,1.79Zm25.39,2.46c-.73,1.36-1.38,2.75-2.1,4.11-.87,1.63-2.15,1.82-3.81.37.32-.58.57-1.15.92-1.64.78-1.12,1.6-2.2,2.41-3.29.2-.27.41-.54.64-.78.46-.47.94-.93,1.28-1.27.82-.33,1.51-.61,2.34-.94.47.33.76.78.16,1.42-.31.33-.66.63-.97.96s-.66.66-.87,1.05Zm1.14,4.36c-.11-.09-.14-.48-.05-.58.42-.42.87-.42,1.38.19-.45.43-.81.8-1.33.39Zm1.16-8.8c-.09,0-.2-.2-.3-.31.17-.12.32-.28.51-.33.08-.02.23.18.45.37-.29.13-.47.26-.66.28Zm.96,7.11s-.3-.22-.28-.29c.05-.17.2-.32.37-.55.17.22.37.4.34.45-.09.16-.25.3-.42.4Zm.52-27.66c-.02-.14-.03-.28-.05-.41.31-.04.61-.07.92-.11.02.1.03.2.05.3-.31.07-.62.14-.93.21Zm4.71,11.63c-.21-.49-.36-.85-.55-1.3.31-.02.51-.1.59-.04.41.36.55.75-.04,1.33Zm-.52-10.43c.73,1.47-.44,2.44-1.3,3.87-1.31-1.87-.03-3.04.57-4.25.42-.86,1.08-.91,2.54-.46-.31.91-1.29.19-1.81.84Zm4.67,6.7c.22-.94.08-1.88,1.19-2.31.34-.13.52-.67.95-1.26.12.77.21,1.31.31,1.97-.93.27-1.11,1.64-2.46,1.6Zm.71,7.64c.55-.79.61-1.93,2.06-2.13.37,1.22,1.01,2.28-.09,3.48-.68-.47-1.27-.87-1.96-1.35Zm2.43,10.5c-.1-.56-.18-1.04-.26-1.51.08-.06.16-.12.23-.18.24.22.59.4.68.67.15.43.01.86-.66,1.02Zm6.04,5.67c-1.42.3-1.65.26-2.78-.48q.6-1.26,3.62-2.1c.94,1.3.63,2.26-.84,2.57Zm7.08-.34c-.71.06-1.37.11-1.99.16q-.66-1.82.77-2.71c.51-.32,1.02-.67,1.9-1.25-.27,1.51-.47,2.6-.69,3.8Zm.75-4.61c-.14-.06-.28-.12-.42-.18.12-.27.25-.54.39-.81,0-.01.27.08.27.1-.07.3-.15.59-.24.89Zm4.79-7.2c-.52.65-.82,1.01-1.15,1.42q-.25-1.08,1.15-1.42Zm.48,10.28c-.91.46-1.88,1.8-3.67,1.4.87-2.41,2.86-3.98,4.31-6.01.25.66.48,1.25.65,1.68-.41.94-.78,1.78-1.29,2.94Zm6.22-1.46c-.84.49-.86-.83-1.17-.84-1.01-.05-.71,1.34-1.66.89-.08-1.45-.17-2.9-.26-4.45,1.57-.13,2.53.45,3.08,1.65v2.76Zm-.27-7.79c-.68-.03-1.05-.2-.92-.92.22-1.2.37-1.36,1.59-1.33-.25.84-.45,1.52-.67,2.25Zm4.53,5.14q-.33-1.18.56-1.71c.12.69-.22,1.13-.56,1.71Zm-2.1-12.25c.26.06.51.17.76.26-.05.13-.1.27-.15.4-.27-.09-.53-.18-.8-.27.06-.14.16-.4.19-.39Zm-.07,4.9c.56-.86,1.13-.55,1.81-.3-.5.52-1.01.64-1.81.3Zm2.54,3.08c-.47.89-1.08.83-1.85.61.41-1.02.99-1.07,1.85-.61Zm-1.64,8.62c.17-.69.31-1.3.47-1.93,1.11-.35,1.78.04,2.38,1.24-1.05.15-1.66,1.03-2.85.69Zm6.15-7.56c-.57.06-.72-.33-.77-.94.6-.17.98-.04,1.09.47.03.13-.19.45-.33.47Zm10.71-22c.19.26.37.52.56.78-.13.08-.26.17-.39.25-.13-.3-.27-.59-.4-.89.08-.05.16-.09.24-.14Zm-3.41,17.02c.26-.13.67-.12.93,0,.17.08.27.49.24.74-.12,1.2-.61,1.69-1.69,1.77-.44-1.35-.31-2.11.51-2.51Zm-.3,8.42c.08-.18.1-.37.19-.43.42-.26.82-.3,1.3.43h-1.5Zm1.69-2.92c.93-1.19.98-1.18,2.4.08-.85,1.05-1.6-.26-2.4-.08Zm2.31-1.28c-.63-1.36-.41-1.79,1.05-1.81-.41.71-.72,1.24-1.05,1.81Z"/>
    </g>
  </g>
</svg>