<?xml version="1.0" encoding="UTF-8"?>
<svg id="_Шар_2" data-name="Шар 2" xmlns="http://www.w3.org/2000/svg" viewBox="0 0 409.23 147.9">
  <defs>
    <style>
      .cls-1 {
        fill: #231f20;
        stroke-width: 0px;
      }
    </style>
  </defs>
  <g id="Layer_1" data-name="Layer 1">
    <g>
      <g>
        <path class="cls-1" d="m7.18,72.46c-2.07,0-3.87-.76-5.24-2.13C-.03,68.36,0,66.15,0,62.31s-.03-6.05,1.93-8.02c1.37-1.37,3.17-2.13,5.24-2.13,3.67,0,6.42,2.16,7.12,6.14h-3.08c-.48-2.02-1.82-3.42-4.04-3.42-1.18,0-2.24.45-2.94,1.21-.98,1.06-1.21,2.21-1.21,6.22s.22,5.16,1.21,6.22c.7.76,1.77,1.21,2.94,1.21,2.21,0,3.59-1.4,4.06-3.42h3.06c-.67,3.98-3.5,6.14-7.12,6.14Z"/>
        <path class="cls-1" d="m25.17,72.46c-4.06,0-7.15-2.77-7.15-6.9v-13.23h3.03v13.09c0,2.66,1.62,4.32,4.12,4.32s4.15-1.65,4.15-4.32v-13.09h3.03v13.23c0,4.12-3.11,6.9-7.18,6.9Z"/>
        <path class="cls-1" d="m37.26,72.29v-19.96h3.03v17.24h9.61v2.72h-12.64Z"/>
        <path class="cls-1" d="m57.86,55.05v17.24h-3.03v-17.24h-5.49v-2.72h14.02v2.72h-5.49Z"/>
        <path class="cls-1" d="m73.64,72.46c-4.06,0-7.15-2.77-7.15-6.9v-13.23h3.03v13.09c0,2.66,1.62,4.32,4.12,4.32s4.15-1.65,4.15-4.32v-13.09h3.03v13.23c0,4.12-3.11,6.9-7.18,6.9Z"/>
        <path class="cls-1" d="m96.74,72.29l-4.21-8.41h-3.78v8.41h-3.03v-19.96h7.74c3.78,0,6.2,2.44,6.2,5.83,0,2.86-1.74,4.68-3.98,5.3l4.6,8.83h-3.53Zm-3.5-17.24h-4.49v6.25h4.49c2.02,0,3.39-1.15,3.39-3.11s-1.37-3.14-3.39-3.14Z"/>
        <path class="cls-1" d="m115.55,72.29l-1.37-4.01h-7.88l-1.37,4.01h-3.22l7.32-19.96h2.44l7.32,19.96h-3.22Zm-5.24-15.44l-3.11,8.86h6.14l-3.03-8.86Z"/>
        <path class="cls-1" d="m121.61,72.29v-19.96h3.03v17.24h9.61v2.72h-12.64Z"/>
      </g>
      <g>
        <path class="cls-1" d="m7.06,106.1c-3,0-5.16-.7-7.06-2.63l2.02-1.99c1.46,1.46,3.05,1.91,5.1,1.91,2.61,0,4.12-1.12,4.12-3.06,0-.87-.25-1.6-.79-2.07-.5-.48-1.01-.67-2.19-.84l-2.36-.34c-1.62-.22-2.92-.79-3.78-1.6-.98-.92-1.46-2.19-1.46-3.81,0-3.48,2.52-5.86,6.67-5.86,2.63,0,4.49.67,6.2,2.27l-1.93,1.91c-1.23-1.18-2.66-1.54-4.34-1.54-2.35,0-3.64,1.35-3.64,3.11,0,.73.22,1.37.76,1.85.5.45,1.32.78,2.24.92l2.27.34c1.85.28,2.89.73,3.73,1.49,1.09.95,1.62,2.38,1.62,4.09,0,3.67-3,5.86-7.18,5.86Z"/>
        <path class="cls-1" d="m25.06,88.69v17.24h-3.03v-17.24h-5.49v-2.72h14.02v2.72h-5.49Z"/>
        <path class="cls-1" d="m45.02,105.93l-4.21-8.41h-3.78v8.41h-3.03v-19.96h7.74c3.78,0,6.2,2.44,6.2,5.83,0,2.86-1.74,4.68-3.98,5.3l4.6,8.83h-3.53Zm-3.5-17.24h-4.49v6.25h4.49c2.02,0,3.39-1.15,3.39-3.11s-1.37-3.14-3.39-3.14Z"/>
        <path class="cls-1" d="m63.83,105.93l-1.37-4.01h-7.88l-1.37,4.01h-3.22l7.32-19.96h2.44l7.32,19.96h-3.22Zm-5.24-15.44l-3.11,8.86h6.14l-3.03-8.86Z"/>
        <path class="cls-1" d="m74.96,88.69v17.24h-3.03v-17.24h-5.49v-2.72h14.02v2.72h-5.49Z"/>
        <path class="cls-1" d="m83.9,105.93v-19.96h12.75v2.72h-9.73v5.83h8.3v2.69h-8.3v6h9.73v2.72h-12.75Z"/>
        <path class="cls-1" d="m112.75,103.83c-1.51,1.6-3.39,2.27-5.49,2.27s-3.87-.76-5.24-2.13c-1.96-1.96-1.93-4.18-1.93-8.02s-.03-6.05,1.93-8.02c1.37-1.37,3.11-2.13,5.24-2.13,4.23,0,6.7,2.78,7.26,6.2h-3.05c-.5-2.19-1.96-3.48-4.21-3.48-1.18,0-2.24.48-2.94,1.23-.98,1.07-1.21,2.19-1.21,6.2s.22,5.16,1.21,6.22c.7.76,1.77,1.21,2.94,1.21,1.32,0,2.47-.5,3.25-1.4.73-.84,1.01-1.85,1.01-3.14v-1.12h-4.26v-2.58h7.29v3.06c0,2.58-.48,4.23-1.79,5.63Z"/>
        <path class="cls-1" d="m125.25,97.72v8.21h-3.03v-8.21l-5.97-11.75h3.31l4.18,8.77,4.18-8.77h3.31l-5.97,11.75Z"/>
      </g>
      <g>
        <path class="cls-1" d="m1.25,139.57v-19.96h3.03v19.96H1.25Z"/>
        <path class="cls-1" d="m21.74,139.57l-9.22-14.04v14.04h-3.03v-19.96h2.78l9.22,14.02v-14.02h3.03v19.96h-2.77Z"/>
        <path class="cls-1" d="m35.03,139.74c-3,0-5.16-.7-7.06-2.63l2.02-1.99c1.46,1.46,3.05,1.91,5.1,1.91,2.61,0,4.12-1.12,4.12-3.06,0-.87-.25-1.6-.79-2.07-.5-.48-1.01-.67-2.19-.84l-2.36-.34c-1.62-.22-2.92-.79-3.78-1.6-.98-.92-1.46-2.19-1.46-3.81,0-3.48,2.52-5.86,6.67-5.86,2.63,0,4.49.67,6.2,2.27l-1.93,1.91c-1.23-1.18-2.66-1.54-4.34-1.54-2.35,0-3.64,1.35-3.64,3.11,0,.73.22,1.37.76,1.85.5.45,1.32.78,2.24.92l2.27.34c1.85.28,2.89.73,3.73,1.49,1.09.95,1.62,2.38,1.62,4.09,0,3.67-3,5.86-7.18,5.86Z"/>
        <path class="cls-1" d="m53.03,122.33v17.24h-3.03v-17.24h-5.49v-2.72h14.02v2.72h-5.49Z"/>
        <path class="cls-1" d="m61.97,139.57v-19.96h3.03v19.96h-3.03Z"/>
        <path class="cls-1" d="m76.97,122.33v17.24h-3.03v-17.24h-5.49v-2.72h14.02v2.72h-5.49Z"/>
        <path class="cls-1" d="m92.75,139.74c-4.06,0-7.15-2.77-7.15-6.9v-13.23h3.03v13.09c0,2.66,1.62,4.32,4.12,4.32s4.15-1.65,4.15-4.32v-13.09h3.03v13.23c0,4.12-3.11,6.9-7.18,6.9Z"/>
        <path class="cls-1" d="m111.59,122.33v17.24h-3.03v-17.24h-5.49v-2.72h14.02v2.72h-5.49Z"/>
        <path class="cls-1" d="m120.53,139.57v-19.96h12.75v2.72h-9.73v5.83h8.3v2.69h-8.3v6h9.73v2.72h-12.75Z"/>
      </g>
      <g>
        <path class="cls-1" d="m340.27,12.73c-.3-3.78,1.26-6.53,4.45-8.47.37-.22.62-.63.94-.93,2.02-1.9,4.3-3.1,7.18-3.23,4.41-.18,8.8-.14,13.17.51,1.41.21,2.44.75,3.34,1.95,1,1.33,2.69,2.16,3.58,3.53,1.91,2.96,4.03,5.94,3.44,9.83-.08.51.1,1.06.15,1.59.04.53.26,1.16.06,1.58-1.75,3.61-4.28,6.66-7.89,8.4-1.86.89-4.18.88-6.31,1.19-1.52.22-2.95-.09-4.46-.59-1.79-.59-3.82-.39-5.69-.79-2.87-.61-5.77-1.23-7.78-3.71-1.57-1.94-3.35-3.77-3.8-6.35-.26-1.48-.27-3.01-.39-4.51Zm9.44,4.04c1.21.05,1.59-.24,1.28-1.05-.05-.13-.25-.2-.39-.29-.26.38-.51.77-.89,1.34Zm3.48-10.39c.16.13.32.25.47.38.28-.38.56-.75.84-1.13l-.36-.28c-.32.34-.64.68-.95,1.02Z"/>
        <path class="cls-1" d="m345.85,15.55c-.16-.2-.3-.44-.35-.42-.21.07-.39.22-.58.34.1.13.21.36.29.35.21-.03.41-.16.64-.27Z"/>
      </g>
      <path class="cls-1" d="m408.66,81.16c-.33-4.63-1.81-25.68-2.68-28.44-.48-1.55-2.07-2.87-3.81-3.11-.37-.05-.73-.07-1.1-.1h0s-.01,0-.02,0c-.97-.07-1.96-.09-2.94-.08-.85,0-1.71.01-2.56,0-.62,0-1.27.1-1.86-.03-.26-.06-.53-.09-.79-.13-.15-.03-.3-.05-.45-.07-.27-.04-.54-.06-.8-.08-.21-.02-.42-.03-.63-.04-.27-.01-.55-.02-.82-.02-.31,0-.63,0-.94.02h0c-.65.03-1.3.08-1.96.14h-12.86c-.04.44-.07.92-.08.96-.35,1.55-1.41,3.01-.45,4.85.61,1.17.93,2.95.48,4.11-.71,1.86-.41,3.42-.07,5.22.58,3.14,1.07,6.3.19,9.55-.61,2.25-1.63,4.66.05,6.98.18.25.08.7.09,1.06.1,4.75.23,9.49.29,14.24.02,1.33-.16,2.65-.22,3.98-.11,2.33-.51,4.7-.21,6.98.34,2.57-.44,4.83-1.18,7.09-.55,1.66-1.51,3.41-3.6,3.63-2.85.3-5.73.64-8.59.58-2.66-.05-5.3-.6-7.95-.93-1.57-.2-2.32-1.22-2.65-2.66-.18-.79-.1-1.84-.59-2.31-1.76-1.72-1.52-3.7-1.19-5.78.07-.43.07-.93-.1-1.32-.58-1.33-.09-3.17-1.85-3.94-.38-2.28-.95-4.56-1.08-6.86-.12-2.03.39-4.09.36-6.14-.05-3.29-.25-6.58-.52-9.85-.19-2.25-1.38-4.4-.56-6.76.13-.37-.15-.87-.18-1.32-.26-3.98-1.42-7.94-.21-11.94.15-.51.13-1.07.16-1.61.08-2.02-.66-3.57-2.03-4.48v-3.35h-20.96c-.87-.22-1.73-.44-2.6-.65l-.03.72c-.17.23-.3.48-.35.78-.27,1.73-.17,3.63-.02,5.37,0,.1.06.17.08.27-.08.66-.18,1.31-.44,1.93-.28.67-.07,1.39.36,1.98l-.1,2.57c-.14.1-.3.16-.41.3-.19.27-.41.51-.64.74-.8-.06-1.6-.04-2.51.02-.83.05-1.73-.2-2.56-.28-.95-.08-1.9.06-2.83.26-.02,0-.03.02-.05.02-.32-.18-.69-.3-1.15-.3-1.64,0-6.2,1.19-7.7.22-.74-.47-1.82-.31-2.97-.08-2.42.49-3.31.1-5.52-.17-2.22-.27-3.9-.05-5.89.94-.04.02-.05.05-.08.06-.9.04-1.77.08-2.58.12-.43.02-1.26.79-1.28,1.61-.06,1.85.07,3.84.24,5.62.05.51.81,1.49,1.15,1.5.17,0,.35,0,.52,0,.37.21.77.37,1.22.43,1.9.24,3.82.15,5.73.39.71.09,1.33-.29,1.78-.84.33.09.7.13,1.1.07.34-.05.72-.09,1.09-.14,3.38-.04,6.67-.04,9.74.16,1.16.21,2.21.38,3.39.33,6.98.92,12.34,3.35,14.11,9.55.24.84.44,1.76.63,2.72,0,2.23.04,4.44.47,6.64.07.38.21.68.39.93-.04.15-.09.28-.09.46,0,.68.09,1.33.18,2,.02.17.13.3.2.45.07,1.28.11,2.51.14,3.64-.05.17-.11.33-.13.5-.04.3-.08.6-.11.91-.1.67,0,1.33.28,1.87,0,.88,0,1.64-.01,2.19-.44.44-.73,1-.65,1.63.07.52.09,1.03.1,1.55,0,.08.04.13.04.2-.94,3.59-3.36,6.93-6.78,8.93v.35h1.33c-.14.45-.4.9-.83,1.37-.54-.37-1.04-.72-1.55-1.06-.01,0-.02.01-.03.02-.23,0-.45-.01-.63,0-.72.05-1.26.36-1.65.79-.53.13-1.06.27-1.62.33-.22-.07-.44-.15-.71-.15-1.33-.01-2.63.24-3.94.45-2.9.11-6.3.19-9.93.24-.39-.38-.93-.63-1.66-.59-.77.04-1.53.16-2.29.28-.3.05-.55.18-.78.36-.69,0-1.38,0-2.08.01-.14-.06-.25-.14-.41-.17-3.03-.6-6.03-.22-9.09-.18-.49,0-.87.15-1.2.36-.34,0-.7,0-1.03,0-.33-.17-.7-.28-1.16-.25-.64.03-1.15-.05-1.78-.2-.83-.2-1.51.02-2.02.43-1.51-.01-2.81-.02-3.77-.03-.27-.33-.6-.62-1.1-.78-.09-.03-.19-.06-.28-.09-.02-.84-.13-1.66-.36-2.49-.05-.18-.15-.3-.23-.46l.04-3.4c.02-.15.08-.28.08-.45-.07-2.85.09-5.69.19-8.54.01-.33-.06-.6-.14-.86.09-.15.19-.28.25-.44.05,0,.1,0,.15,0,.32-.29.51-.6.63-.92,4.47.05,23.16.23,34.78-.1.59-.02,1.67-1.3,1.66-1.91-.06-2.1-.18-4.1-.34-5.88-.07-.74-1.24-2.17-1.8-2.2-1.03-.06-2.18-.09-3.35-.1-.32-.15-.66-.26-1.03-.31-.3-.05-.6-.07-.91-.06-.52,0-.92.15-1.26.36-1.71.01-3.36.04-4.75.06-3.36.06-6.44.1-9.27,0-1.08-.29-2.15-.54-3.29-.5-.29.01-.53.1-.77.19-.16-.1-.32-.2-.52-.23-.15-.02-.3-.04-.45-.06-.4-.06-.79-.03-1.17.05-2.65-.46-4.92-1.23-6.73-2.53-1.34-1.75-2.9-3.67-4.05-5.73-.61-1.66-1.08-3.65-1.44-5.8.16-.33.27-.71.22-1.19-.36-3.79-.23-7.65-.68-11.45-.03-.28-.14-.51-.24-.74.05-1.73.22-3.44.64-5.08.1-.39.1-.75.04-1.07.02-.13.04-.29.07-.42.6-.24,1.12-.71,1.38-1.49.05-.24.14-.45.27-.65.53-.97.33-1.9-.2-2.58l1.34-2.93h-27.07s-.02,0-.02-.01c-.62-.42-1.23-.65-1.83-.75.09,1.26.22,2.52.49,3.76-.04.46-.08.89-.05,1.31.2,2.29.5,4.5.27,6.87-.28,2.8-1.12,5.21-2.59,7.45-.79,1.2-1.99,1.77-3.53,1.25-.84-.29-1.78-.7-2.61-.58-3.28.48-6.54,1.11-9.79,1.75-1.22.24-2.38.82-3.61.94-3.57.36-6.18,3.58-5.46,7.25.2,1.02-.03,2.13-.15,3.19-.14,1.32-.45,2.63-.55,3.96-.12,1.58.42,3.21-.46,4.75-.17.31.04.87.15,1.3.45,1.74.88,3.49,1.42,5.21.58,1.86,1.68,3.35,3.49,4.23,1.53.74,3.04,1.53,4.58,2.27.64.31,1.31.72,1.98.76,1.12.06,2.25.14,3.37.22-.26-.22-.5-.54-.74-1,1.33-.48,1.92-.14,2.23,1-.07.04-.12.04-.19.07,1.76.09,3.51.13,5.24-.05,2.82-.28,5.53.06,8.3.15,1.23.04,2.1.55,2.1,1.93,0,2.32.13,4.66-.05,6.97-.15,1.88.06.59.1,2.56.03,1.18.01,2.47-.43,2.57-.66.15-5.11.46-5.63.53-2.03.29-6.53.37-9.03.09-6.79-.76-13.62.17-20.41-.81-3.36-.49-6.48-1.12-8.87-3.75-3.75-4.13-6.77-8.59-6.92-14.44-.03-1.24-.08-2.5-.33-3.71-.68-3.26-1.25-6.48-.26-9.79.2-.67.09-1.75-.34-2.21-.75-.8-.74-1.53-.56-2.45.57-2.85.7-5.7-.12-8.54-.17-.58-.27-1.32-.04-1.83.73-1.6,1.18-3.16.67-4.93-.14-.47,0-1.12.23-1.58,1.06-2.14,1.23-4.47,1.64-6.77.33-1.82.28-3.09-.2-4.01.34-1.24,1.16-2.7,2.04-4.13l-27.56.88h0c-.97-.04-1.9-.09-2.89-.13-.13.56-.34,1.06-.35,1.57-.06,2.76-.01,5.51-.1,8.27-.05,1.56-.66,3.06-.21,4.71.45,1.65.43,3.37-.4,4.98-.15.3-.19.7-.16,1.04.18,2.23.28,4.47.62,6.68.47,3.05.2,6.09-.11,9.08-.35,3.52-.5,6.98.7,10.29.95,2.6.95,5.2,1.01,7.88.05,2.05.39,4.1.74,6.13.39,2.27.98,4.5,1.4,6.76.55,2.92,1.08,5.83,3.47,7.95.19.17.43.45.41.67-.19,3.22,3.4,4.83,3.39,7.97,0,.26.43.56.71.78,1.87,1.51,3.76,3,5.63,4.51.49.39,1.07.74,1.38,1.25.67,1.11,1.71,1.52,2.83,1.93,1.15.43,2.27.95,3.05,1.28.79-.24,1.4-.65,1.79-.49,1.1.43,2.12.89,3.35.45.36-.13.91.06,1.28.26,1.22.69,2.37.6,3.59-.03.45-.23,1.1-.35,1.57-.22,1.72.48,3.45.97,5.08,1.68,1.98.86,2.87.84,4.31-.69.42-.45.62-1.1.92-1.65,1.36.71,2.3,1.22,3.06,1.02,2.6-.68,5.08-.71,7.53.45.16.07.35.11.53.1,3.3-.04,6.61-.06,9.91-.16,2.22-.07,4.48-.76,6.59.56.21.13.57.21.78.13,1.82-.74,3.66-.11,5.48-.09.34,0,.8.03,1-.17,1.2-1.2,2.4-.91,3.67-.16.3.18.68.28,1.03.3,3.11.17,6.22.23,9.32.51,1.74.16,3.61-.16,5.17,1.14.38.32,1.36.43,1.75.17,1.8-1.23,3.69-.94,5.67-.77,1.31.11,2.72-.5,3.99-.28,3.76.66,7.45.25,11.17-.24.7-.09,1.43.05,2.15.08,1.07.05,2.14.06,3.21.14,3.09.24,6.31-.71,9.25,1.04.33.2.96.22,1.29.03.82-.46,1.59.09,2.22,0,2.23-.31,4.42-.6,6.66-.16.13.03.31-.16.46-.26,1.3-.86,2.61-.64,3.79.16,1.16.79,2.28.72,3.59.45,2-.41,4.05-.66,6.1-.77,2.32-.12,4.69.28,6.95-.08,3.68-.58,7.29-.65,10.95.03.84.16,1.76-.16,2.64-.23,1.67-.12,3.37-.42,5.02-.25.52.05,1.05.24,1.59.46.02,0,.03,0,.05,0,.58,0,1.14.1,1.69.24.81-.19,1.64-.27,2.46-.1.86-.21,1.77-.31,2.73-.31.07-.07.16-.13.23-.21.81-.86,1.68-1.23,2.85-1.22,1.78.02,3.58.09,5.33-.19,2.48-.38,4.91-1.06,7.36-1.61,2.27-.51,4.55-1.43,6.82-1.44,2.63-.01,5.03-.79,7.52-1.23h0s.04,0,.07,0c.37-.06.72-.14,1.07-.24,1.02-.28,1.95-.74,2.78-1.53.55-.53,1.44-.7,2.17-1.04.4-.18,1.03-.27,1.17-.58.22-.46.52-.83.85-1.15.01-.05.03-.09.04-.14.76-.76,1.66-1.15,2.52-2.13.59-.66,1.95-2.12,2.42-2.83,2.85-4.38,2.96-4.89,4.69-9.82,1.05-3,2.12-13.91,2.2-16.22.1-3.16-.35-21-.56-23.97Zm-185.34,9.69c-.45-.68,6.39-11.84,6.57-12.11.18-.27,3.34-4.59,3.34-4.59-.19.36-9.46,17.38-9.91,16.7Zm5.82-2.75c-.96-2.26,4.35-8.06,4.47-8.24.12-.18,2.27-3.12,2.27-3.12-.13.24-5.96,13.21-6.74,11.36Zm-50.84-21.69l2.81-2.09,2.16-3.08s-.65,2.16-1.08,2.81c-.43.65-2.7,2.81-2.76,3.35-.06.54-.62,1.5-.62,1.5,0,0-2.25,1.86-2.13,1.53.11-.32,1.62-4.03,1.62-4.03Zm-.34,11.86c.36.35-1.09,5.11-2.3,8.82-.43.46-.86.91-1.3,1.36,1.53-5.05,3.28-10.49,3.6-10.18Zm-1.6,36.11c-.25-.16-.46-.42-.61-.69-.02-.04.37-.45.47-.42.27.1.49.35.84.62-.34.24-.63.53-.7.49Zm2.3-3.93s-.44-.02-.68-.03c.05-.52.09-1.03.14-1.55.27.05.54.09.82.13-.08.49-.14.98-.27,1.45Zm-2.47-15.3c-1.07.7-2.42.06-2.42,0s1.75-1.47,1.94-1.92c.19-.45.78-1.34,1.07-1.66s3.2-1.34,3.2-1.34l-.85,1.34c-1.67.51-1.87,2.88-2.94,3.58Zm3.13,11.96c.78-2.98,1.51-5.77,3.82-7.84,1.5,2.11,1.39,3.32-.05,4.8-.83.85-1.37,1.97-2.2,3.19-.26-.02-.84-.08-1.57-.15Zm7.29-2.16l-4.27,5.82s-1.23.65-1.23.45.65-1.42.78-1.62c.13-.19.32-.16.84-1.5.52-1.34,1.49-2.32,1.68-2.51.19-.19,2.2-1.81,2.2-1.81v1.16Zm30.39,35.38c-.33-.18-.58-.59-.75-.95-.06-.12.28-.61.37-.59.45.09.95.21,1.3.48.29.22.41.68.8,1.37-.83-.13-1.34-.11-1.72-.31Zm9.58.22c-.05.28-.84.64-1.26.61-.56-.05-1.09-.45-1.94-.84,1.1-1.46,1.47-3.01,3.09-3.71,1.02,1.43.31,2.72.11,3.94Zm9.05-1.47c-.19.28-.55.43-1.32,1,0-.9-.14-1.4.04-1.74.21-.42.64-.78,1.06-1,.17-.09.83.33.82.4-.13.47-.32.94-.6,1.34Zm4.65-39.44l2.31-5.98c.49-1.27,3.57-3.85,2.45-1.17-.92,2.19-1.88,3.66-1.88,3.66l-2.87,3.49Zm3.41,41.54c-1.09-.02-1.9-.39-2.02-1.69.66-.6,1.36-1.23,2.23-2.02.43.29.8.42,1,.68.45.58,1.22,1.29,1.13,1.84-.19,1.15-1.33,1.21-2.34,1.19Zm10.6-13.74c-.43.65-2.7,2.81-2.76,3.35-.06.54-1.89,4-1.89,4,0,0-.97-.65-.86-.97.11-.32,1.62-4.03,1.62-4.03l3.89-4.41,1.08-.76s-.65,2.16-1.08,2.81Zm39.37,4.32c-1.14,2.13-2.16,4.32-3.29,6.45-1.36,2.55-3.37,2.85-5.98.59.51-.92.9-1.8,1.44-2.57,1.22-1.75,2.5-3.45,3.77-5.17.31-.42.64-.84,1.01-1.22.72-.74,1.47-1.46,2.01-1.99,1.28-.52,2.37-.95,3.67-1.47.74.52,1.19,1.23.26,2.23-.49.52-1.04.98-1.52,1.51s-1.04,1.03-1.36,1.64Zm1.79,6.83c-.17-.14-.23-.76-.08-.9.65-.66,1.36-.66,2.17.29-.7.68-1.26,1.26-2.09.61Zm3.34-2.64c-.05.03-.48-.35-.45-.46.08-.27.32-.5.57-.87.27.35.57.62.53.7-.15.26-.4.47-.66.63Zm19.65-2.51c-.15-.88-.28-1.63-.4-2.37.12-.09.24-.19.37-.28.37.34.92.63,1.07,1.05.23.68.02,1.34-1.04,1.6Zm9.47,8.89c-2.22.46-2.58.41-4.36-.75q.94-1.98,5.68-3.29c1.48,2.05.99,3.55-1.32,4.03Zm19.79-19.05c-.82,1.01-1.28,1.58-1.8,2.22q-.39-1.7,1.8-2.22Zm-8.69,18.52c-1.11.09-2.14.17-3.12.25q-1.03-2.85,1.21-4.25c.81-.51,1.6-1.05,2.98-1.96-.43,2.36-.73,4.07-1.07,5.96Zm1.17-7.23c-.22-.09-.44-.19-.66-.28.2-.42.38-.85.6-1.26.01-.02.42.13.42.15-.1.47-.24.93-.37,1.39Zm8.27,4.83c-1.43.72-2.94,2.82-5.75,2.19,1.37-3.78,4.48-6.24,6.76-9.43.4,1.03.75,1.96,1.01,2.63-.65,1.48-1.23,2.79-2.02,4.6Zm9.76-2.29c-1.32.77-1.34-1.3-1.83-1.32-1.58-.07-1.11,2.1-2.6,1.39-.13-2.28-.26-4.55-.4-6.97,2.46-.21,3.97.71,4.83,2.58v4.32Zm-.43-12.21c-1.06-.05-1.64-.32-1.44-1.45.35-1.88.58-2.13,2.49-2.08-.39,1.32-.71,2.39-1.05,3.53Zm7.1,8.05q-.51-1.85.88-2.68c.19,1.07-.35,1.77-.88,2.68Zm-3.41-11.53c.88-1.35,1.78-.86,2.83-.48-.79.82-1.58,1-2.83.48Zm3.98,4.83c-.74,1.39-1.7,1.31-2.9.95.64-1.59,1.55-1.67,2.9-.95Zm-2.57,13.52c.26-1.07.49-2.04.73-3.03,1.74-.55,2.8.06,3.73,1.95-1.65.23-2.61,1.62-4.46,1.08Zm9.64-11.85c-.89.09-1.13-.53-1.2-1.47.95-.27,1.54-.07,1.71.74.05.21-.31.71-.51.73Zm18.89-4.02c-.65,1.11-1.13,1.94-1.65,2.83-.98-2.14-.65-2.8,1.65-2.83Zm-2.47-30.25c.13-.07.25-.15.38-.22.29.41.58.81.87,1.22-.21.13-.41.26-.62.39-.21-.46-.42-.93-.63-1.39Zm-2.33-35.81c1.68-.51,1.87-2.88,2.94-3.58,1.07-.7,2.42-.06,2.42,0s-1.75,1.47-1.94,1.92c-.19.45-.78,1.34-1.07,1.66-.29.32-3.2,1.34-3.2,1.34l.85-1.34Zm1.31,27.79c-.37.19-.67.49-.92.44-.19-.03-.31-.48-.47-.74.29-.14.57-.35.88-.4.1-.02.27.36.5.69Zm-10.47,4.75c.94.06,1.74.11,2.69.18.08.8.14,1.44.24,2.47-1.47-.72-2.72-.84-2.93-2.65Zm3.22,1.25q1.36-1.26,2.87-.86c-.56,1.16-1.45.89-2.87.86Zm3.3,28.49c.41-.2,1.06-.19,1.47,0,.26.12.42.77.38,1.16-.19,1.89-.95,2.65-2.65,2.77-.69-2.12-.49-3.3.8-3.93Zm-.48,13.2c.12-.29.15-.58.3-.67.65-.4,1.29-.47,2.04.67h-2.35Zm2.65-4.58c1.46-1.86,1.54-1.85,3.77.13-1.34,1.64-2.51-.41-3.77-.13Z"/>
    </g>
  </g>
</svg>