<?xml version="1.0" encoding="UTF-8"?>
<svg id="_Шар_2" data-name="Шар 2" xmlns="http://www.w3.org/2000/svg" viewBox="0 0 152.05 69.27">
  <defs>
    <style>
      .cls-1 {
        fill: #202020;
      }

      .cls-1, .cls-2 {
        fill-rule: evenodd;
        stroke-width: 0px;
      }

      .cls-2 {
        fill: #fff;
      }
    </style>
  </defs>
  <g id="Layer_1" data-name="Layer 1">
    <g>
      <path class="cls-1" d="m54.01,40.54v.15c0,15.78-12.09,28.57-27,28.57-14.91,0-27.01-12.79-27.01-28.57v-.15s0,0,0,0V0h54.02v40.54h0Z"/>
      <path class="cls-2" d="m20.43,53.21c.12-.11.19-.29.2-.46-.07.11-.36.11-.42.11.07.1.17.22.23.35h0Z"/>
      <path class="cls-2" d="m24.88,49.14c-.13-.3-.39-.63-.52-.92-.22.29-.72.88-.94,1.04-.02.02.74-.16,1.46-.11h0Z"/>
      <path class="cls-2" d="m19.09,53.7c.08-.15.16-.38.21-.46-.18.05-.34.09-.5.03.03.12.17.34.29.43h0Z"/>
      <path class="cls-2" d="m23.25,49.39c-.16.12-.32.25-.48.38.47.09,1.12.08,1.58,0-.3-.15-.78-.28-1.1-.37h0Z"/>
      <path class="cls-2" d="m35.33,51.06c0-.11-.22-.54-.32-.51-.21.1-.45.13-.63.29.01-.03.72.06.95.22h0Z"/>
      <path class="cls-2" d="m13.3,44.99c.09,0,.29.15.37.21,0-.14,0-.3.08-.43-.14,0-.33.11-.44.21h0Z"/>
      <path class="cls-2" d="m13.82,46.53c-.07.08-.17.2-.2.51.12-.05.28-.1.46-.12-.14-.09-.21-.22-.26-.39h0Z"/>
      <path class="cls-2" d="m29.76,51.69c-.17.1-.33.27-.43.46.18.03.31.1.54.21-.11-.25-.08-.44-.11-.67h0Z"/>
      <path class="cls-2" d="m17.34,53.24c-.11-.05-.26-.14-.35-.23-.04.09-.08.31-.04.47.12-.11.23-.2.39-.24h0Z"/>
      <path class="cls-2" d="m16.64,51.85s-.1-.53-.11-.53c-.1.06-.3.34-.38.46.2-.04.41.04.48.07h0Z"/>
      <path class="cls-2" d="m40.74,49.51c.16-.05.43-.1.52-.26-.87.04-.55-.6-1.02-.71-.51-.09-.93-.1-1.3-.51-.49-.55-.5-1.23-.47-1.98.21.11.42.21.65.24-.36-.28-.62-.62-.87-.98.22.02.46.03.68,0-.15-.09-.82-.81-.82-.79.04.28.06.55.07.82,0,.45,0,.9.03,1.35.1.79.25,1.47,1.07,1.85.24.08.49.15.73.24.37.22.49.42.42.89-.09.65-.12,1.16.16,1.82-.6-.71-.66-1.03-.5-1.89,0-.19-.02-.29-.17-.41-.22-.1-.46-.16-.69-.23-.8-.37-1.14-.81-1.33-1.67-.1-.66-.11-1.33-.13-2.01-.02-.48-.05-.95-.13-1.42h0s-.06-.29-.06-.29c.18.23.4.49.5.77.26.07.5.12.75.13-.28-.5-.52-.9-1.04-1.18.86.08,1.99.18,2.65-.5.45-.47.46-1.18.05-1.81-.79-.89-2.05-1.28-3.09-1.77-.02.12-.06.22-.13.31.71.38,1.43.73,2.13,1.12.55.31,1.12.68.92,1.42-.35,1.28-2.29.67-3.03.3-1.45-.69-2.94-.9-4.52-.86-1.11.04-2.22.17-3.33.26.1.19.22.38.34.57-.75-.04-1.18-.33-1.19-.31-.02.16,0,.36,0,.53-.46-.08-.72-.21-1.02-.57-.39.97-1.1,1.71-1.98,2.26l-.26-.64c-.4.77-1.22,1.12-1.43,2.02-.38-.08-.63-.34-.78-.71-.12.64-.05,1.02.2,1.6-.4.08-.79.13-1.18-.06-.15,1.05-.51,1.92-1.48,2.5l-.99,1.28c-.48.63-.86,1.02-1.73.92-.62-.09-1.35-.13-1.02.62v.02c.38-.33.76-.23,1.21-.15-.38.15-.74.2-.88.42-.34.5.07,1.13.94.73.08-.54.27-.91.84-1.02-.16.25-.72,1.09-.13,1.23.44.1.66-.52.77-.83.62.7,1.14.27.84-.52.63-.32,1.24-.69,1.84-1.06.27.09.49.14.77.1h-.01c-.22-.23-.41-.46-.58-.72-.53.44-1.16.97-1.73.99,1.4-1.29,3.71-2.61,3.92-4.6.12.35.15.49.13.92,1.39-.06,2.85-.77,4.01-1.5-.75,1.2-2.79,1.86-4.15,1.84-.06.18-.21.4-.31.56.5.33,2.24.12,2.5.08-.1-.26-.13-.46-.14-.74.31.07.67.11,1,.1-.16-.13-.32-.24-.44-.41l2.93-1.51c.66-.33,1.28-.63,2.01-.7.96.02,1.53.53,1.97,1.29.34.65.63,1.32,1.02,1.94.69.96,1.27,1.27,2.33,1.57.48.14.94.32,1.33.72.26.41.44.86.27,1.25-.35.81-1.87-.33-1.96.73.03.22.19.34.41.4.16-.61.65-.52,1.14-.33-.75,0-.84.62-.6.91.16.2.46.25.7-.02.22-.26.11-.81.66-.97-.1.19-.14.48-.07.69.09.26.39.34.56.11.13-.18.1-.49.07-.74.8-.02.95-.42.9-.91-.04-.41-.22-.88-.27-1.25.28-.07.49-.15.69-.38-.32-.06-.47-.22-.66-.48h0Zm-14.77-2.94c.39-.51.6-.88.61-1.55.77.67-.09,1.54-.61,1.55h0Zm.81-.18c.51-.62.68-1.01.64-1.78.94.88.13,1.46-.64,1.78h0Zm.98-.32c.41-.5.55-.84.53-1.53.86.78.22,1.38-.53,1.53h0Zm6.72-.61c-.32-.71-.8-1.15-1.29-1.73.74.17,1.14.53,1.53,1.2.24.5.4,1.02.55,1.55-.41-.2-.59-.59-.79-1.01h0Z"/>
      <path class="cls-2" d="m39.59,53.68c.1.15.17.23.36.36.01-.16.08-.31.13-.46-.12.14-.28.18-.5.1h0Z"/>
      <path class="cls-2" d="m40.89,53.07c.1-.2.12-.3.12-.46-.1.11-.18.15-.36.19l.23.27h0Z"/>
      <path class="cls-2" d="m14.85,43.78c-.05-.09-.34-.15-.38-.16.06.13.09.26.09.4.05-.11.21-.22.29-.23h0Z"/>
      <path class="cls-2" d="m39.01,45.32s-.04,0-.06,0h0s.06,0,.06,0h0Z"/>
      <path class="cls-2" d="m37.94,53.65c.02.23,0,.27.1.57.15-.16.17-.17.34-.26-.23-.02-.33-.05-.45-.3h0Z"/>
      <path class="cls-2" d="m31.77,53.8c.03.28.16.51.32.62.11-.21.16-.35.32-.52-.28.06-.47,0-.64-.1h0Z"/>
      <path class="cls-2" d="m33.34,53.15c.18.29.11.1.3.46.17-.21.14-.25.22-.46-.23.06-.25.06-.52,0h0Z"/>
      <path class="cls-2" d="m30.75,53.63c-.29-.04-.41-.11-.49-.31-.08.22-.06.39-.04.61.23-.14.28-.24.53-.3h0Z"/>
      <path class="cls-2" d="m36.99,52.59c-.15.14-.19.28-.24.43.13-.04.28-.03.42-.02-.1-.11-.18-.27-.19-.41h0Z"/>
      <path class="cls-2" d="m34.84,51.62c-.08-.23-.21-.35-.37-.52l-.18-.17c-.55.42-.96,1.02-1.4,1.55.38-1.3.93-1.81,2.08-2.31.37-.16.37-.26.08-.51-.59-.49-.88-.76-.39-1.58-.48-1.17-1.01-2.55-2.11-2.65-.19.38-.43.64-.72.95-.5.5-.84.86-.88,1.58.19.73.69,1.08,1.31,1.43.52.28.79.51.63,1.05-.09.32-.29.65-.49.93-.39.53-.77.53-1.35.25-.28-.14-.55-.25-.87.02-.17.21-.2.48,0,.66.36-.31.56-.4,1.08.04-.49-.1-.74.03-.84.23-.2.37.33,1.02.91.57.17-.44.42-.54.82-.59-.27.22-.79.61-.19,1.02.24.16.72-.1.84-.82,1,.51,1.48-.24.63-.91.47-.22.84-.41,1.39-.23h0Zm-.48-3.79c-.6.98-.36,1.28.33,1.96-1.09-.19-1.63-1.4-.33-1.96h0Z"/>
      <path class="cls-2" d="m16.5,47.27c.05.14.65.84.62.74-.07-.38-.11-.78-.14-1.16-.26-.06-.45-.2-.6-.44.78.19,1.97.45,2.97.03.05-.56-.07-1.1.01-1.66-1.13.47-2.02.82-3.23.83-.19-.03-.28-.07-.41-.21-.14-.25-.18-.49-.24-.76-.05-.2-.11-.38-.27-.52-.13-.06-.61.12-.46.23.31.28.36.59.43,1-.21-.22-.38-.4-.63-.55-.6-.23-.58.47-.46.83.35-.1.62-.04.96.06-.82.14-1.19,1.04-.49,1.09.24.02.65-.2.86-.3-.01.95.16,1.14,1.07.8h0Z"/>
      <path class="cls-2" d="m28.9,38.81c-.06.66-.21,1.69.59,1.93-.21-.5-.33-1.05-.29-1.6-.11-.1-.19-.23-.29-.33h0Z"/>
      <path class="cls-2" d="m20.19,44.03c-.21.34-.35.59-.43.97-.03.44.03.87.01,1.32l.37-.36c.18.64.24,1.3.12,1.96.43-.54.42-1.12.18-1.79.65.48.59.86.49,1.6.02.22.03.36.02.57.66-.74.78-1.61.87-2.54.28.19.59.44.95.44-.23-.73-.06-1.39.26-2.05.19.3.39.64.64.9.17-.5.54-.76.9-1.11.39-.48.5-.92.56-1.5-.34.57-.78,1.04-1.05,1.65-.19-.86-.36-1.49.55-2-.13.26-.29.56-.31.86.25-.24.53-.43.81-.62l.02-.23c.21.51.42,1.03.63,1.55.43-.31.75-.67,1.01-1.08.32-.49.51-1.03.68-1.59.2.39.36.77.71,1.04.04-.28.13-.54.22-.82.17.23.34.45.6.59-.08-.2-.23-.62-.24-1.18l-.29-.68c-.22.39-.55.7-.9.97-.25-.64-.24-1.02.06-1.72,0,.33-.04.74.12,1.04.47-.5.67-1.17.87-1.82-.07-.14-.14-.28-.21-.41-.14.52-.43.69-.84.96.35-.62.48-1.21.6-1.9.66.6.78,1.89,2,2.03-.67-.74-.67-1.64-.96-2.36-.76-.23-.95-.66-.99-1.44.24.41,1,1.42,1.58.96-.35-.14-.58-.43-.76-.74-.19-.38-.38-.76-.72-1.03h0c-.11.3-.27.42-.51.61.2-.62.23-1.17.07-1.79-.65.02-1.05.38-1.5.83-.02-.21-.04-.36.04-.56-.53-.14-.96-.28-1.51-.13-.21.1-.41.22-.61.31.38.25.86.33,1.3.42.22.56,0,1.32-.94.89.34-.08.91-.32.86-.82-.52.32-.81.6-1.22,1.08.02-.45.22-.7.52-.98-.36-.13-.54-.29-.62-.54-.13.05-.26.07-.4.09-.35,0-.67.07-.97.19-.34.14-.56.33-.82.57,0,.01.03.1.05.1.21.05.41-.4.94-.21-.24.16-.59.28-.71.56-.13.3.14.62.36.81.35-.02.68-.12,1.02-.17.32.01.48.1.62.41.14.59-.35.71-.82.76-.32,0-.63,0-.94-.05l-.02.04c-.28.83.38.84,1,.73.36-.06.79-.06,1.1-.29.43-.28.48-.68.66-1.22.05,1.17-.33,1.76-1.48,1.88-.27.59-1.04.89-1.61,1.05.41.26.94.35,1.39.49-.57.05-1.07.07-1.56.24-.43.16-.77.44-1.13.72-.09.07-.41.31-.52.31.69.32,1.66-.5,2.18-.86,0,.48-.07.81-.34,1.19h.02s0,0,0,0c.65-.11.9-.44,1.25-.93-.17,1.22-.72,1.7-2.16,1.15.22-.16.54-.34.69-.57-.34.21-.72.33-1.07.51-.5.35-.73.88-.95,1.43-.22.51-.46.92-.91,1.27.32.22.76.09,1.11.03h0Zm3.97-9.58c0-.18.08-.34.18-.34s.18.15.18.34-.08.33-.18.33-.18-.15-.18-.33h0Zm-.65,2.63c.7-.08,1.01-.23.85-1.08.78,1.03-.24,1.47-.85,1.08h0Zm4.47.54c-.52,1.05-.95,2.15-1.51,3.17-.34-.93-.49-1.53.19-2.46-.09.55-.17.97-.06,1.52.24-.86.75-1.63,1.39-2.22h0Zm-.73-1.66c.57.67.56,1.73-.43,2.05.42-.71.49-1.21.43-2.05h0Zm.44-2.53c.28.67.21,1.07-.19,1.77.02-.46.07-.75-.05-1.2h-.02c-.35.11-.64.34-.9.6.21-.58.53-1.02,1.16-1.17h0Zm-1.67,1.5c.28.33.5.76.38,1.21-.13.5-.5.69-1.04.83.72-.64.76-1.13.66-2.03h0Zm-.83,3.14c-.14.33-.35.71-.43,1.06.68-.45,1.12-1.22,1.49-1.94-.25,1.5-.88,2.27-2.25,2.86.12-.84.45-1.39,1.19-1.98h0Zm-.48,2.06c-.41.58-1.1,1.26-1.23,1.98.83-.56,1.5-1.36,2.14-2.12l-.39,1.58c.45-.21.63-.64.95-.93.22,1.12.39,1.44-.26,2.39.06-.48.11-1.02,0-1.5-.37.38-.77.54-1.27.68l.17-.68c-.56.54-1.12.94-1.78,1.33.03-1.27.53-2.1,1.67-2.72h0Zm-2.05,3.82c-.67.87-1.04,1.42-1.13,2.6-.8-.28-.92-.64-.73-1.57.07.17.25.65.48.94.14-1.09.85-1.68,1.38-1.97h0Zm-2.37-.95c.54-.83.72-1.07,1.7-1.22-.55.42-1.11.91-1.4,1.57.33-.12.64-.32.95-.47-.24.48-.54,1-.66,1.54.56-.16.98-.79,1.37-1.2-.24.81-.84,1.77-1.78,1.67-.01-.2,0-.79.22-1.15-.41.12-.52.07-.67.06.06-.29.15-.52.27-.79h0Z"/>
      <path class="cls-2" d="m34.26,39.12h.01c.28,0,.56.05.85.09.11-.16.26-.31.42-.42-.07-.05-.14-.1-.2-.18-.35-.04-.9.2-1.08.51h0Z"/>
      <path class="cls-2" d="m22.85,36.52c.04-.13.07-.26.17-.37-.12.03-.22.05-.35.01.03.12.1.25.17.36h0Z"/>
      <path class="cls-2" d="m31.07,36.45c.8.95,2.3,1.7,3.48,1.96.13-.06.27-.11.42-.15-.27-.09-.55-.24-.82-.32-.69-.28-1.38-.58-1.98-1-.42-.29-.82-.6-1.01-1.08-.2-.51-.18-.98.38-1.45.36-.13.54-.13.9-.02.04-.08.1-.16.17-.23-1.71-.69-2.51,1.26-1.54,2.29h0Z"/>
      <path class="cls-2" d="m36.44,38.47c-.41-.29-.59-.57-.54-1.04-.57.22-.53.85.13,1.25l.74.27c-.25.02-.5.03-.74.08-.44.09-.89.54-.53,1,.08-.8,1.16-.27,1.48-.81.18-.31-.36-.61-.56-.76h0Z"/>
      <path class="cls-2" d="m19.25,46.9c-.4.08-.81.1-1.22.09.35.15.69.31,1.05.4.06-.16.11-.31.15-.47v-.02h0Z"/>
      <path class="cls-2" d="m15.63,47.83c-.24-.09-.25-.07-.32-.26-.04.17-.03.34.05.51.1-.2.2-.16.26-.25h0Z"/>
      <path class="cls-2" d="m19.93,47.5c.02-.26.03-.51,0-.77l-.72.69c.24.04.47.08.72.08h0Z"/>
      <path class="cls-2" d="m17.87,46.99l-.74-.1c.22.48.44.78.9.98l-.02-.1c-.06-.26-.1-.51-.14-.77h0Z"/>
      <path class="cls-2" d="m33.28,34.22c-.24.11-.36.16-.51.41-.08.33.03.65-.05.97.34-.07.55-.61.68-.88.06.65.12,1.28.63,1.77-.06-.44-.18-.84-.32-1.26.6.6.96,1,1.79,1.26l-.03-.04c-.39-.52-.9-.89-1.39-1.3.5.18,1.25.54,1.81.12-.41-.12-.93-.32-1.33-.63-.43-.33-.71-.62-1.28-.43h0Z"/>
      <polygon class="cls-2" points="38.38 19.39 38.38 22.15 41.9 22.15 41.9 20.71 41.31 20.71 41.31 19.39 38.38 19.39 38.38 19.39 38.38 19.39"/>
      <path class="cls-2" d="m43.59,46.02c.13.99.22,1.98.26,2.98h2.91l-.09-2.98h-3.08Z"/>
      <polygon class="cls-2" points="34.1 22.18 35.68 22.18 35.68 19.77 34.1 19.77 34.1 22.18 34.1 22.18 34.1 22.18"/>
      <polygon class="cls-2" points="37.27 12.21 37.27 15.79 46.93 15.79 46.93 12.21 45.21 12.21 45.21 14.32 42.99 14.32 42.99 12.21 41.22 12.21 41.22 14.32 38.99 14.32 38.99 12.21 37.27 12.21 37.27 12.21 37.27 12.21"/>
      <polygon class="cls-2" points="8.9 29.42 14.24 29.42 14.24 26.59 8.98 26.59 8.9 29.42 8.9 29.42 8.9 29.42"/>
      <polygon class="cls-2" points="45.82 16.22 38.38 16.22 38.38 18.98 41.31 18.98 41.31 17.18 42.89 17.18 42.89 18.98 45.82 18.98 45.82 16.22 45.82 16.22 45.82 16.22"/>
      <path class="cls-2" d="m13.29,39.54h-4.68l-.08,2.83h3.79c.27-.96.59-1.9.96-2.83h0Z"/>
      <path class="cls-2" d="m8.35,48.98h2.9v-.12c.03-.95.17-1.9.31-2.84h-3.13l-.08,2.96h0Z"/>
      <polygon class="cls-2" points="42.3 53.06 47.5 53.06 47.5 49.43 42.46 49.43 42.3 53.06 42.3 53.06 42.3 53.06"/>
      <polygon class="cls-2" points="7.6 53.06 12.85 53.06 12.69 49.43 7.6 49.43 7.6 53.06 7.6 53.06 7.6 53.06"/>
      <polygon class="cls-2" points="19.05 22.18 20.63 22.18 20.63 19.77 19.05 19.77 19.05 22.18 19.05 22.18 19.05 22.18"/>
      <path class="cls-2" d="m46.49,39.54h-4.65c.39.93.72,1.87.99,2.83h3.73l-.08-2.83h0Z"/>
      <path class="cls-2" d="m43.35,42.78h-.41c.15.6.29,1.2.41,1.81v-1.81h0Z"/>
      <polygon class="cls-2" points="42.89 20.71 42.3 20.71 42.3 22.15 45.82 22.15 45.82 19.39 42.89 19.39 42.89 20.71 42.89 20.71 42.89 20.71"/>
      <polygon class="cls-2" points="22.47 8.62 22.47 12.2 32.64 12.2 32.64 8.62 30.82 8.62 30.82 10.73 28.49 10.73 28.49 8.62 26.61 8.62 26.61 10.73 24.29 10.73 24.29 8.62 22.47 8.62 22.47 8.62 22.47 8.62"/>
      <polygon class="cls-2" points="13.71 20.71 13.12 20.71 13.12 22.15 16.64 22.15 16.64 19.39 13.71 19.39 13.71 20.71 13.71 20.71 13.71 20.71"/>
      <polygon class="cls-2" points="47.02 23.37 47.25 22.59 7.84 22.59 8.08 23.37 47.02 23.37 47.02 23.37 47.02 23.37"/>
      <polygon class="cls-2" points="9.2 19.39 9.2 22.15 12.72 22.15 12.72 20.71 12.13 20.71 12.13 19.39 9.2 19.39 9.2 19.39 9.2 19.39"/>
      <polygon class="cls-2" points="16.64 16.22 9.2 16.22 9.2 18.98 12.13 18.98 12.13 17.18 13.71 17.18 13.71 18.98 16.64 18.98 16.64 16.22 16.64 16.22 16.64 16.22"/>
      <polygon class="cls-2" points="8.09 12.21 8.09 15.79 17.75 15.79 17.75 12.21 16.03 12.21 16.03 14.32 13.8 14.32 13.8 12.21 12.04 12.21 12.04 14.32 9.8 14.32 9.8 12.21 8.09 12.21 8.09 12.21 8.09 12.21"/>
      <polygon class="cls-2" points="23.43 22.18 27.3 22.18 27.3 19.36 23.43 19.36 23.43 22.18 23.43 22.18 23.43 22.18"/>
      <polygon class="cls-2" points="27.7 22.18 31.67 22.18 31.67 19.36 27.7 19.36 27.7 22.18 27.7 22.18 27.7 22.18"/>
      <polygon class="cls-2" points="30.46 15.8 28.34 15.8 28.34 17.51 26.76 17.51 26.76 15.8 24.65 15.8 24.65 18.96 30.46 18.96 30.46 15.8 30.46 15.8 30.46 15.8"/>
      <polygon class="cls-2" points="30.86 18.96 31.67 18.96 31.67 15.8 30.86 15.8 30.86 18.96 30.86 18.96 30.86 18.96"/>
      <polygon class="cls-2" points="31.67 12.63 27.76 12.63 27.76 13.98 28.34 13.98 28.34 15.39 31.67 15.39 31.67 12.63 31.67 12.63 31.67 12.63"/>
      <polygon class="cls-2" points="23.43 18.96 24.24 18.96 24.24 15.8 23.43 15.8 23.43 18.96 23.43 18.96 23.43 18.96"/>
      <polygon class="cls-2" points="26.76 13.98 27.35 13.98 27.35 12.63 23.43 12.63 23.43 15.39 26.76 15.39 26.76 13.98 26.76 13.98 26.76 13.98"/>
      <path class="cls-2" d="m12.22,42.78h-.47v2.1c.14-.71.29-1.41.47-2.1h0Z"/>
      <polygon class="cls-2" points="37.8 32.66 43.35 32.66 43.35 29.83 37.8 29.83 37.8 32.66 37.8 32.66 37.8 32.66"/>
      <polygon class="cls-2" points="40.87 33.07 40.87 35.9 46.39 35.9 46.31 33.07 40.87 33.07 40.87 33.07 40.87 33.07"/>
      <polygon class="cls-2" points="46.48 39.13 46.4 36.3 43.76 36.3 43.76 39.13 46.48 39.13 46.48 39.13 46.48 39.13"/>
      <polygon class="cls-2" points="43.76 23.79 43.76 26.19 46.11 26.19 46.04 23.79 43.76 23.79 43.76 23.79 43.76 23.79"/>
      <path class="cls-2" d="m37.39,32.66v-2.83l-3.64.04c1.23.82,2.39,1.75,3.45,2.78h.18Z"/>
      <polygon class="cls-2" points="34.36 29.42 40.46 29.42 40.46 26.59 34.36 26.59 34.36 29.42 34.36 29.42 34.36 29.42"/>
      <polygon class="cls-2" points="40.87 29.42 46.2 29.42 46.12 26.59 40.87 26.59 40.87 29.42 40.87 29.42 40.87 29.42"/>
      <polygon class="cls-2" points="43.76 29.83 43.76 32.66 46.29 32.66 46.22 29.83 43.76 29.83 43.76 29.83 43.76 29.83"/>
      <path class="cls-2" d="m43.35,39.13v-2.83h-3.21c.56.91,1.07,1.86,1.52,2.83h1.69Z"/>
      <polygon class="cls-2" points="46.66 45.61 46.58 42.78 43.76 42.78 43.76 45.61 46.66 45.61 46.66 45.61 46.66 45.61"/>
      <polygon class="cls-2" points="31.47 26.19 37.39 26.19 37.39 23.79 31.47 23.79 31.47 26.19 31.47 26.19 31.47 26.19"/>
      <path class="cls-2" d="m23.33,29.86c1.36-.74,2.77-1.34,4.27-1.74,4.87,1.85,9.36,5.08,12.11,9.62,2,3.53,2.91,7.26,3.05,11.26h.68c-.04-1.02-.13-2.03-.27-3.04-.84-5.82-3.69-11.3-8.44-14.89-2.16-1.63-4.64-2.84-7.21-3.75-4.71,1.63-8.89,4.33-11.81,8.52l-.29.44c-2.18,3.53-3.71,8.42-3.76,12.69h.69c.25-4.58,1.38-9.06,4.01-12.89,1.88-2.59,4.24-4.66,6.96-6.23h0Z"/>
      <path class="cls-2" d="m39.88,35.9h.59v-2.83h-2.83c.07.01,1.29,1.46,2.24,2.83h0Z"/>
      <polygon class="cls-2" points="37.8 26.19 43.35 26.19 43.35 23.79 37.8 23.79 37.8 26.19 37.8 26.19 37.8 26.19"/>
      <path class="cls-2" d="m17.43,33.07h-2.79v2.83h.56c.67-1.01,1.4-1.95,2.23-2.83h0Z"/>
      <path class="cls-2" d="m8.63,39.13h2.71c0-.94,0-1.88,0-2.83h-2.64l-.08,2.83h0Z"/>
      <polygon class="cls-2" points="11.75 32.66 17.31 32.66 17.31 29.83 11.75 29.83 11.75 32.66 11.75 32.66 11.75 32.66"/>
      <polygon class="cls-2" points="8.81 32.66 11.34 32.66 11.34 29.83 8.89 29.83 8.81 32.66 8.81 32.66 8.81 32.66"/>
      <polygon class="cls-2" points="11.75 26.19 17.31 26.19 17.31 23.79 11.75 23.79 11.75 26.19 11.75 26.19 11.75 26.19"/>
      <polygon class="cls-2" points="11.34 42.78 8.52 42.78 8.44 45.61 11.34 45.61 11.34 42.78 11.34 42.78 11.34 42.78"/>
      <polygon class="cls-2" points="14.24 33.07 8.8 33.07 8.72 35.9 14.24 35.9 14.24 33.07 14.24 33.07 14.24 33.07"/>
      <polygon class="cls-2" points="17.71 26.19 23.63 26.19 23.63 23.79 17.71 23.79 17.71 26.19 17.71 26.19 17.71 26.19"/>
      <path class="cls-2" d="m21.33,29.83h-3.61s0,2.83,0,2.83h.11c1.06-1.05,2.25-2.01,3.5-2.83h0Z"/>
      <polygon class="cls-2" points="24.04 26.19 31.06 26.19 31.06 23.79 24.04 23.79 24.04 26.19 24.04 26.19 24.04 26.19"/>
      <path class="cls-2" d="m14.94,36.3h-3.19v2.83h1.71c.43-.98.92-1.92,1.48-2.83h0Z"/>
      <path class="cls-2" d="m27.53,26.9c1.92.65,3.77,1.48,5.52,2.53h.91v-2.83h-12.81v2.83h.83c1.76-1.05,3.62-1.87,5.55-2.53h0Z"/>
      <polygon class="cls-2" points="9.06 23.79 9 26.19 11.34 26.19 11.34 23.79 9.06 23.79 9.06 23.79 9.06 23.79"/>
      <polygon class="cls-2" points="20.74 26.59 14.64 26.59 14.64 29.42 20.74 29.42 20.74 26.59 20.74 26.59 20.74 26.59"/>
      <path class="cls-1" d="m75.65,4.99c0,10.67-1.37,13.61-3.84,13.61-.19,0-.38,0-.6-.04v-1.61c.06.02.13.02.19.02,2.22,0,2.48-3.98,2.5-13.59h7.62v15.17h-1.73V4.99h-4.14Z"/>
      <path class="cls-1" d="m91.64,15.13c0,2.13-1.71,3.43-3.42,3.43h-3.61V6.8h1.64v4.67h1.92c1.92,0,3.46,1.5,3.46,3.67h0Zm-5.38,1.96h1.86c1.39,0,1.88-.86,1.88-2.09s-.66-2.07-1.86-2.07h-1.88v4.15h0Z"/>
      <path class="cls-1" d="m93.46,6.8h3.46c1.9,0,3.31,1.25,3.31,2.8,0,1.45-.79,2.26-1.86,2.72,1.09.26,2.18,1.17,2.18,3.04,0,2.04-1.98,3.21-3.61,3.21h-3.48V6.8h0Zm1.64,1.45v3.43h1.77c.94,0,1.67-.73,1.67-1.72,0-1.23-.66-1.72-1.6-1.72h-1.83Zm0,4.88v3.96h1.99c1.07,0,1.75-.61,1.75-1.98,0-1.1-.64-1.98-1.71-1.98h-2.03Z"/>
      <path class="cls-1" d="m104.69,4.29c0,.57-.45,1.03-1,1.03s-.98-.46-.98-1.03.43-1.01.98-1.01,1,.44,1,1.01h0Zm-.17,14.27h-1.65V6.8h1.65v11.77h0Z"/>
      <path class="cls-1" d="m107.66,6.8h3.46c1.9,0,3.31,1.25,3.31,2.79,0,1.45-.79,2.27-1.86,2.73,1.09.26,2.18,1.17,2.18,3.04,0,2.04-1.99,3.21-3.61,3.21h-3.48V6.8h0Zm1.64,1.45v3.43h1.77c.94,0,1.67-.73,1.67-1.72,0-1.23-.66-1.72-1.6-1.72h-1.84Zm0,4.88v3.96h1.99c1.07,0,1.75-.61,1.75-1.98,0-1.1-.64-1.98-1.71-1.98h-2.03Z"/>
      <path class="cls-1" d="m123.83,10.16l-1.6.37c-.21-1.39-.75-2.48-1.99-2.48-1.88,0-2.16,2.29-2.16,4.58s.28,4.68,2.16,4.68c1.24,0,1.75-1.08,1.99-2.46.73.18,1.6.38,1.6.4-.3,1.96-1.39,3.54-3.59,3.54-3.16,0-3.82-3.03-3.82-6.07s.66-6.14,3.82-6.13c2.18,0,3.31,1.63,3.59,3.58h0Z"/>
      <path class="cls-1" d="m132.81,15.13c0,2.13-1.71,3.43-3.42,3.43h-3.61s0-11.77,0-11.77h1.65v4.67h1.92c1.92,0,3.46,1.49,3.46,3.67h0Zm-5.38,1.96h1.86c1.39,0,1.88-.86,1.88-2.09s-.66-2.07-1.86-2.07h-1.88v4.16h0Z"/>
      <path class="cls-1" d="m134.65,6.8h1.65v4.88h.86c.57,0,1.03-.42,1.26-.97l1-2.46c.51-1.05,1.28-1.5,2.2-1.5.19,0,.4,0,.62.04v1.47c-.13-.02-.3-.02-.4-.02-.55,0-.92.29-1.15.97l-.69,1.69c-.3.77-.85,1.25-1.32,1.36.47.09,1.34.64,1.6,1.45l.71,2.31c.04.4.57,1.1,1.17,1.1.08,0,.17,0,.28-.04v1.47c-.24.07-.45.09-.64.09-1.01,0-1.84-.68-2.16-1.87l-.9-2.62c-.32-.73-.73-1.03-1.17-1.03h-1.26v5.43h-1.65V6.8h0Z"/>
      <path class="cls-1" d="m146.69,18.78c-1.96,0-2.99-1.45-2.99-3.45,0-2.62,1.47-4.04,4.4-4.04.4,0,.83,0,1.24.02v-.92c0-1.91-.6-2.35-1.79-2.35-1.09,0-1.56.72-1.84,1.54l-1.49-.44c.64-1.69,1.52-2.57,3.36-2.57,1.94,0,3.44.83,3.44,3.85v5.63c0,.68.15,1.12.73,1.12.09,0,.19-.02.32-.05v1.45c-.23.04-.43.07-.62.07-.85,0-1.45-.44-1.88-1.67-.88,1.54-1.62,1.83-2.86,1.83h0Zm2.67-6.18c-2.31.02-3.99.07-3.99,2.6,0,1.19.43,2.11,1.69,2.11,1.79,0,2.31-1.65,2.31-3.5v-1.21h0Z"/>
      <path class="cls-1" d="m82.64,37.98h-1.64v-4c0-.99.11-3.96.23-4.84l-3.16,6.29h-1.11l-3.16-6.29c.11.88.24,3.85.24,4.84v4h-1.64v-11.76h1.64l3.48,7.01,3.48-7.01h1.64v11.76h0Z"/>
      <path class="cls-1" d="m87.42,23.71c0,.57-.45,1.03-1,1.03s-.98-.46-.98-1.03.43-1.01.98-1.01,1,.44,1,1.01h0Zm-.17,14.27h-1.64v-11.76h1.64v11.76h0Z"/>
      <path class="cls-1" d="m97.09,29.58l-1.6.37c-.21-1.39-.75-2.49-1.99-2.49-1.88,0-2.16,2.29-2.16,4.57s.28,4.68,2.16,4.68c1.24,0,1.75-1.08,1.99-2.46.73.18,1.6.38,1.6.4-.3,1.96-1.39,3.54-3.59,3.54-3.16,0-3.82-3.04-3.82-6.07s.66-6.13,3.82-6.13c2.18,0,3.31,1.63,3.59,3.58h0Z"/>
      <path class="cls-1" d="m106.18,34.55c0,2.13-1.71,3.43-3.41,3.43h-3.61v-11.76h1.64v4.66h1.92c1.92,0,3.46,1.5,3.46,3.67h0Zm-5.38,1.96h1.86c1.39,0,1.88-.86,1.88-2.09s-.66-2.07-1.86-2.07h-1.88v4.16h0Z"/>
      <path class="cls-1" d="m107.87,26.21h1.64v4.88h.86c.58,0,1.03-.41,1.26-.96l1-2.46c.51-1.06,1.28-1.5,2.2-1.5.19,0,.41,0,.62.04v1.47c-.13-.02-.3-.02-.41-.02-.55,0-.92.28-1.15.97l-.68,1.69c-.3.77-.85,1.25-1.32,1.36.47.09,1.34.64,1.6,1.45l.71,2.31c.04.4.58,1.1,1.18,1.1.08,0,.17,0,.27-.04v1.47c-.23.07-.45.09-.64.09-1,0-1.84-.68-2.16-1.87l-.9-2.62c-.32-.73-.73-1.03-1.17-1.03h-1.26v5.43h-1.64v-11.76h0Z"/>
      <path class="cls-1" d="m119.91,38.2c-1.96,0-2.99-1.45-2.99-3.45,0-2.62,1.47-4.04,4.4-4.04.41,0,.83,0,1.24.02v-.92c0-1.91-.6-2.36-1.79-2.36-1.09,0-1.56.73-1.84,1.54l-1.49-.44c.64-1.69,1.52-2.57,3.35-2.57,1.94,0,3.44.83,3.44,3.85v5.63c0,.68.15,1.12.72,1.12.09,0,.19-.02.32-.04v1.45c-.24.05-.43.07-.62.07-.85,0-1.45-.44-1.88-1.67-.87,1.54-1.62,1.83-2.86,1.83h0Zm2.67-6.18c-2.31.02-3.99.07-3.99,2.6,0,1.19.43,2.11,1.69,2.11,1.79,0,2.31-1.65,2.31-3.49v-1.21h0Z"/>
      <path class="cls-1" d="m72.39,45.63h1.11l.43,1.41c.66-.92,1.43-1.63,2.56-1.63,3.07,0,3.78,3.12,3.78,6.13s-.73,6.07-3.78,6.07c-1.09,0-1.83-.59-2.45-1.45v4.64h-1.64v-15.17h0Zm1.64,5.91c0,2.27.32,4.58,2.24,4.58s2.33-2.38,2.33-4.6-.32-4.64-2.33-4.64-2.24,2.42-2.24,4.66h0Z"/>
      <path class="cls-1" d="m84.96,57.61c-1.97,0-2.99-1.45-2.99-3.45,0-2.62,1.47-4.05,4.4-4.05.41,0,.83,0,1.24.02v-.92c0-1.91-.6-2.35-1.79-2.35-1.09,0-1.56.72-1.84,1.54l-1.49-.44c.64-1.69,1.51-2.57,3.35-2.57,1.94,0,3.44.84,3.44,3.85v5.63c0,.68.15,1.12.73,1.12.08,0,.19-.02.32-.04v1.45c-.23.05-.43.07-.62.07-.86,0-1.45-.44-1.88-1.67-.88,1.54-1.62,1.83-2.86,1.83h0Zm2.67-6.18c-2.31.02-3.99.07-3.99,2.59,0,1.19.43,2.11,1.69,2.11,1.79,0,2.31-1.65,2.31-3.5v-1.21h0Z"/>
      <path class="cls-1" d="m99.82,45.63v10.29h1.07v4.11h-1.28l-.21-2.64h-6.62l-.21,2.64h-1.28v-3.98l.66-.13c1.32-1.21,1.73-4.09,1.75-10.29h6.13Zm-1.64,10.29v-8.82h-2.92c-.17,4.9-.45,7.01-1.56,8.82h4.48Z"/>
      <path class="cls-1" d="m105.37,57.61c-1.96,0-2.99-1.45-2.99-3.45,0-2.62,1.47-4.05,4.4-4.05.4,0,.83,0,1.24.02v-.92c0-1.91-.6-2.35-1.79-2.35-1.09,0-1.56.72-1.84,1.54l-1.49-.44c.64-1.69,1.52-2.57,3.35-2.57,1.94,0,3.44.84,3.44,3.85v5.63c0,.68.15,1.12.73,1.12.09,0,.19-.02.32-.04v1.45c-.24.04-.43.07-.62.07-.85,0-1.45-.44-1.88-1.67-.87,1.54-1.62,1.82-2.86,1.82h0Zm2.67-6.18c-2.31.02-3.99.06-3.99,2.59,0,1.19.43,2.11,1.69,2.11,1.8,0,2.31-1.65,2.31-3.5v-1.21h0Z"/>
    </g>
  </g>
</svg>