<?xml version="1.0" encoding="UTF-8"?>
<svg id="_Шар_2" data-name="Шар 2" xmlns="http://www.w3.org/2000/svg" viewBox="0 0 42.67 56.79">
  <defs>
    <style>
      .cls-1 {
        fill-rule: evenodd;
      }

      .cls-1, .cls-2 {
        fill: #202020;
        stroke-width: 0px;
      }
    </style>
  </defs>
  <g id="Layer_1" data-name="Layer 1">
    <g>
      <path class="cls-1" d="m.87,36.57h1.63c.16,0,.28.13.28.29v12.34l6.07-.56c.2-.02.3.04.3.27v1.39c0,.16-.13.28-.29.28H.86c-.15,0-.28-.13-.28-.28h0v-13.44c0-.16.13-.29.28-.29Z"/>
      <path class="cls-1" d="m9.63,36.57h1.77c.16,0,.24.14.28.29l3.69,11.1,3.12-11.1c.04-.15.13-.29.28-.29h1.57c.16,0,.33.14.28.29l-4.45,13.44c-.05.15-.17.29-.33.29h-1.73c-.16,0-.28-.14-.33-.29l-4.45-13.44c-.05-.15.13-.29.28-.29Z"/>
      <path class="cls-1" d="m30.88,36.57h1.77c.16,0,.24.14.28.29l3.69,11.1,3.12-11.1c.04-.15.13-.29.28-.29h1.57c.16,0,.33.14.28.29l-4.45,13.44c-.05.15-.17.29-.33.29h-1.73c-.16,0-.28-.14-.33-.29l-4.45-13.44c-.05-.15.13-.29.28-.29Z"/>
      <path class="cls-2" d="m24.8,36.57h1.63c.16,0,.28.13.28.28v13.44c0,.16-.13.29-.29.29h-1.63c-.16,0-.28-.13-.28-.28v-13.44c0-.16.13-.29.29-.29Z"/>
      <path class="cls-1" d="m40.31,54.33v1.96h.25c.23,0,.41-.07.54-.22.13-.14.19-.4.19-.77,0-.26-.03-.46-.1-.6-.06-.14-.15-.24-.26-.29-.11-.05-.24-.08-.39-.08h-.23Zm.14-.44c.44,0,.8.1,1.07.3.27.2.4.57.4,1.11s-.13.9-.39,1.11c-.26.22-.6.32-1.01.32h-.81v-2.84h.74Z"/>
      <polygon class="cls-1" points="38.12 56.24 39.24 56.24 39.24 56.73 37.51 56.73 37.51 53.88 38.12 53.88 38.12 56.24"/>
      <path class="cls-1" d="m35.34,55.19h.32c.16,0,.28-.04.37-.11.08-.07.12-.19.12-.34,0-.15-.04-.25-.13-.32-.09-.07-.22-.1-.4-.1h-.27v.87h0Zm.31.43h-.31v1.11h-.6v-2.84h.89c.38,0,.67.07.86.21.19.14.29.35.29.64,0,.19-.05.34-.14.46-.09.12-.23.22-.42.3l.73,1.23h-.69l-.61-1.11Z"/>
      <path class="cls-1" d="m32.92,54.27c-.21,0-.37.08-.47.25-.11.16-.16.43-.16.79s.05.62.16.79c.11.16.26.25.47.25s.36-.08.47-.24c.1-.16.16-.43.16-.79s-.05-.63-.16-.79c-.1-.16-.26-.24-.47-.24h0Zm0-.45c.26,0,.49.06.67.17.19.12.33.29.44.51.1.22.15.49.15.81s-.05.58-.15.8c-.1.22-.25.39-.44.51-.19.12-.41.18-.67.18s-.49-.06-.68-.17c-.19-.12-.34-.29-.44-.51-.1-.22-.15-.49-.15-.8s.05-.57.15-.8c.1-.22.25-.39.44-.51.19-.12.41-.18.67-.18Z"/>
      <polygon class="cls-1" points="30.74 56.73 29.95 56.73 29.56 54.62 29.14 56.73 28.38 56.73 27.84 53.88 28.44 53.88 28.81 56.12 29.24 53.88 29.88 53.88 30.3 56.15 30.71 53.88 31.28 53.88 30.74 56.73"/>
      <polygon class="cls-1" points="22.84 55.48 21.89 55.48 21.89 56.73 21.29 56.73 21.29 53.88 21.89 53.88 21.89 55 22.84 55 22.84 53.88 23.44 53.88 23.44 56.73 22.84 56.73 22.84 55.48"/>
      <path class="cls-1" d="m15.85,54.27c-.21,0-.37.08-.47.25-.11.16-.16.43-.16.79s.05.62.16.79c.11.16.26.25.47.25s.36-.08.47-.24c.1-.16.16-.43.16-.79s-.05-.63-.16-.79c-.1-.16-.26-.24-.47-.24h0Zm0-.45c.26,0,.49.06.67.17.19.12.33.29.44.51.1.22.15.49.15.81s-.05.58-.15.8c-.1.22-.25.39-.44.51-.19.12-.41.18-.67.18s-.49-.06-.68-.17c-.19-.12-.34-.29-.44-.51-.1-.22-.15-.49-.15-.8s.05-.57.15-.8c.1-.22.25-.39.44-.51.19-.12.41-.18.67-.18Z"/>
      <polygon class="cls-1" points="7.41 54.32 6.32 54.32 6.32 55.06 7.22 55.06 7.22 55.5 6.32 55.5 6.32 56.28 7.41 56.28 7.41 56.73 5.71 56.73 5.71 53.88 7.41 53.88 7.41 54.32"/>
      <path class="cls-1" d="m4.03,55.31c.18,0,.31-.04.4-.12.09-.08.14-.21.14-.39,0-.32-.18-.48-.55-.48h-.27v.99h.28Zm0-1.43c.37,0,.66.08.86.23.2.15.31.38.31.69s-.1.56-.3.72c-.2.16-.47.24-.81.24h-.32v.97h-.6v-2.84h.88Z"/>
      <path class="cls-1" d="m1.37,54.27c-.21,0-.37.08-.47.25-.11.16-.16.43-.16.79s.05.62.16.79c.11.16.26.25.47.25s.36-.08.47-.24c.1-.16.16-.43.16-.79s-.05-.63-.16-.79c-.1-.16-.26-.24-.47-.24h0Zm0-.45c.26,0,.49.06.67.17.19.12.33.29.44.51.1.22.15.49.15.81s-.05.58-.15.8c-.1.22-.25.39-.44.51-.19.12-.41.18-.67.18s-.49-.06-.68-.17c-.19-.12-.34-.29-.44-.51-.1-.22-.15-.49-.15-.8s.05-.57.15-.8c.1-.22.25-.39.44-.51.19-.12.41-.18.67-.18Z"/>
      <polygon class="cls-1" points="8.56 56.73 8.01 56.73 8.01 53.88 8.77 53.88 9.66 55.96 9.65 53.88 10.2 53.88 10.2 56.73 9.42 56.73 8.56 54.68 8.56 56.73"/>
      <polygon class="cls-1" points="14.27 54.36 13.51 54.36 13.51 56.73 12.9 56.73 12.9 54.36 12.14 54.36 12.14 53.88 14.27 53.88 14.27 54.35 14.27 54.36"/>
      <polygon class="cls-1" points="20.86 54.36 20.1 54.36 20.1 56.73 19.49 56.73 19.49 54.36 18.74 54.36 18.74 53.88 20.86 53.88 20.86 54.35 20.86 54.36"/>
      <polygon class="cls-1" points="25.89 54.32 24.8 54.32 24.8 55.06 25.7 55.06 25.7 55.5 24.8 55.5 24.8 56.28 25.89 56.28 25.89 56.73 24.2 56.73 24.2 53.88 25.89 53.88 25.89 54.32"/>
      <path class="cls-1" d="m35.69,32.36c0,.22.08.3.16.34.05.02.1.02.13.02.5.02.67.1.66-.32,0-.89-.02-2.42-.03-3.19-.01-.65,0-1.3-.01-1.95-.04-2.06-.14-4.12-.1-6.18.4,0,.83.01,1.23.02-.06.04-.12,0-.14.36-.04.98-.04,2.29-.03,3.31,0,.75,0,1.51,0,2.26.02,1.63-.04,3.47-.04,5.1,0,.31-.04,1.03-.03,1.33-.03.28.2.32.2.32.12-.01.29-.01.45-.02.18-.01.19-.02.19-.31,0-.09-.02-.28-.02-.49,0-.59,0-1.8.01-2.39,0-.31,0-.62,0-.93,0-.6,0-1.19,0-1.79,0-.71-.02-1.41-.04-2.11,0-.28-.01-.56-.02-.84,0-.58-.01-1.16-.02-1.74,0-.59.04-1.43.03-2.04.42.01.83.03,1.18.04,0,.32,0,.69,0,.89,0,1.59-.15,3.17-.17,4.76,0,.73,0,1.46,0,2.19-.01.99-.01,2.46.03,3.42.02.37.07.34.17.36.13,0,.29.02.42.02.09,0,.28.04.27-.28,0-.6-.05-1.35-.04-1.94,0-.84.02-1.67.04-2.51.01-.68.03-1.37.04-2.05.02-1.59.02-3.18,0-4.76v-.04c.08,0,.14,0,.15,0,.15,0,.41-.02.71-.04,0,.71-.02,1.37-.02,2.07,0,1.4,0,2.79,0,4.18,0,.64,0,1.29,0,1.93,0,.87-.01,2.19.03,3.03.01.33.05.34.11.4.11,0,.39-.03.49-.04.14-.04.19-.07.18-.29,0-.53-.02-1.21-.02-1.73,0-.74.02-1.47.03-2.21.03-1.38.05-2.75.05-4.13,0-1.86-.05-3.67-.01-5.54,0-.3.01-.75.01-1.16.26-.01.45-.01.6-.05.1-.03.17-.13.17-.21,0-.14.03-.18-.11-.25-.44-.14-.94-.99-1.13-1.49-.5-1.31-1.54-1.65-2.12-1.79-.03-.23.06-.91.11-1.62.14-.14.16-.31.16-.58,0-.33-.2-.71-.54-.79h0c0-.53.01-1.24.11-1.6-.01-.24.4-.16.67-.15.39,0,.4-.32.05-.39-.16-.03-.52-.02-.67-.03-.09-.34.02-.45.09-.98.1-.75-.35-.79-.49-.13.03.24-.14,1.08-.17,1.1-.26,0-.64-.01-.8.08-.21.12-.2.32.03.36.08.01.34-.02.56.01.28-.01.23,0,.23.09,0,.35,0,1.04,0,1.56-.35.08-1.14.94-.71,1.34.33.31.21,1.15.22,1.68-1.58.56-2.01,2.19-2.75,3.39-.05.09-.15.12-.24.14-.19.05-.19.31.11.33.13,0,.25.02.38.02v.04c-.03.96,0,1.91,0,2.86-.08,0-.28.01-.37.01-.07,0-.07.11-.08.16,0,.21.08.27.18.28.04,0,.22,0,.26,0-.02.42-.03.83-.04,1.23,0,.51,0,1.38,0,1.89,0,.27.01.54.01.8,0,.51,0,1.03.01,1.54.01.61.03,1.22.05,1.82,0,.24.02.49.02.73,0,.5.02,1,.03,1.5,0,.52-.04,1.21-.03,1.75h0Zm4.18-13.65c-.03-.42-.34-.69-.69-.88.67,0,1.29-.03,1.96-.08v.37c-.02.72-.05,1.43-.07,2.15,0,.12,0,.25,0,.37-.28,0-.52-.05-.8-.05-.7,0-2.97,0-3.76,0,.02-.93.03-1.88.07-2.8.6.03,1.19.04,1.78.05-.29.18-.5.53-.63.83-.22.52-.16,1,.61,1.34.97.43,1.52-.41,1.53-1.29h0Zm1.33-1.47c-.17,0-.54,0-.71.01-.36,0-.73-.03-1.09-.02-1.21.02-2.24.02-3.33.02.81-.57,1.04-2.23,1.71-2.73.33-.25.78-.33,1.03-.31.58.04,1.12.72,1.38,1.23.44.83.57,1.37,1,1.8Z"/>
      <path class="cls-1" d="m19.61,23.38c.38,0,1.07,0,1.71,0,0-.02,0-.04,0-.07.04-1.11-.09-2.76-.02-3.88,0-.03-.04-.14.19-.14.11,0,.48,0,.59.02.15,0,.17.05.17.14.02,1.96.04,2.93-.02,3.92.77,0,1.49.02,2.05.02,0-.82,0-1.65,0-2.47,0-1.48.09-2.98.09-4.46,0-.53.05-6.86.02-6.86-1.61-.11-3.09.09-4.89.14-.11,3.44-.05,9.24.11,13.62h0Zm5.61-10.09c.02,4.27.07,8.53.08,12.8,0,2.05,0,4.11,0,6.16,0,.61,0,.87,0,1.04,0,.41-.12.4-.22.42-.18,0-.4,0-.6-.02-.08,0-.2-.07-.17-.46-.06-3.12-.02-6.24-.02-9.35-1.09.09-3.3.21-4.67.16.02,1.35.05,2.64.03,3.99-.02,1.18-.11,2.38-.11,3.56,0,.22,0,.68-.01.9.05.29-.58.22-.62.22-.05,0-.23-.02-.24-.22,0-.06,0-.16,0-.3-.01-.75,0-1.5,0-2.25.01-1.56.06-3.12.08-4.69,0-.07,0-.48,0-1.19-.15,0-.24,0-.26,0-.08,0-.19-.01-.19-.04-.02-.08-.02-.47,0-.56,0-.05.07-.09.19-.09.1,0,.19,0,.27,0-.01-3.91-.04-12.66-.04-13.54-.75.02-.69-1.19-.32-1.17.34-.05,1.37-.34,1.73-.46-.42-.12-1.44.13-1.85-.02-.19-.07-.22-.25-.28-.42-.26-.81.06-.57.48-.64.79,0,1.66-.12,2.43-.04.25-.53.69-1.3.58-1.85-.15-.73-.31-2.18-.37-2.52-.08-.57.27-.51.47-.53.16-.01.77-.04,1.18-.1.42-.06,1.55-.45,1.72.04.11.02-.01.72.15.84.06.14.05.71-.1.79-.17-.01-.72.11-1.02.02-.51-.02-1.14-.05-1.63.01.03.61.22,1.26.17,1.71.23.23,1.07,1.28,1.2,1.67.11.02.59.05,1.2.02.13-.76.91-.74.89.04.38.05.63.08.71.29.04.11-.12,1.08-.19,1.62-.07.52-.31.41-.59.47-.04,0-.07,3.4-.06,3.69h0Zm-2.44-.12c.61.47.77,1.56.43,2.16-.06.1-.38.52-.59.59-.54.19-1.13.14-1.5-.09-.34-.21-.85-1.23-.67-1.64.31-.73,1.35-1.77,2.33-1.02Z"/>
      <path class="cls-1" d="m1.92,20.47c-.23-.01-.6,0-.84,0-.06-.7.02-1.87-.05-2.59.16.02.41.03.59,0,.16,1.07.33,2.39.3,2.6h0Zm4.08-.05c-.17,0-.54.01-.77,0,0-.21-.05-1.46,0-2.6.2.02.46,0,.68,0,.05.89.1,1.73.08,2.62h0Zm0,.54c.03,3.92.12,7.84.15,11.76,0,.08.09.11.17.11.02,0,.44.06.51-.03.09,0,.04-.19.04-.26.02-3.86-.03-7.77-.06-11.63h.25c.17-.01.21-.34.19-.42,0-.03-.03-.07-.09-.09-.11-.03-.24,0-.33-.02-.06-1.67,0-3.11-.29-4.37-.15-.67-.24-1.16-.42-1.82-.17-.63-.5-.79-.66-.61-.24.29-.45,2.23-.56,2.46-.16.33-.22,1.63-.27,1.84-.06-.21-.5-1.6-.84-2.25.07-.4.02-.96.06-1.37.04-.47.08-1.03-.35-1.17.03-.74.07-1.14.05-1.25.05-.05.3,0,.45-.04.23.09.26-.34,0-.41-.09-.02-.39-.04-.42-.07.04-.4-.03-.68-.04-1.08-.01-.61-.31-.59-.4.02-.05.35.05.66.06,1.03-.16-.02-.58.06-.71.1-.23.09-.16.33.01.35.19.01.5-.02.66-.02,0,.07-.02.65-.05,1.53-.14.2-.28.54-.32.78-.13.63-.07,1.01-.07,1.68-.2.82-.47,2.41-.54,2.73-.02-.81-.37-2.33-.4-2.47-.23-1.02-.32-1.39-.4-1.63-.24-.73-.58-.18-.73.55-.19.89-.28,1.62-.3,2.48-.19.02-.31-.01-.34.07-.05.11,0,.34.1.35.07.01.15.03.25.02-.14,3.64-.04,7.38-.05,10.99,0,1.53-.02,3.06,0,4.59,0,.22,0,.18.16.21.18.03.56.05.64.04.09-.02.16,0,.15-.22.01-.34-.02-1.15-.02-1.5,0-2.17-.15-4.29-.13-6.46,0-.96,0-1.93,0-2.89,0-.52-.05-1.04-.05-1.62h.86c-.05,2.29-.08,4.59-.1,6.88-.01,1.65.09,4.03.1,5.68,0,.15.05.17.19.18.12,0,.37.01.47.02.08,0,.13-.05.13-.11,0-.35-.05-1.42-.05-1.66,0-1.65-.2-3.29-.19-4.94,0-.76,0-1.52,0-2.28,0-.99,0-2.77.05-3.77h2.05c.01,1.69-.01,3.33,0,5.02.01,1.5.04,3.01.05,4.51,0,.52.05.83.07,1.46,0,.08.03.07.1.07l.46.03c.08,0,.09-.02.09-.1.02-.98-.09-2.08-.1-3.02,0-.72,0-1.45,0-2.17-.01-1.57,0-3.14,0-4.71,0-.26,0-.77-.01-1.1h.76Zm-.71-3.6c.03-.29.07-.58.14-.86.12-.49.31-.85.41.36,0,.02.02.2.04.49-.19-.01-.39,0-.59.01h0Zm-4.39.04c0-.19.03-.93.1-1.49.08-.62.1-.76.29.17.13.67.3,1.35.3,1.36-.23-.02-.52-.02-.69-.04h0Zm3.74,3.05c-.62.01-1.63.04-2.07.05-.02-.72.56-3.99.77-3.92.49.37,1.15,3.02,1.3,3.87h0Zm-1.39,3.46c-.04-.72.64-1.01.76-.07.01,1.65,0,1.92,0,4.31,0,.18.05,1.46.04,1.64.03.16-.14.13-.15.13-.17,0-.38.01-.55,0-.1,0-.16.04-.17-.17-.06-1.27-.1-4.24.06-5.84Z"/>
      <path class="cls-1" d="m10.9,9.46h3.36c-.04-.5-.35-1.21-.73-1.55-.55-.5-1.3-.57-1.75-.29-.37.23-.57.51-.71.97-.05.16-.14.68-.17.87h0Zm2.54,3c0-.49.12-.71.37-.71.26,0,.44.34.42.82-.03.85-.07,1.44-.07,2.02.22,0,.84,0,1.34-.01.03-1.69.07-2.9.07-3.03,0-.42,0-.96,0-1.43-.09.02-.3.01-.45,0-2.06.17-3.75.19-5.54-.13.05.74.23,2.52.26,4.64h1.14c.03-.68.17-1.46.15-2.17-.01-.55.24-.91.45-.92.24-.02.36.3.37.77.01.63-.05,1.64-.06,2.3.64,0,1.22-.01,1.5-.01.02-.66.04-1.45.04-2.13h0Zm.7,14.37c.03-.79-.3-1.25-.61-1.17-.21.05-.47.33-.55,1.04,0,1.5-.07,4.29-.06,5.69-.05.3.19.27.28.27.15,0,.77.03.86.03.1,0,.12,0,.12-.21,0-.09,0-.29,0-.58,0-.63-.01-4.29-.04-5.08h0Zm-2.27-.12c.02-.75-.24-1.09-.49-1.07-.2.01-.55.18-.62.94-.02,3.06-.11-.03-.11,4.38,0,.33,0,1.14.02,1.47-.02.19.07.22.13.23.05,0,.6,0,.82.02.16,0,.19-.03.19-.21,0-.09,0-.19,0-.5,0-1.32.08-3.96.06-5.27h0Zm1.36-8.41c.01-1.17.9-1.65.99-.13,0,1.77-.08,3.3-.03,5.29.31,0,.81-.02,1.11-.03.04-1.61.12-3.56.13-5.43,0-.99.06-1.94.07-2.93-1.86.08-3.79.02-5.65.1.03,2.77-.08,5.54-.1,8.3.38,0,.67,0,1.07,0,0-.47-.02-.94-.02-1.42,0-4.18,0-1.36,0-4.25.07-.78.3-.82.53-.79.25.04.44.24.41.91.02,1.24.05,3.73.05,4.98,0,.35,0,.49,0,.57.36,0,.93,0,1.29,0,0-.09,0-.24,0-.54,0-.62.11-3.86.14-4.64h0Zm-3.36-9.36c.11-.11.23-.5.26-.56.42-1.13,1.32-1.47,1.84-1.72.02-.56.04-1.31.06-1.68.03-.53-.24-.64-.04-1.03.09-.17.45-.4.48-.4.03-.54.04-1.26-.03-1.58.03-.21-.35-.16-.59-.17-.35-.02-.34-.37-.02-.41.13-.02.4,0,.55.01h0s.02-.05.04-.05h.02c.07-.26.02-.38-.02-.82-.05-.68.38-.69.47-.09-.04.22.04.97.07.99.23.01.56.02.69.11.19.12.16.36-.05.38-.07,0-.24-.03-.44-.02-.25-.03-.21-.02-.21.07-.01.31-.05,1.05-.07,1.58h0c.51.14.88.85.49,1.3-.2.23-.15.12-.15.49,0,.17-.03.79-.02,1.3.58.32,1.5.57,2.26,2,.03-.68-.03-1.42.03-2.17.07-.82.57-.65.67-.02.14.92.19,1.93.23,2.86.12.01.29,0,.43.06.1.05.08.29.02.37-.12.15-.32.25-.44.31.02,1.4,0,3.12.01,4.5.11,0,.23,0,.32,0,.17,0,.16.15.15.26-.02.11-.06.16-.17.17-.1.01-.18.02-.28.03.01,4.35.02,12.1.03,12.43,0,.38,0,.75,0,1.13,0,.2.01,2.24,0,2.43,0,.38-.02,1.01-.03,1.38,0,.17.08.39-.13.39h-.9c-.11,0-.13,0-.13-.12-.1-2.45,0-3.88-.03-5.73,0-.13-.01-1.31.02-2.97-1.81.05-3.73.04-5.54.04-.02,3.19-.15,6.29-.29,9.45.02.12-.04.16-.13.17-.19.03-.49.04-.51.04-.05,0-.18,0-.17-.21.08-2.58.17-5.22.17-7.81,0-.58.04-1.06.04-1.64-.1,0-.28,0-.35,0-.08,0-.23.04-.23-.12l-.02-.27c-.01-.19.43-.14.6-.12.07-2.72.1-5.48.02-8.27h-.22c-.06,0-.25.01-.29-.32,0-.05,0-.21.08-.21.12,0,.29-.02.42-.02-.01-2.04-.02-3.76-.03-4.51-.08-1.24-.19-2.23.08-3.15.15-.5.52-.11.62.34.08.35.22,1.09.33,1.62Z"/>
      <path class="cls-1" d="m30.87,8.32c.18,2.59.85,4.64,1.93,6.18-.22,0-.24.02-.45-.02-.11-.02-.1-.05-.16-.14-.44-1.23-2.31-1.47-3.02.08-.26,0-.25.04-.84.02.75-.97,1.93-3.91,2.13-5.96,0-.34.41-.43.41-.17h0Zm3.39,6.23c-.25-.08-.47-.36-.6-.6.03-.51.07-1.22.07-1.45.06-.72-.52-.69-.63-.17l-.12.57c-.94-1.85-1.14-3.36-1.07-5.62.14-.21.22-.55.19-.83-.09-.81-.73-.75-1.08-.82,0-.09.08-1.92.15-2.02,0-.07.41-.09.57-.11.42-.06.35-.29-.07-.43-.09-.03-.34,0-.48.04-.05-.05-.03-.23-.05-.61-.03-.53-.38-.85-.49-.05-.07.46-.07.53.01.66-.37.04-.44.02-.69.03-.43.03-.25.39.13.44.2.03.46.05.54.01.07.08-.09,1.89-.05,2.11-.52.19-.63,1.03-.65,1.62-.07,2.38-.7,3.75-1.89,5.88l-.08-.86c0-.72-.59-.68-.59-.15v1.93c-.12.19-.32.39-.51.49-.08.05-.11.07-.11.14-.01.16.03.19.05.24.01.02.04.04.07.04.09.02.36,0,.49,0,0,.79.03,1.94.02,2.73,0,1.25-.02,2.49-.04,3.74-.02,1.57-.03,3.14-.04,4.71-.01,2.1-.02,4.2,0,6.3,0,.34,0,.64,0,.76,0,.27.11.31.32.34.22.03.48.04.59.02.11-.02.23-.02.22-.29.02-.42-.03-3.52-.03-3.95,0-.69-.03-1.38-.06-2.07.96.01,3.01.02,4.38.03,0,1.67.02,3.34.02,5.01,0,.31.1.35.16.37.13-.01.45.02.61.03.06,0,.23.06.24-.27,0-.11,0-.28,0-.67,0-.66-.07-3.28-.09-4.46.23.02.29,0,.32.01.12.02.23,0,.23-.04.02-.08.04-.31.03-.4,0-.09-.09-.12-.21-.12-.17,0-.22,0-.38,0,0-1.46-.07-2.93-.09-4.39-.02-.97,0-1.94,0-2.91-.01-1.35.09-3.15.1-4.5.2-.03.39-.08.51-.11.17-.05.29-.36.11-.4h0Zm-1.49.63c-.36.05-.66.08-.91.07-.25,0-.41-.06-.53-.3-.81-1.6-1.34-.62-1.8-.04-.06.08-.22.16-.43.15-.33-.01-.75,0-.98,0,.04,1.42.04,3.59.03,5.05,0,1.09.07,2.18.06,3.27,0,1.16.03,2.28.1,3.5,1.09-.02,3.29-.04,4.4-.03,0-1.46.03-2.93.02-4.39,0-.96.03-1.92.02-2.88,0-1.2-.01-3.2.02-4.41h0Zm-1.86,5.39c-.04-.73.72-1.03.86-.07.01,1.68,0-.39,0,2.03,0,.18,0,.61-.02.79.03.17-.16.15-.17.15-.15.02-.37.04-.58.02-.11-.09-.07-.1-.08-.46,0-.35-.03-.25-.03-.6,0-.18,0-.26.01-.44,0-.86,0-1,0-1.42h0Zm-.78.07c-.05.63-.04,1.96-.03,2.6,0,.16-.12.15-.18.15-.25.01-.34,0-.48,0-.08,0-.24,0-.22-.15-.1-.81-.06-1.86.05-2.67.17-1.09.91-.75.86.08Z"/>
    </g>
  </g>
</svg>