<?xml version="1.0" encoding="UTF-8"?>
<svg id="_Шар_2" data-name="Шар 2" xmlns="http://www.w3.org/2000/svg" viewBox="0 0 56.05 70.45">
  <defs>
    <style>
      .cls-1, .cls-2 {
        fill: #231f20;
        stroke-width: 0px;
      }

      .cls-2 {
        fill-rule: evenodd;
      }
    </style>
  </defs>
  <g id="Layer_1" data-name="Layer 1">
    <g>
      <polygon class="cls-2" points="16.15 69.82 15.24 69.82 15.24 66.32 15.98 66.32 15.98 68.81 17.08 66.32 17.99 66.32 17.99 69.82 17.26 69.82 17.26 67.33 16.15 69.82"/>
      <path class="cls-2" d="m39.6,68v-1.15h-.34c-.45,0-.67.2-.67.6,0,.18.05.32.16.41.1.09.24.14.41.14h.44Zm.74-1.68v3.5h-.74v-1.29h-.49l-.61,1.29h-.82l.76-1.42c-.42-.18-.63-.5-.63-.97,0-.36.12-.64.36-.83.24-.19.59-.28,1.05-.28h1.12Z"/>
      <path class="cls-2" d="m37.19,66.32v3.5h-.74v-2.92h-.81l-.14,1.26c-.05.4-.11.72-.18.95-.15.49-.51.78-1.04.8v-.65c.18-.03.34-.12.4-.42.03-.14.07-.38.1-.7l.22-1.81h2.19Z"/>
      <polygon class="cls-2" points="21.12 66.9 20.18 66.9 20.18 69.82 19.44 69.82 19.44 66.9 18.51 66.9 18.51 66.32 21.12 66.32 21.12 66.9 21.12 66.9"/>
      <path class="cls-2" d="m13.27,68.08c.22,0,.38-.05.5-.15.11-.1.17-.26.17-.49,0-.39-.23-.59-.68-.59h-.33v1.22h.34Zm0-1.76c.45,0,.81.09,1.06.28.25.19.38.47.38.84s-.12.68-.37.88c-.25.2-.58.3-1,.3h-.4v1.19h-.74v-3.5h1.08Z"/>
      <polygon class="cls-2" points="10.75 67.92 11.73 69.82 10.91 69.82 10.12 68.27 9.73 68.27 9.73 69.82 8.98 69.82 8.98 66.32 9.73 66.32 9.73 67.72 10.14 67.72 10.9 66.32 11.64 66.32 10.75 67.92"/>
      <path class="cls-2" d="m7.27,66.88h-.62l-.05.48c-.04.41-.08.74-.13.98-.06.29-.11.57-.39.91h1.19v-2.37h0Zm1.03,2.37v1.2h-.61v-.63h-1.89v.63h-.61v-1.2h.19c.24-.26.33-.55.38-.84.04-.22.09-.56.14-1l.13-1.08h1.98v2.92h.3Z"/>
      <rect class="cls-1" x="3.91" y="66.32" width=".74" height="3.5"/>
      <path class="cls-2" d="m1.8,69.27c.23,0,.41-.03.53-.1.12-.07.18-.2.18-.39,0-.35-.22-.53-.65-.53h-.42v1.02h.35Zm-.35-2.41v.88h.36c.18,0,.32-.04.42-.11.1-.08.15-.19.15-.35s-.05-.26-.16-.33c-.1-.06-.27-.1-.49-.1h-.28Zm1.05,1.11c.24.04.43.13.57.26.15.13.22.32.22.58,0,.37-.13.63-.39.78-.26.15-.63.23-1.1.23H.7v-3.5h.96c.48,0,.84.07,1.1.21.25.14.38.37.38.68,0,.21-.06.37-.18.5-.12.13-.28.21-.46.26Z"/>
      <path class="cls-2" d="m32.76,66.88h-.62l-.05.48c-.04.41-.08.74-.13.98-.06.29-.11.57-.39.91h1.19v-2.37h0Zm1.03,2.37v1.2h-.61v-.63h-1.89v.63h-.61v-1.2h.19c.24-.26.33-.55.38-.84.04-.22.09-.56.14-1l.13-1.08h1.98v2.92h.3Z"/>
      <path class="cls-2" d="m55.1,68.8c-.15.4-.37.79-.77.96-.16.07-.45.13-.7.14v-.66c.22,0,.51-.04.66-.21l-1.22-2.7h.77l.82,1.97.65-1.97h.75l-.95,2.48Z"/>
      <rect class="cls-1" x="49.07" y="66.32" width=".74" height="3.5"/>
      <path class="cls-2" d="m46.97,69.27c.23,0,.41-.03.53-.1.12-.07.18-.2.18-.39,0-.35-.22-.53-.65-.53h-.42v1.02h.35Zm-.35-2.41v.88h.36c.18,0,.32-.04.42-.11.1-.08.15-.19.15-.35s-.05-.26-.16-.33c-.1-.06-.27-.1-.49-.1h-.28Zm1.05,1.11c.24.04.43.13.57.26.15.13.22.32.22.58,0,.37-.13.63-.39.78-.26.15-.63.23-1.1.23h-1.09v-3.5h.96c.48,0,.84.07,1.1.21.25.14.38.37.38.68,0,.21-.06.37-.18.5-.12.13-.28.21-.46.26Z"/>
      <path class="cls-2" d="m43.43,68.07c.02.53.22.85.53,1.01.31.16.74.14,1.19-.08v.64c-.59.29-1.27.22-1.75-.08-.48-.3-.73-.84-.73-1.48s.25-1.18.73-1.48c.48-.3,1.16-.37,1.75-.08v.66c-.45-.22-.88-.24-1.19-.08-.31.16-.52.45-.53.98Z"/>
      <polygon class="cls-2" points="52.84 66.9 51.9 66.9 51.9 69.82 51.15 69.82 51.15 66.9 50.22 66.9 50.22 66.32 52.84 66.32 52.84 66.9 52.84 66.9"/>
      <polygon class="cls-2" points="22.59 69.82 21.68 69.82 21.68 66.32 22.41 66.32 22.41 68.81 23.52 66.32 24.43 66.32 24.43 69.82 23.7 69.82 23.7 67.33 22.59 69.82"/>
      <path class="cls-2" d="m26.17,69.82h-.91v-3.5h.73v2.49l1.11-2.49h.91v3.5h-.73v-2.49l-1.11,2.49h0Zm.46-3.67c-.45,0-.8-.3-.84-.82h.44c.02.19.17.3.4.3s.38-.12.41-.3h.44c-.05.52-.4.82-.85.82Z"/>
      <path class="cls-1" d="m40.02,44.97h2.01c.19,0,.35.16.35.35v16.52c0,.19-.16.35-.35.35h-2.01c-.19,0-.35-.16-.35-.35v-16.52c0-.19.16-.35.35-.35Z"/>
      <path class="cls-2" d="m5.72,46.45c-.07,2.09-.12,6.19-.67,9.64-.6,3.77-2.03,6-4.59,6.15-.32,0-.42-.14-.46-.5v-1.5c0-.37.09-.53.5-.62,1.87-.4,2.64-3.24,3.07-6.35.42-3.07.42-6.37.44-7.77.03-.31.12-.54.59-.54h7.03c.19,0,.35.16.35.35v16.52c0,.19-.16.35-.35.35h-2.01c-.19,0-.35-.16-.35-.35v-15.4h-3.54Z"/>
      <path class="cls-2" d="m15.31,44.97h2.01c.19,0,.35.16.35.35v6.65h.7c3.14.02,6.72,1.11,6.79,4.94.08,4.37-3.77,5.29-6.79,5.28h-3.06c-.19,0-.35-.16-.35-.35v-16.52c0-.19.16-.35.35-.35h0Zm2.36,8.46v7.28h.7c2.08.02,3.98-1.25,3.98-3.74,0-2.48-2.23-3.54-3.98-3.54h-.7Z"/>
      <path class="cls-2" d="m27.34,44.97h4.28c2.87,0,5.08,1.52,5.03,4.26-.03,2.08-2,3.41-2.71,3.67,1.99.47,3.57,2.11,3.6,4.22.06,3.73-3.53,5.1-6.62,5.09h-3.58c-.19-.01-.35-.17-.35-.36v-16.52c0-.19.16-.35.35-.35h0Zm2.36,1.46v5.99l.8.02c1.75.04,3.38-1.02,3.37-3.14,0-1.97-1.65-2.87-3.34-2.87h-.83Zm0,7.45v6.84h1.17c2,0,3.75-1.11,3.75-3.55,0-2.38-1.82-3.29-3.98-3.29h-.93Z"/>
      <path class="cls-2" d="m45.84,44.97h4.28c2.87,0,5.08,1.52,5.03,4.26-.03,2.08-2,3.41-2.71,3.67,1.99.47,3.57,2.11,3.6,4.22.06,3.73-3.53,5.1-6.62,5.09h-3.58c-.19-.01-.35-.17-.35-.36v-16.52c0-.19.16-.35.35-.35h0Zm2.36,1.46v5.99l.8.02c1.75.04,3.38-1.02,3.37-3.14,0-1.97-1.65-2.87-3.34-2.87h-.83Zm0,7.45v6.84h1.17c2,0,3.75-1.11,3.75-3.55,0-2.38-1.82-3.29-3.98-3.29h-.93Z"/>
      <path class="cls-2" d="m46.66,39.79c0,.27.09.37.19.42.06.03.12.03.15.03.62.02.82.12.82-.39,0-1.09-.02-2.97-.04-3.92-.01-.8,0-1.6-.02-2.4-.04-2.53-.17-5.07-.12-7.6.49,0,1.02.02,1.51.02-.08.05-.15,0-.17.44-.05,1.21-.05,2.81-.04,4.07,0,.92,0,1.85,0,2.78.02,2.01-.05,4.27-.05,6.27,0,.38-.05,1.26-.04,1.63-.04.35.25.4.25.4.15-.01.36-.01.55-.02.22-.01.23-.02.24-.38,0-.11-.02-.34-.02-.6,0-.73.01-2.21.01-2.94,0-.38-.01-.76-.01-1.14,0-.73,0-1.47,0-2.2,0-.87-.03-1.73-.04-2.6,0-.35-.01-.69-.02-1.04,0-.71-.01-1.42-.02-2.14,0-.72.05-1.75.04-2.51.52.01,1.02.03,1.45.06,0,.39-.01.85-.01,1.09,0,1.95-.18,3.9-.2,5.85-.01.9,0,1.8,0,2.7-.01,1.22-.02,3.03.04,4.2.02.46.08.42.21.44.16,0,.35.03.51.02.11,0,.35.05.33-.35,0-.74-.06-1.66-.05-2.39.01-1.03.02-2.05.04-3.08.02-.84.04-1.68.05-2.52.03-1.95.03-3.91,0-5.86v-.05c.1,0,.17,0,.18,0,.19,0,.5-.03.87-.05,0,.87-.03,1.68-.03,2.54,0,1.72,0,3.43-.01,5.14,0,.79,0,1.58,0,2.37-.01,1.07-.01,2.7.03,3.73.02.4.06.42.14.49.14,0,.47-.04.6-.04.17-.05.23-.09.22-.35,0-.65-.03-1.49-.02-2.13,0-.9.02-1.81.04-2.71.03-1.69.06-3.38.06-5.08,0-2.29-.06-4.51-.01-6.81,0-.37.01-.93.01-1.42.32-.02.55-.02.73-.06.12-.03.21-.16.21-.25,0-.17.04-.22-.14-.3-.54-.17-1.15-1.22-1.38-1.83-.61-1.61-1.9-2.02-2.61-2.2-.04-.28.08-1.12.13-2,.17-.17.2-.38.2-.71,0-.41-.25-.87-.67-.97h0c0-.65.01-1.53.13-1.97-.02-.29.49-.19.82-.19.48,0,.49-.39.07-.47-.19-.04-.64-.02-.82-.03-.11-.42.02-.56.11-1.2.13-.92-.43-.98-.6-.16.04.3-.17,1.33-.21,1.35-.32,0-.79-.01-.98.09-.26.15-.24.39.03.44.1.02.42-.02.69.01.34-.01.29,0,.29.11,0,.43,0,1.28,0,1.92-.43.1-1.4,1.15-.87,1.65.4.38.25,1.41.27,2.06-1.94.69-2.47,2.69-3.38,4.16-.07.11-.19.15-.29.18-.24.06-.23.38.14.4.16.01.31.02.47.03v.05c-.04,1.18,0,2.35,0,3.52-.1,0-.35.01-.46.02-.09,0-.09.14-.09.2,0,.26.09.33.22.35.05,0,.27,0,.32,0-.02.51-.04,1.03-.05,1.51,0,.63,0,1.69,0,2.32,0,.33.01.66.02.99,0,.63,0,1.27.02,1.9.01.75.04,1.49.06,2.24,0,.3.02.6.02.9.01.61.02,1.23.03,1.84.01.64-.05,1.49-.04,2.15h0Zm5.14-16.78c-.03-.51-.41-.84-.85-1.08.82-.01,1.58-.04,2.41-.1v.45c-.02.88-.06,1.76-.08,2.65,0,.15,0,.3,0,.45-.35,0-.64-.06-.99-.06-.86,0-3.65,0-4.63,0,.03-1.15.04-2.32.08-3.45.73.03,1.47.05,2.19.06-.35.22-.62.65-.78,1.02-.27.64-.19,1.23.75,1.65,1.19.53,1.87-.51,1.88-1.58h0Zm1.63-1.8c-.21,0-.67,0-.87.01-.44,0-.9-.03-1.34-.03-1.49.02-2.75.02-4.09.02,1-.7,1.27-2.74,2.1-3.36.4-.3.97-.4,1.27-.38.71.05,1.37.89,1.7,1.51.54,1.03.7,1.69,1.23,2.22Z"/>
      <path class="cls-2" d="m26.88,28.75c.47,0,1.31,0,2.11,0,0-.03,0-.05,0-.08.05-1.37-.1-3.4-.02-4.77,0-.04-.04-.17.23-.17.13,0,.59,0,.72.02.19,0,.21.06.21.18.03,2.42.05,3.6-.02,4.83.95,0,1.83.02,2.52.03,0-1.01,0-2.03-.01-3.04-.01-1.82.11-3.66.1-5.48,0-.66.06-8.43.03-8.43-1.98-.13-3.8.11-6.02.17-.13,4.23-.06,11.36.14,16.75h0Zm6.9-12.4c.03,5.25.09,10.49.1,15.74,0,2.52.01,5.05,0,7.57,0,.75,0,1.07,0,1.28,0,.5-.14.49-.27.52-.23,0-.49,0-.74-.02-.1,0-.24-.09-.21-.56-.08-3.83-.02-7.67-.03-11.5-1.34.11-4.06.26-5.74.19.03,1.65.06,3.25.03,4.9-.02,1.45-.13,2.93-.13,4.38,0,.28,0,.84-.01,1.11.06.36-.72.27-.76.27-.06,0-.29-.03-.29-.26,0-.08,0-.19,0-.37-.01-.92,0-1.85,0-2.77.01-1.92.08-3.84.1-5.76,0-.09,0-.59,0-1.47-.18,0-.3,0-.32.01-.1.01-.23-.02-.23-.05-.02-.1-.02-.58-.01-.69,0-.07.09-.11.23-.11.12,0,.23,0,.34,0-.01-4.81-.05-15.56-.05-16.65-.93.02-.85-1.46-.4-1.44.42-.06,1.69-.41,2.12-.57-.52-.15-1.77.16-2.27-.03-.24-.09-.27-.31-.34-.52-.32-1,.07-.7.59-.79.97-.01,2.04-.15,2.98-.05.31-.65.85-1.6.71-2.27-.18-.9-.38-2.68-.45-3.09-.1-.7.34-.63.58-.65.19-.01.94-.05,1.45-.12.52-.07,1.9-.55,2.11.04.13.03-.01.89.18,1.03.07.17.06.87-.12.97-.21-.02-.88.13-1.25.02-.63-.02-1.41-.06-2,.01.04.75.27,1.55.21,2.1.29.28,1.31,1.57,1.47,2.06.14.02.72.07,1.48.02.16-.93,1.12-.91,1.1.05.46.06.77.1.87.36.05.14-.14,1.32-.23,1.99-.08.64-.38.5-.72.58-.05,0-.08,4.18-.08,4.54h0Zm-2.99-.15c.75.57.95,1.92.52,2.65-.07.12-.47.64-.72.73-.67.23-1.39.17-1.84-.11-.42-.26-1.04-1.51-.83-2.02.38-.9,1.66-2.18,2.87-1.26Z"/>
      <path class="cls-2" d="m5.14,25.17c-.29-.02-.74,0-1.04,0-.07-.87.03-2.3-.06-3.18.2.02.5.03.73-.01.2,1.31.4,2.94.37,3.2h0Zm5.02-.06c-.21,0-.66.01-.94-.01,0-.25-.06-1.8,0-3.2.25.03.57,0,.83,0,.06,1.09.13,2.13.1,3.22h0Zm0,.66c.04,4.82.15,9.64.18,14.46,0,.1.11.13.2.13.03,0,.54.08.63-.03.11,0,.05-.23.05-.32.02-4.75-.03-9.55-.07-14.3l.31-.02c.2,0,.25-.4.23-.5,0-.04-.04-.09-.11-.11-.13-.04-.3,0-.4-.03-.07-2.05,0-3.82-.35-5.37-.18-.82-.3-1.42-.52-2.24-.21-.77-.62-.98-.81-.75-.3.35-.55,2.74-.69,3.03-.2.41-.27,2-.33,2.27-.07-.26-.62-1.97-1.03-2.77.09-.5.03-1.18.08-1.69.05-.58.1-1.27-.43-1.44.04-.91.08-1.4.06-1.53.06-.06.37,0,.56-.05.29.11.32-.42,0-.5-.11-.03-.48-.05-.52-.09.05-.49-.04-.84-.05-1.33-.02-.75-.38-.73-.49.02-.06.44.06.81.07,1.26-.2-.03-.71.07-.88.12-.29.12-.2.41.02.43.23.01.62-.03.81-.02,0,.09-.03.8-.06,1.89-.18.25-.34.67-.4.96-.16.77-.09,1.24-.09,2.07-.25,1-.58,2.96-.66,3.35-.03-1-.45-2.86-.49-3.04-.28-1.25-.4-1.7-.5-2-.29-.9-.71-.22-.9.68-.24,1.1-.34,1.99-.37,3.05-.23.02-.38-.01-.42.09-.06.14-.01.41.12.43.09.01.18.04.31.03-.17,4.48-.04,9.08-.06,13.52,0,1.88-.02,3.77,0,5.65,0,.27-.01.23.19.26.22.03.69.07.79.05.11-.02.2,0,.19-.27.02-.42-.03-1.41-.03-1.84,0-2.66-.18-5.28-.16-7.94,0-1.18,0-2.37,0-3.55,0-.64-.06-1.28-.06-1.99h1.06c-.06,2.81-.1,5.65-.13,8.46-.02,2.03.11,4.96.12,6.99,0,.18.06.21.23.23.14.01.45.02.58.02.1,0,.17-.06.16-.14,0-.43-.06-1.75-.06-2.05,0-2.03-.25-4.05-.23-6.07,0-.93,0-1.87,0-2.8,0-1.22,0-3.41.07-4.64h2.52c.02,2.08-.01,4.09,0,6.17.02,1.85.05,3.7.06,5.55,0,.64.06,1.02.08,1.8,0,.09.03.09.13.09l.57.04c.1,0,.11-.03.11-.12.02-1.2-.11-2.56-.12-3.71,0-.89,0-1.78,0-2.67-.02-1.93,0-3.86,0-5.79,0-.32,0-.94-.01-1.35h.93Zm-.87-4.43c.03-.36.09-.71.18-1.06.15-.6.38-1.04.5.44,0,.02.03.25.05.6-.24-.01-.48,0-.73.02h0Zm-5.4.04c-.01-.23.04-1.14.12-1.84.1-.76.13-.94.35.21.16.83.37,1.66.37,1.67-.28-.02-.64-.02-.85-.04h0Zm4.6,3.75c-.76.01-2.01.04-2.54.06-.02-.89.69-4.91.95-4.82.6.46,1.41,3.71,1.6,4.76h0Zm-1.71,4.25c-.05-.89.78-1.25.93-.08.02,2.03,0,2.36,0,5.29,0,.22.07,1.8.05,2.02.04.2-.18.16-.18.16-.21,0-.46.02-.67,0-.13,0-.2.05-.21-.21-.08-1.56-.13-5.22.07-7.19Z"/>
      <path class="cls-2" d="m16.17,11.63h4.14c-.04-.62-.43-1.49-.89-1.9-.68-.61-1.6-.7-2.15-.35-.46.28-.7.63-.88,1.19-.06.2-.18.84-.21,1.07h0Zm3.12,3.69c0-.6.14-.88.46-.88.32,0,.54.42.52,1.01-.03,1.05-.08,1.78-.09,2.48.27,0,1.04,0,1.65-.02.04-2.08.08-3.57.08-3.73,0-.51-.01-1.18.01-1.76-.11.02-.36.01-.55,0-2.54.21-4.62.23-6.81-.16.06.91.28,3.09.31,5.7l1.41-.02c.04-.82.21-1.78.19-2.65-.01-.67.29-1.11.56-1.14.3-.03.44.37.45.95.02.78-.06,2.01-.07,2.83.79,0,1.5-.01,1.85-.02.02-.81.04-1.79.05-2.62h0Zm.86,17.68c.04-.97-.37-1.53-.75-1.43-.26.07-.58.41-.67,1.28-.01,1.84-.09,5.27-.08,7-.06.37.24.33.35.33.19,0,.94.04,1.06.04.12,0,.15,0,.15-.26,0-.11,0-.35,0-.71,0-.77-.02-5.28-.05-6.25h0Zm-2.79-.15c.03-.92-.29-1.34-.61-1.32-.25.02-.68.22-.76,1.16-.02,3.76-.13-.04-.13,5.39,0,.41.01,1.41.02,1.81-.03.23.09.27.16.28.07,0,.74.01,1,.02.2,0,.23-.04.24-.25,0-.11,0-.23,0-.61,0-1.63.1-4.87.07-6.48h0Zm1.67-10.34c.02-1.44,1.11-2.03,1.22-.15,0,2.17-.1,4.06-.04,6.5.38,0,1-.02,1.36-.04.04-1.97.15-4.38.16-6.67,0-1.22.07-2.39.09-3.6-2.28.09-4.66.02-6.94.12.04,3.4-.1,6.81-.12,10.21.47,0,.83,0,1.32,0,0-.58-.02-1.16-.02-1.74,0-5.14-.01-1.67,0-5.23.09-.96.37-1.01.65-.97.31.04.54.3.51,1.12.03,1.53.07,4.59.06,6.13,0,.43,0,.6,0,.7.45,0,1.14,0,1.58,0,0-.11,0-.29,0-.67,0-.76.14-4.75.17-5.71h0Zm-4.13-11.51c.13-.13.29-.61.32-.68.52-1.39,1.63-1.8,2.26-2.11.02-.69.05-1.62.08-2.07.04-.65-.3-.79-.06-1.26.11-.21.55-.49.59-.49.03-.66.05-1.55-.03-1.94.03-.26-.43-.2-.73-.21-.43-.02-.42-.46-.03-.51.15-.02.49,0,.68.01h0s.03-.06.06-.06h.03c.09-.32.02-.46-.02-1.01-.06-.84.47-.85.57-.11-.05.27.05,1.19.09,1.21.29.02.68.03.85.13.23.14.19.44-.06.47-.09.01-.3-.04-.54-.02-.31-.03-.26-.02-.26.08-.02.39-.06,1.29-.08,1.95h0c.63.17,1.08,1.05.61,1.6-.24.29-.18.15-.18.6,0,.21-.03.97-.03,1.59.72.4,1.85.7,2.78,2.46.04-.83-.04-1.75.04-2.67.09-1.01.7-.8.82-.03.18,1.14.24,2.37.28,3.52.14.02.35,0,.52.08.12.06.1.36.03.45-.14.18-.4.31-.54.38.03,1.72.01,3.84.02,5.53.14,0,.29,0,.39,0,.21,0,.2.18.18.32-.02.13-.08.19-.21.21-.13.02-.22.03-.34.03.02,5.35.03,14.88.04,15.28,0,.46,0,.93,0,1.39,0,.24.01,2.75.01,2.99,0,.46-.02,1.24-.04,1.7,0,.2.1.47-.15.47h-1.1c-.14,0-.16,0-.17-.15-.12-3.01,0-4.77-.04-7.05,0-.16-.02-1.62.03-3.66-2.23.07-4.58.05-6.81.05-.03,3.92-.18,7.74-.36,11.62.02.15-.04.19-.16.21-.23.04-.61.05-.63.05-.06,0-.22,0-.21-.25.1-3.18.21-6.42.21-9.61,0-.71.06-1.31.05-2.02-.13,0-.35,0-.43,0-.1,0-.28.05-.28-.14l-.02-.34c-.02-.24.53-.17.74-.15.09-3.34.13-6.74.02-10.17h-.27c-.07,0-.31.02-.36-.4,0-.06,0-.26.1-.26.15,0,.36-.03.52-.03-.01-2.51-.03-4.62-.04-5.55-.09-1.53-.23-2.74.1-3.87.18-.62.63-.14.76.42.1.43.28,1.34.4,1.99Z"/>
      <path class="cls-2" d="m40.72,10.23c.22,3.18,1.05,5.7,2.37,7.6-.27.01-.29.02-.56-.02-.13-.02-.13-.06-.2-.17-.54-1.51-2.84-1.81-3.71.1-.32,0-.31.05-1.03.03.92-1.19,2.37-4.8,2.61-7.33,0-.42.51-.53.51-.2h0Zm4.17,7.66c-.3-.09-.58-.44-.74-.74.03-.63.09-1.5.09-1.78.07-.89-.64-.84-.78-.21l-.15.7c-1.15-2.28-1.41-4.13-1.32-6.91.17-.26.27-.68.23-1.02-.11-1-.9-.92-1.33-1.01,0-.12.1-2.36.18-2.49,0-.08.5-.11.69-.14.51-.07.43-.35-.08-.52-.12-.04-.41,0-.58.05-.06-.06-.04-.28-.06-.75-.03-.65-.46-1.05-.6-.07-.08.56-.08.65.01.81-.46.05-.54.02-.85.04-.53.04-.31.48.16.54.24.03.57.06.67.02.08.1-.11,2.33-.06,2.59-.64.23-.78,1.26-.8,2-.08,2.93-.86,4.61-2.33,7.23l-.09-1.05c0-.89-.73-.83-.73-.18v2.37c-.15.24-.4.47-.63.61-.1.06-.13.08-.14.17-.02.2.03.23.06.29.01.03.05.04.09.05.12.02.44,0,.61,0,0,.98.03,2.38.03,3.36-.01,1.53-.02,3.07-.04,4.6-.03,1.94-.04,3.86-.05,5.79-.01,2.58-.02,5.17,0,7.75,0,.42-.01.78,0,.93,0,.33.14.38.39.42.27.04.59.05.72.03.13-.02.28-.02.26-.35.02-.51-.03-4.33-.03-4.85,0-.85-.04-1.7-.08-2.54,1.18.02,3.7.03,5.38.04,0,2.05.02,4.11.02,6.17,0,.38.12.43.2.46.16-.02.56.03.75.03.08,0,.28.08.29-.33,0-.13,0-.35,0-.83,0-.81-.09-4.04-.11-5.48.28.02.36.01.4.02.15.02.28,0,.28-.05.02-.1.05-.38.04-.49,0-.12-.12-.15-.25-.14-.21,0-.27,0-.47,0,0-1.8-.09-3.6-.12-5.4-.02-1.19.01-2.38,0-3.57-.02-1.66.11-3.87.12-5.53.24-.04.49-.1.63-.14.21-.06.36-.44.13-.5h0Zm-1.84.78c-.44.06-.82.1-1.12.09-.3,0-.5-.07-.65-.37-1-1.96-1.65-.76-2.21-.04-.08.1-.27.2-.53.19-.4-.01-.92,0-1.21,0,.05,1.74.05,4.42.04,6.21,0,1.34.09,2.69.08,4.02-.01,1.43.04,2.8.12,4.3,1.34-.02,4.05-.05,5.41-.04,0-1.8.04-3.6.02-5.4-.01-1.18.03-2.36.03-3.54-.01-1.48-.01-3.93.03-5.42h0Zm-2.28,6.63c-.05-.9.89-1.27,1.06-.09.02,2.06,0-.48,0,2.5,0,.23,0,.75-.02.97.04.21-.2.18-.2.18-.19.03-.46.05-.72.03-.13-.12-.09-.12-.1-.57,0-.43-.04-.3-.04-.74,0-.23.01-.32.01-.54,0-1.06,0-1.24,0-1.74h0Zm-.96.08c-.07.78-.04,2.41-.04,3.2,0,.19-.15.19-.22.19-.31.01-.42,0-.59-.01-.09,0-.29,0-.27-.19-.12-1-.07-2.29.07-3.29.2-1.34,1.12-.92,1.06.1Z"/>
    </g>
  </g>
</svg>