<?xml version="1.0" encoding="UTF-8"?>
<svg id="_Шар_2" data-name="Шар 2" xmlns="http://www.w3.org/2000/svg" viewBox="0 0 410 147.9">
  <defs>
    <style>
      .cls-1 {
        fill: #231f20;
        stroke-width: 0px;
      }
    </style>
  </defs>
  <g id="Layer_1" data-name="Layer 1">
    <g>
      <g>
        <path class="cls-1" d="m.63,72.84v-19.98h3.03v19.98H.63Z"/>
        <path class="cls-1" d="m19.99,72.84v-8.73h-8.08v8.73h-3.03v-19.98h3.03v8.56h8.08v-8.56h3.06v19.98h-3.06Z"/>
        <path class="cls-1" d="m34.69,73.01c-2.08,0-3.87-.76-5.25-2.13-1.96-1.96-1.94-4.18-1.94-8.03s-.03-6.06,1.94-8.03c1.38-1.38,3.17-2.13,5.25-2.13,3.68,0,6.43,2.16,7.13,6.15h-3.09c-.48-2.02-1.82-3.42-4.04-3.42-1.18,0-2.25.45-2.95,1.21-.98,1.07-1.21,2.22-1.21,6.23s.22,5.16,1.21,6.23c.7.76,1.77,1.21,2.95,1.21,2.22,0,3.59-1.4,4.07-3.42h3.06c-.67,3.98-3.51,6.14-7.13,6.14Z"/>
        <path class="cls-1" d="m52.33,55.59v17.26h-3.03v-17.26h-5.5v-2.72h14.03v2.72h-5.5Z"/>
        <path class="cls-1" d="m72.99,72.84v-14.51l-8.95,14.51h-2.75v-19.98h3.03v14.48l8.92-14.48h2.78v19.98h-3.03Z"/>
        <path class="cls-1" d="m87.99,55.59v17.26h-3.03v-17.26h-5.5v-2.72h14.03v2.72h-5.5Z"/>
        <path class="cls-1" d="m102.84,69.59c-.79,1.82-2.05,3.25-4.21,3.25h-2.08v-2.72h1.43c1.21,0,1.88-.53,2.33-1.6l.7-1.63-6.48-14.03h3.2l4.77,10.69,4.29-10.69h3.2l-7.16,16.72Z"/>
        <path class="cls-1" d="m119.53,55.59v17.26h-3.03v-17.26h-5.5v-2.72h14.03v2.72h-5.5Z"/>
      </g>
      <g>
        <path class="cls-1" d="m7.18,106.68c-2.08,0-3.87-.76-5.25-2.13C-.03,102.58,0,100.37,0,96.52s-.03-6.06,1.94-8.03c1.38-1.38,3.17-2.13,5.25-2.13,3.68,0,6.43,2.16,7.13,6.15h-3.09c-.48-2.02-1.82-3.42-4.04-3.42-1.18,0-2.25.45-2.95,1.21-.98,1.07-1.21,2.22-1.21,6.23s.22,5.16,1.21,6.23c.7.76,1.77,1.21,2.95,1.21,2.22,0,3.59-1.4,4.07-3.42h3.06c-.67,3.98-3.51,6.14-7.13,6.14Z"/>
        <path class="cls-1" d="m24.83,89.25v17.26h-3.03v-17.26h-5.5v-2.72h14.03v2.72h-5.5Z"/>
        <path class="cls-1" d="m41.36,98.65h-4.55v7.86h-3.03v-19.98h7.58c3.79,0,6.4,2.47,6.4,6.06s-2.61,6.06-6.4,6.06Zm-.2-9.4h-4.35v6.68h4.35c2.19,0,3.56-1.29,3.56-3.34s-1.38-3.34-3.56-3.34Z"/>
        <path class="cls-1" d="m61.53,106.51l-1.4-4.01h-7.89l-1.4,4.01h-3.2l7.32-19.98h2.44l7.3,19.98h-3.17Zm-5.28-15.46l-3.14,8.87h6.2l-3.06-8.87Z"/>
        <path class="cls-1" d="m72.64,89.25v17.26h-3.03v-17.26h-5.5v-2.72h14.03v2.72h-5.5Z"/>
        <path class="cls-1" d="m81.59,106.51v-19.98h12.8v2.72h-9.76v5.84h8.31v2.69h-8.31v6h9.76v2.72h-12.8Z"/>
        <path class="cls-1" d="m101.68,89.25v17.26h-3.03v-19.98h12.29v2.72h-9.26Z"/>
        <path class="cls-1" d="m114.36,106.51v-19.98h3.03v19.98h-3.03Z"/>
        <path class="cls-1" d="m119.72,84.31v-3.03h2.58v3.03h-2.58Zm2.89,22.2v-19.98h3.03v19.98h-3.03Zm3.17-22.2v-3.03h2.58v3.03h-2.58Z"/>
      </g>
      <g>
        <path class="cls-1" d="m.63,140.18v-19.98h3.03v9.48l7.46-9.48h3.73l-7.69,9.43,8.39,10.55h-3.84l-8.05-10.44v10.44H.63Z"/>
        <path class="cls-1" d="m23.94,136.92c-.79,1.82-2.05,3.25-4.21,3.25h-2.08v-2.72h1.43c1.21,0,1.88-.53,2.33-1.6l.7-1.63-6.48-14.03h3.2l4.77,10.69,4.29-10.69h3.2l-7.16,16.72Z"/>
        <path class="cls-1" d="m44.14,140.18v-17.26h-5.75v6.31c0,8.39-2.02,10.94-6.03,10.94h-1.26v-2.72h.53c2.22,0,3.82-1.4,3.82-8.64v-8.62h11.73v19.98h-3.03Z"/>
        <path class="cls-1" d="m60.08,140.18h-7.66v-19.98h3.03v7.86h4.63c3.82,0,6.34,2.47,6.34,6.06s-2.55,6.06-6.34,6.06Zm-.25-9.4h-4.38v6.68h4.38c2.22,0,3.54-1.26,3.54-3.34s-1.32-3.34-3.54-3.34Z"/>
        <path class="cls-1" d="m75.43,122.92v17.26h-3.03v-17.26h-5.5v-2.72h14.03v2.72h-5.5Z"/>
        <path class="cls-1" d="m90.27,136.92c-.79,1.82-2.05,3.25-4.21,3.25h-2.08v-2.72h1.43c1.21,0,1.88-.53,2.33-1.6l.7-1.63-6.48-14.03h3.2l4.77,10.69,4.29-10.69h3.2l-7.16,16.72Z"/>
        <path class="cls-1" d="m107.78,132.32h-4.55v7.86h-3.03v-19.98h7.58c3.79,0,6.4,2.47,6.4,6.06s-2.61,6.06-6.4,6.06Zm-.2-9.4h-4.35v6.68h4.35c2.19,0,3.56-1.29,3.56-3.34s-1.38-3.34-3.56-3.34Z"/>
        <path class="cls-1" d="m129.55,140.18v-14.51l-8.95,14.51h-2.75v-19.98h3.03v14.48l8.92-14.48h2.78v19.98h-3.03Z"/>
      </g>
      <path class="cls-1" d="m184.57,12.73c-.3-3.78,1.26-6.53,4.45-8.47.37-.22.62-.63.94-.93,2.02-1.9,4.3-3.1,7.18-3.23,4.41-.18,8.8-.14,13.17.51,1.41.21,2.44.75,3.34,1.95,1,1.33,2.69,2.16,3.58,3.53,1.91,2.96,4.03,5.94,3.44,9.83-.08.51.1,1.06.15,1.59.04.53.26,1.16.06,1.58-1.75,3.61-4.28,6.66-7.89,8.4-1.86.89-4.18.88-6.31,1.19-1.52.22-2.95-.09-4.46-.59-1.79-.59-3.82-.39-5.69-.79-2.87-.61-5.77-1.23-7.78-3.71-1.57-1.94-3.35-3.77-3.8-6.35-.26-1.48-.27-3.01-.39-4.51Zm9.44,4.04c1.21.05,1.59-.24,1.28-1.05-.05-.13-.25-.2-.39-.29-.26.38-.51.77-.89,1.34Zm3.48-10.39c.16.13.32.25.47.38.28-.38.56-.75.84-1.13l-.36-.28c-.32.34-.64.68-.95,1.02Zm-7.34,9.17c-.16-.2-.3-.44-.35-.42-.21.07-.39.22-.58.34.1.13.21.36.29.35.21-.03.41-.16.64-.27Z"/>
      <path class="cls-1" d="m387.34,57.84c1.68-.51,1.87-2.88,2.94-3.58s2.42-.06,2.42,0-1.75,1.47-1.94,1.92-.78,1.34-1.07,1.66c-.29.32-3.2,1.34-3.2,1.34l.85-1.34Z"/>
      <path class="cls-1" d="m409.43,81.15c-.33-4.63-1.81-25.68-2.68-28.44-.48-1.55-2.07-2.87-3.81-3.11-2.19-.3-4.43-.14-6.65-.18-.62,0-1.27.1-1.86-.03-2.32-.52-4.59-.4-6.95-.14-2.79.3-4.95,4.83-6.72,6.94-3.56,4.26-7.36,8.33-10.93,12.59-1.83,2.18-3.71,3.73-5.29,6.15-.53,2.76-.06,5.7-.24,8.33.27.18.55.36.81.57.67.55,1.26,1.22,1.78,1.95.29.15.64.22.87.45,1.94,2.01,3.52,3.41,4.93,5.32,1.75,2.37,3.98,4.37,5.9,6.63,2.22,2.61,6.71,9.04,6.83,9.17,1.52,1.7,2.39,3.56,3.1,5.48.18.48.58,1.52.24,1.99-.82,1.14-1.94,1.16-4.96,1.34-3.59.21-7.19.06-10.78.27-2.26.13-2.89.38-4.54-1.52-.95-1.08-1.53-2.45-2.47-3.54-2.74-3.19-5.49-6.36-7.85-9.85-.15-.21-.3-.42-.46-.63-.25-.28-.49-.56-.7-.88-.06-.1-.09-.15-.13-.2-.05-.06-.1-.13-.15-.19-.3-.34-.6-.68-.92-1.01-.6-.62-1.23-1.22-1.83-1.84-1.28-1.32-2.45-2.77-3.43-4.32-1.54,0-1.03-.15-2.73-.04-.98.06-2.33.05-3.25.41-1,.38-1.19,1.96-1.23,3.05-.1,2.69-.33,5.4-.14,8.07.24,3.33-.18,6.45-1.74,9.4-.24.46-.53,1.05-.95,1.24-2.2,1-4.37,2.2-6.91,2.07-2.78-.14-5.56-.31-8.33-.46-.95-.05-1.64-.52-1.51-1.49.4-3.1-1.17-6.23.13-9.32.16-.38,0-.89-.03-1.34-.11-1.69-.33-3.38-.33-5.07-.01-5.1.67-10.18.66-15.29,0-1.63.09-3.17-.52-4.73-.23-.6,0-1.4.06-2.1.1-1.05.33-2.1.34-3.15.03-2.32-.21-4.65-.03-6.95.08-1.05.01-2.18.26-3.22-.1-.46-.16-.92-.16-1.38,0-.9.21-1.7.5-2.44-.15-.38-.33-.74-.41-1.14-.21-1.02-.33-2.17-.34-3.23,0-.68-.33-2.75.11-.27-.32-1.8-.1-3.61.65-5.12-.52-.23-1.05-.44-1.6-.58-4.17-1.07-8.28-2.25-12.73-1.69-4.18.52-8.42.52-12.63.81-.58.04-1.14.41-1.78.65-.04.72-.15,1.35-.1,1.96.2,2.29.5,4.5.27,6.87-.28,2.79-1.12,5.2-2.59,7.45-.79,1.2-1.99,1.77-3.53,1.25-.84-.29-1.78-.7-2.61-.58-3.28.48-6.54,1.11-9.79,1.75-1.22.24-2.39.82-3.61.94-3.57.36-6.18,3.58-5.46,7.25.2,1.01-.03,2.13-.15,3.19-.14,1.32-.45,2.63-.55,3.96-.12,1.58.42,3.21-.46,4.75-.17.31.04.87.15,1.3.45,1.74.88,3.49,1.42,5.21.58,1.86,1.68,3.35,3.49,4.23,1.53.74,3.04,1.53,4.58,2.26.64.31,1.31.73,1.98.76,3.3.18,6.64.58,9.91.25,2.82-.28,5.53.06,8.3.15,1.23.04,2.1.55,2.1,1.93,0,2.32.13,4.66-.05,6.97-.09,1.09-.39,1.7-.98,2.09-.19,1.84-1.66,2.85-3.5,2.96-.14,0-.25-.02-.37-.04-.35.24-.77.42-1.31.42-.14,0-.24-.06-.37-.07-.22.09-.45.1-.67.1-.42.17-.88.26-1.42.14-.39-.08-.78-.14-1.16-.2-.05,0-.08.03-.13.03h-.39c-.1,0-.17-.04-.26-.05-1.4.54-2.96.54-4.43.37-6.79-.76-13.62.17-20.41-.81-3.36-.49-6.48-1.12-8.87-3.75-3.75-4.13-6.77-8.59-6.92-14.44-.03-1.24-.08-2.5-.33-3.71-.68-3.26-1.25-6.48-.26-9.79.2-.67.09-1.75-.34-2.21-.75-.8-.74-1.53-.56-2.45.57-2.85.7-5.7-.12-8.54-.16-.58-.27-1.32-.04-1.83.73-1.6,1.18-3.16.67-4.93-.14-.47,0-1.12.23-1.58,1.06-2.14,1.23-4.47,1.64-6.77.74-4.13-.28-5.56-4.53-6.04-1.03-.12-2.16-.38-2.99-.94-1.43-.97-2.77-1.07-4.31-.43-3.42,1.42-6.96,1.5-10.59,1.03-2.14-.27-4.3-.41-6.45-.4-.82,0-2.24.43-2.35.9-.35,1.55-1.41,3.01-.45,4.85.61,1.17.93,2.95.48,4.11-.71,1.86-.4,3.42-.07,5.22.58,3.14,1.07,6.3.19,9.56-.61,2.25-1.63,4.66.05,6.98.18.25.08.7.09,1.06.1,4.75.23,9.49.29,14.24.02,1.33-.16,2.65-.22,3.98-.11,2.33-.51,4.71-.21,6.98.34,2.57-.44,4.83-1.18,7.09-.55,1.66-1.51,3.41-3.6,3.63-2.85.3-5.73.64-8.59.58-2.66-.05-5.3-.6-7.95-.93-1.57-.2-2.32-1.22-2.65-2.66-.18-.79-.1-1.84-.59-2.31-1.76-1.72-1.52-3.7-1.19-5.78.07-.43.07-.93-.1-1.32-.58-1.33-.09-3.17-1.85-3.94-.38-2.28-.95-4.56-1.08-6.86-.12-2.03.39-4.09.36-6.14-.05-3.29-.25-6.58-.52-9.85-.18-2.25-1.38-4.4-.56-6.76.13-.37-.15-.87-.18-1.32-.26-3.98-1.42-7.94-.21-11.94.15-.51.13-1.07.16-1.61.13-3.19-1.78-5.22-4.98-5.36-6.08-.26-12.15-.55-18.58-.84-.13.56-.34,1.06-.35,1.57-.05,2.76-.01,5.52-.1,8.27-.05,1.57-.66,3.06-.21,4.71.45,1.65.43,3.37-.4,4.98-.15.3-.19.7-.16,1.04.18,2.23.28,4.47.62,6.68.47,3.05.19,6.09-.11,9.08-.35,3.52-.5,6.98.7,10.29.95,2.6.95,5.2,1.01,7.88.05,2.05.39,4.1.74,6.13.39,2.27.98,4.5,1.4,6.76.55,2.92,1.08,5.83,3.47,7.95.19.17.43.45.41.67-.19,3.22,3.4,4.83,3.39,7.97,0,.26.43.56.71.78,1.87,1.51,3.76,3,5.63,4.51.49.39,1.07.74,1.38,1.25.67,1.11,1.71,1.52,2.83,1.93,1.15.43,2.27.95,3.05,1.28.79-.24,1.4-.65,1.79-.49,1.1.43,2.12.89,3.35.45.36-.13.91.05,1.28.26,1.22.69,2.37.6,3.59-.03.45-.23,1.1-.35,1.57-.22,1.72.48,3.45.97,5.08,1.68,1.98.86,2.87.85,4.31-.69.42-.45.62-1.1.92-1.65,1.36.71,2.3,1.22,3.06,1.02,2.6-.68,5.08-.71,7.53.46.16.07.35.11.53.1,3.3-.05,6.61-.06,9.91-.16,2.22-.07,4.48-.76,6.59.56.21.13.57.21.78.13,1.82-.74,3.66-.11,5.48-.09.34,0,.8.03,1-.17,1.2-1.2,2.4-.91,3.67-.16.3.18.68.28,1.03.3,3.11.17,6.22.23,9.32.51,1.74.16,3.61-.16,5.17,1.14.38.32,1.36.43,1.75.17,1.8-1.23,3.69-.94,5.67-.77,1.31.11,2.72-.5,3.99-.28,3.76.66,7.45.25,11.17-.24.7-.09,1.43.05,2.15.08,1.07.05,2.14.06,3.21.14,3.09.24,6.31-.71,9.25,1.04.33.2.96.22,1.29.03.82-.46,1.59.09,2.22,0,2.23-.31,4.42-.6,6.66-.16.13.03.31-.16.46-.26,1.3-.86,2.61-.64,3.79.16,1.16.79,2.28.72,3.59.45,2-.41,4.05-.66,6.1-.77,2.32-.12,4.69.28,6.95-.08,3.68-.58,7.29-.65,10.95.03.84.16,1.76-.16,2.64-.23,1.67-.12,3.37-.42,5.02-.25.52.05,1.05.24,1.59.46.02,0,.03,0,.05,0,.58,0,1.14.1,1.69.24.81-.19,1.63-.27,2.46-.1.86-.21,1.77-.31,2.73-.31.07-.07.16-.13.23-.21.81-.86,1.68-1.23,2.84-1.22,1.78.02,3.58.09,5.33-.18,2.48-.38,4.91-1.06,7.36-1.61,2.27-.51,4.55-1.43,6.82-1.44,2.66-.01,5.09-.81,7.62-1.25,1.44-.25,2.71-.7,3.81-1.76.55-.53,1.44-.7,2.17-1.04.4-.18,1.03-.27,1.17-.58.88-1.85,2.2-2.03,3.44-3.43.59-.66,1.95-2.12,2.42-2.83,2.85-4.38,2.96-4.89,4.69-9.82,1.05-3,2.12-13.91,2.2-16.22.1-3.16-.35-21-.56-23.97Zm-31.25,9.23c.94.06,1.74.11,2.69.18.08.8.14,1.44.24,2.47-1.47-.72-2.72-.84-2.93-2.65Zm3.22,1.25q1.36-1.26,2.87-.86c-.56,1.16-1.45.89-2.87.86Zm6.34-5.56c-.19-.03-.31-.48-.47-.74.29-.14.57-.35.88-.4.1-.02.27.36.5.69-.37.2-.67.49-.92.44Zm-215.47-7.8c.36.34-1.09,5.11-2.3,8.82-.43.46-.86.91-1.3,1.36,1.53-5.05,3.28-10.49,3.6-10.18Zm1.17,13.29c-1.67.51-1.87,2.88-2.94,3.58-1.07.7-2.42.06-2.42,0s1.75-1.47,1.94-1.92c.19-.45.78-1.34,1.07-1.66s3.2-1.34,3.2-1.34l-.85,1.34Zm3.67,22.82c-.25-.16-.46-.42-.61-.69-.02-.04.37-.45.47-.42.27.1.49.35.84.62-.34.24-.63.53-.7.48Zm2.3-3.93s-.44-.02-.68-.03c.05-.52.09-1.03.14-1.55.27.05.54.09.82.13-.08.49-.14.98-.27,1.45Zm.66-3.34c.78-2.98,1.51-5.77,3.82-7.84,1.5,2.11,1.39,3.32-.05,4.8-.83.85-1.37,1.97-2.2,3.19-.26-.02-.84-.08-1.57-.15Zm7.29-2.16l-4.27,5.82s-1.23.65-1.23.45.65-1.42.78-1.62c.13-.19.32-.16.84-1.5.52-1.34,1.49-2.31,1.68-2.51.19-.19,2.2-1.81,2.2-1.81v1.16Zm8.97,25.87c-.13.19-.32.16-.84,1.5-.52,1.34-1.49,2.31-1.68,2.51s-2.2,1.81-2.2,1.81v-1.16l4.27-5.82s1.23-.65,1.23-.45-.65,1.42-.78,1.62Zm21.43,9.51c-.33-.18-.58-.59-.75-.95-.06-.12.28-.61.37-.59.45.09.95.21,1.3.48.29.22.41.68.8,1.37-.83-.13-1.34-.11-1.72-.31Zm12.89-61.59c.18-.27,3.34-4.59,3.34-4.59-.19.36-9.46,17.38-9.91,16.7-.45-.68,6.39-11.84,6.57-12.11Zm-6.91,29.7c.12-.3.39-.55.65-.76.04-.03.35.26.7.54-.41.34-.71.59-1.01.83-.12-.21-.39-.48-.33-.62Zm3.61,32.11c-.05.28-.84.64-1.26.61-.56-.05-1.09-.45-1.94-.84,1.1-1.46,1.47-3.01,3.09-3.71,1.02,1.43.31,2.72.11,3.94Zm-1.53-37.48c1.33-.48,1.92-.14,2.23,1-1.1.65-1.62.13-2.23-1Zm4.09-16.22c-.31-.46,4.35-8.06,4.47-8.24.12-.18,2.27-3.12,2.27-3.12-.13.25-6.44,11.82-6.74,11.36Zm6.5,52.23c-.19.27-.55.43-1.32,1,0-.9-.14-1.4.04-1.74.21-.42.64-.78,1.06-1,.17-.09.83.33.82.4-.13.47-.32.94-.6,1.34Zm8.06,2.09c-1.09-.02-1.9-.39-2.02-1.69.66-.6,1.36-1.23,2.23-2.02.43.29.8.42,1,.68.45.58,1.22,1.29,1.13,1.84-.19,1.16-1.33,1.21-2.34,1.19Zm10.15-13.28c-.43.65-2.7,2.81-2.76,3.35-.06.54-1.89,4-1.89,4,0,0-.97-.65-.86-.97.11-.32,1.62-4.03,1.62-4.03l3.89-4.41,1.08-.76s-.65,2.16-1.08,2.81Zm39.81,3.86c-1.14,2.13-2.16,4.32-3.29,6.45-1.36,2.55-3.37,2.85-5.98.59.51-.92.9-1.8,1.44-2.57,1.22-1.75,2.5-3.45,3.77-5.17.31-.42.64-.84,1.01-1.22.72-.74,1.47-1.46,2.01-1.99,1.28-.52,2.37-.95,3.67-1.47.74.52,1.19,1.23.26,2.23-.49.52-1.04.98-1.52,1.51s-1.04,1.03-1.36,1.64Zm1.79,6.83c-.17-.14-.23-.76-.08-.9.65-.66,1.36-.66,2.17.29-.7.68-1.26,1.26-2.09.61Zm1.82-13.79c-.14.01-.31-.31-.47-.49.26-.18.51-.44.8-.52.13-.04.36.28.71.57-.45.2-.73.41-1.04.43Zm1.51,11.15c-.05.03-.48-.35-.45-.46.08-.27.32-.5.57-.87.27.35.57.62.53.7-.15.26-.4.47-.66.63Zm.81-43.36c-.03-.22-.05-.43-.08-.65.48-.05.96-.11,1.45-.17.03.16.05.32.08.48-.48.11-.97.22-1.45.34Zm7.38,18.24c-.33-.77-.57-1.33-.87-2.03.48-.04.81-.16.93-.05.65.56.86,1.18-.07,2.09Zm-.81-16.35c1.14,2.31-.68,3.83-2.03,6.07-2.06-2.93-.04-4.76.89-6.67.66-1.35,1.69-1.43,3.98-.72-.48,1.43-2.02.3-2.84,1.32Zm7.33,10.51c.34-1.48.12-2.95,1.87-3.62.53-.2.82-1.05,1.5-1.98.19,1.2.33,2.06.49,3.09-1.46.43-1.75,2.58-3.85,2.5Zm1.12,11.98c.87-1.24.95-3.03,3.22-3.34.59,1.91,1.58,3.58-.14,5.46-1.07-.73-1.99-1.37-3.08-2.12Zm3.82,16.47c-.15-.88-.27-1.63-.4-2.37.12-.09.24-.19.37-.28.37.35.92.63,1.07,1.05.23.68.02,1.34-1.04,1.6Zm9.47,8.89c-2.22.46-2.58.41-4.36-.75q.94-1.98,5.68-3.29c1.48,2.04.99,3.55-1.32,4.03Zm11.1-.53c-1.11.09-2.14.17-3.12.25q-1.03-2.85,1.21-4.25c.81-.51,1.6-1.04,2.98-1.96-.43,2.36-.73,4.08-1.07,5.96Zm1.17-7.23c-.22-.09-.44-.19-.66-.28.2-.42.38-.85.6-1.26.01-.02.42.13.42.15-.1.47-.24.93-.37,1.39Zm7.52-11.29c-.82,1.01-1.28,1.58-1.8,2.22q-.39-1.7,1.8-2.22Zm.75,16.12c-1.43.72-2.94,2.82-5.75,2.19,1.37-3.78,4.48-6.24,6.76-9.43.4,1.03.75,1.96,1.01,2.63-.65,1.48-1.23,2.79-2.02,4.6Zm9.76-2.29c-1.32.77-1.34-1.3-1.83-1.32-1.58-.07-1.11,2.1-2.6,1.39-.13-2.28-.26-4.55-.4-6.98,2.46-.21,3.97.71,4.83,2.58v4.32Zm-.43-12.21c-1.06-.05-1.64-.32-1.44-1.45.35-1.88.58-2.13,2.49-2.08-.39,1.32-.71,2.39-1.05,3.53Zm7.1,8.05q-.51-1.85.88-2.68c.19,1.07-.35,1.77-.88,2.68Zm-3.3-19.2c.41.09.8.26,1.19.41-.08.21-.16.42-.24.63-.42-.14-.83-.29-1.25-.43.1-.21.25-.62.3-.61Zm-.11,7.68c.88-1.35,1.78-.86,2.83-.48-.79.82-1.58,1-2.83.48Zm3.98,4.83c-.74,1.39-1.7,1.31-2.9.95.64-1.59,1.55-1.67,2.9-.95Zm-2.57,13.52c.26-1.07.49-2.04.73-3.03,1.74-.55,2.8.06,3.73,1.95-1.65.23-2.61,1.62-4.46,1.08Zm9.64-11.85c-.89.09-1.13-.52-1.2-1.47.95-.27,1.54-.07,1.71.74.05.21-.31.71-.51.73Zm16.79-34.49c.29.41.58.81.87,1.22-.21.13-.41.26-.62.39-.21-.46-.42-.93-.63-1.39.13-.07.25-.15.38-.22Zm-5.35,26.69c.41-.2,1.06-.19,1.47,0,.26.12.42.77.38,1.16-.19,1.89-.95,2.65-2.65,2.77-.69-2.12-.49-3.3.8-3.93Zm-.48,13.2c.12-.29.15-.58.3-.67.65-.4,1.29-.47,2.04.67h-2.35Zm2.65-4.58c1.46-1.86,1.54-1.85,3.77.12-1.34,1.64-2.51-.41-3.77-.12Zm3.63-2.01c-.98-2.14-.65-2.8,1.65-2.83-.65,1.11-1.13,1.94-1.65,2.83Z"/>
    </g>
  </g>
</svg>