<?xml version="1.0" encoding="UTF-8"?>
<svg id="_Шар_2" data-name="Шар 2" xmlns="http://www.w3.org/2000/svg" viewBox="0 0 54.13 72.04">
  <defs>
    <style>
      .cls-1, .cls-2 {
        fill: #231f20;
        stroke-width: 0px;
      }

      .cls-2 {
        fill-rule: evenodd;
      }
    </style>
  </defs>
  <g id="Layer_1" data-name="Layer 1">
    <g>
      <path class="cls-2" d="m1.1,46.39h2.07c.2,0,.36.16.36.36v15.66l7.69-.72c.25-.02.39.05.39.34v1.77c0,.2-.16.36-.36.36H1.09c-.19,0-.35-.16-.35-.35h0v-17.05c0-.2.16-.36.36-.36Z"/>
      <path class="cls-2" d="m12.21,46.39h2.25c.2,0,.3.17.36.36l4.69,14.08,3.95-14.08c.05-.19.16-.36.36-.36h1.99c.2,0,.42.17.36.36l-5.64,17.04c-.06.19-.22.36-.42.36h-2.2c-.2,0-.36-.17-.42-.36l-5.64-17.04c-.06-.19.16-.36.36-.36Z"/>
      <path class="cls-2" d="m39.17,46.39h2.25c.2,0,.3.17.36.36l4.69,14.08,3.95-14.08c.05-.19.16-.36.36-.36h1.99c.2,0,.42.17.36.36l-5.64,17.04c-.06.19-.22.36-.42.36h-2.2c-.2,0-.36-.17-.42-.36l-5.64-17.04c-.06-.19.16-.36.36-.36Z"/>
      <path class="cls-1" d="m31.46,46.39h2.07c.2,0,.36.16.36.36v17.05c0,.2-.16.36-.36.36h-2.07c-.2,0-.36-.16-.36-.36v-17.05c0-.2.16-.36.36-.36Z"/>
      <path class="cls-2" d="m51.13,68.91v2.48h.31c.3,0,.52-.09.69-.27.16-.18.24-.51.24-.98,0-.33-.04-.58-.12-.76-.08-.18-.19-.3-.33-.37-.14-.06-.3-.1-.5-.1h-.3Zm.18-.56c.56,0,1.01.13,1.35.38.34.26.51.72.51,1.41s-.17,1.14-.5,1.41c-.33.27-.76.41-1.28.41h-1.03v-3.61h.94Z"/>
      <polygon class="cls-2" points="48.35 71.34 49.78 71.34 49.78 71.96 47.58 71.96 47.58 68.35 48.35 68.35 48.35 71.34"/>
      <path class="cls-2" d="m44.83,70h.4c.21,0,.36-.05.46-.14.1-.09.16-.24.16-.44,0-.18-.05-.32-.16-.4-.11-.09-.28-.13-.51-.13h-.34v1.11h0Zm.39.54h-.39v1.41h-.77v-3.61h1.13c.48,0,.85.09,1.09.27.24.18.36.45.36.81,0,.24-.06.44-.17.59-.11.15-.29.28-.54.39l.93,1.55h-.87l-.77-1.41Z"/>
      <path class="cls-2" d="m41.75,68.84c-.26,0-.46.1-.6.31-.13.21-.2.54-.2,1s.07.79.2,1c.14.21.33.31.59.31s.46-.1.59-.31c.13-.21.2-.54.2-1s-.07-.8-.2-1c-.13-.21-.33-.31-.59-.31h0Zm0-.57c.33,0,.62.07.86.22.24.15.42.36.55.64.13.28.19.62.19,1.02s-.06.73-.19,1.01c-.13.28-.31.5-.55.65-.24.15-.52.22-.86.22s-.62-.07-.86-.22c-.24-.15-.43-.36-.56-.65-.13-.28-.19-.62-.19-1.02s.07-.73.2-1.01c.13-.28.32-.5.56-.65.24-.15.53-.23.85-.23Z"/>
      <polygon class="cls-2" points="38.99 71.96 37.99 71.96 37.49 69.28 36.97 71.96 36 71.96 35.31 68.35 36.08 68.35 36.55 71.19 37.1 68.35 37.9 68.35 38.43 71.22 38.95 68.35 39.68 68.35 38.99 71.96"/>
      <polygon class="cls-2" points="28.97 70.38 27.77 70.38 27.77 71.96 27.01 71.96 27.01 68.35 27.77 68.35 27.77 69.77 28.97 69.77 28.97 68.35 29.73 68.35 29.73 71.96 28.97 71.96 28.97 70.38"/>
      <path class="cls-2" d="m20.11,68.84c-.26,0-.46.1-.6.31-.13.21-.2.54-.2,1s.07.79.2,1c.14.21.33.31.59.31s.46-.1.59-.31c.13-.21.2-.54.2-1s-.07-.8-.2-1c-.13-.21-.33-.31-.59-.31h0Zm0-.57c.33,0,.62.07.86.22.24.15.42.36.55.64.13.28.19.62.19,1.02s-.06.73-.19,1.01c-.13.28-.31.5-.55.65-.24.15-.52.22-.86.22s-.62-.07-.86-.22c-.24-.15-.43-.36-.56-.65-.13-.28-.19-.62-.19-1.02s.07-.73.2-1.01c.13-.28.32-.5.56-.65.24-.15.53-.23.85-.23Z"/>
      <polygon class="cls-2" points="9.4 68.91 8.02 68.91 8.02 69.84 9.15 69.84 9.15 70.4 8.02 70.4 8.02 71.39 9.4 71.39 9.4 71.96 7.25 71.96 7.25 68.35 9.4 68.35 9.4 68.91"/>
      <path class="cls-2" d="m5.11,70.16c.22,0,.39-.05.51-.15.12-.1.18-.27.18-.5,0-.41-.23-.61-.7-.61h-.34v1.26h.35Zm0-1.81c.47,0,.83.1,1.09.29.26.19.39.48.39.87s-.13.71-.39.91c-.26.2-.6.31-1.03.31h-.41v1.23h-.77v-3.61h1.12Z"/>
      <path class="cls-2" d="m1.74,68.84c-.26,0-.46.1-.6.31-.13.21-.2.54-.2,1s.07.79.2,1c.14.21.33.31.59.31s.46-.1.59-.31c.13-.21.2-.54.2-1s-.07-.8-.2-1c-.13-.21-.33-.31-.59-.31h0Zm0-.57c.33,0,.62.07.86.22.24.15.42.36.55.64.13.28.19.62.19,1.02s-.06.73-.19,1.01c-.13.28-.31.5-.55.65-.24.15-.52.22-.86.22s-.62-.07-.86-.22c-.24-.15-.43-.36-.56-.65-.13-.28-.19-.62-.19-1.02s.07-.73.2-1.01c.13-.28.32-.5.56-.65.24-.15.53-.23.85-.23Z"/>
      <polygon class="cls-2" points="10.85 71.96 10.16 71.96 10.16 68.35 11.12 68.35 12.25 70.99 12.24 68.35 12.94 68.35 12.94 71.96 11.95 71.96 10.85 69.36 10.85 71.96"/>
      <polygon class="cls-2" points="18.1 68.95 17.13 68.95 17.13 71.96 16.36 71.96 16.36 68.95 15.4 68.95 15.4 68.35 18.1 68.35 18.1 68.95 18.1 68.95"/>
      <polygon class="cls-2" points="26.46 68.95 25.49 68.95 25.49 71.96 24.73 71.96 24.73 68.95 23.77 68.95 23.77 68.35 26.46 68.35 26.46 68.95 26.46 68.95"/>
      <polygon class="cls-2" points="32.84 68.91 31.46 68.91 31.46 69.84 32.6 69.84 32.6 70.4 31.46 70.4 31.46 71.39 32.84 71.39 32.84 71.96 30.69 71.96 30.69 68.35 32.84 68.35 32.84 68.91"/>
      <path class="cls-2" d="m45.27,41.05c0,.28.1.39.2.43.06.03.12.03.16.03.63.02.84.13.84-.4,0-1.13-.02-3.07-.04-4.04-.01-.82,0-1.65-.02-2.47-.05-2.61-.18-5.23-.13-7.83.5,0,1.06.02,1.56.02-.08.05-.15,0-.17.45-.05,1.25-.05,2.9-.04,4.2,0,.95,0,1.91,0,2.86.02,2.07-.05,4.4-.05,6.47,0,.39-.05,1.3-.04,1.69-.04.36.25.41.26.41.16-.01.37-.01.57-.02.23-.01.24-.02.25-.39,0-.11-.03-.35-.02-.62,0-.75.01-2.28.01-3.04,0-.39-.01-.79-.01-1.18,0-.76,0-1.51,0-2.27,0-.9-.03-1.79-.05-2.68,0-.36-.02-.71-.02-1.07,0-.73-.01-1.47-.02-2.2,0-.74.05-1.81.04-2.59.53.01,1.06.04,1.5.06,0,.4-.01.87-.01,1.13,0,2.01-.19,4.02-.21,6.03-.01.92,0,1.86,0,2.78-.01,1.26-.02,3.12.04,4.34.02.47.08.43.22.45.16.01.36.03.53.02.11,0,.36.05.34-.36,0-.77-.06-1.72-.05-2.46.01-1.06.02-2.12.05-3.18.02-.87.04-1.73.05-2.6.03-2.01.03-4.03,0-6.04v-.05c.11,0,.17,0,.19,0,.2,0,.52-.03.89-.05,0,.9-.03,1.74-.03,2.62,0,1.77,0,3.54-.01,5.31,0,.81,0,1.63,0,2.45-.01,1.11-.01,2.78.03,3.85.02.42.06.44.14.5.14,0,.49-.04.62-.05.18-.05.24-.09.22-.36,0-.67-.03-1.54-.02-2.19,0-.93.02-1.87.04-2.8.03-1.74.06-3.49.06-5.24,0-2.36-.06-4.65-.02-7.03,0-.39.01-.95.01-1.47.33-.02.57-.02.76-.07.12-.03.21-.17.22-.26,0-.18.04-.23-.14-.31-.56-.18-1.19-1.26-1.43-1.89-.63-1.67-1.96-2.09-2.69-2.27-.04-.29.08-1.15.14-2.06.18-.18.21-.4.21-.74,0-.42-.26-.9-.69-1h0c0-.67.01-1.58.14-2.04-.02-.3.5-.2.85-.19.49,0,.51-.41.07-.49-.2-.04-.66-.02-.85-.03-.11-.43.02-.58.11-1.24.13-.95-.45-1.01-.62-.16.04.31-.18,1.37-.22,1.39-.33,0-.81-.02-1.02.1-.27.15-.25.41.03.46.1.02.43-.03.71.01.35-.01.3,0,.29.11,0,.44,0,1.32,0,1.98-.44.1-1.45,1.19-.9,1.7.41.39.26,1.46.27,2.13-2.01.71-2.54,2.77-3.49,4.29-.07.11-.19.16-.3.18-.25.06-.24.39.14.42.16.01.32.02.48.03v.05c-.04,1.21,0,2.42,0,3.63-.1,0-.36.02-.47.02-.09,0-.09.14-.1.2,0,.27.1.34.22.36.05,0,.28,0,.33,0-.02.53-.04,1.06-.05,1.56,0,.65,0,1.74,0,2.39,0,.34.01.68.02,1.02,0,.65,0,1.31.02,1.96.01.77.04,1.54.06,2.31,0,.31.02.62.03.92.01.63.02,1.27.03,1.9.01.66-.05,1.54-.04,2.22h0Zm5.3-17.31c-.03-.53-.43-.87-.88-1.12.85-.01,1.63-.04,2.49-.1v.47c-.02.91-.06,1.82-.08,2.73,0,.16,0,.31,0,.47-.36,0-.66-.07-1.02-.07-.88,0-3.77,0-4.77,0,.03-1.18.04-2.39.09-3.55.75.03,1.51.06,2.26.06-.37.23-.64.68-.8,1.05-.28.66-.2,1.27.78,1.7,1.23.55,1.93-.52,1.94-1.63h0Zm1.69-1.86c-.21,0-.69.01-.89.01-.46,0-.93-.03-1.38-.03-1.54.02-2.84.02-4.22.02,1.03-.73,1.31-2.82,2.17-3.47.41-.31,1-.42,1.31-.39.73.06,1.42.92,1.76,1.56.55,1.06.72,1.74,1.26,2.29Z"/>
      <path class="cls-2" d="m24.87,29.65c.48,0,1.35,0,2.17,0,0-.03,0-.06,0-.08.05-1.41-.11-3.51-.02-4.92,0-.04-.04-.17.24-.17.14,0,.61,0,.74.02.19,0,.22.06.22.18.03,2.49.05,3.72-.02,4.98.98,0,1.89.02,2.6.03,0-1.05,0-2.09-.01-3.14-.01-1.88.12-3.78.11-5.66,0-.68.06-8.7.03-8.7-2.04-.14-3.92.11-6.21.18-.14,4.36-.06,11.72.15,17.28h0Zm7.11-12.79c.03,5.41.09,10.82.11,16.24,0,2.6.01,5.21,0,7.81,0,.77,0,1.11,0,1.32,0,.52-.15.51-.28.53-.23,0-.51,0-.76-.02-.1,0-.25-.09-.22-.58-.08-3.95-.02-7.91-.03-11.86-1.39.11-4.19.27-5.93.2.03,1.71.06,3.35.04,5.06-.02,1.5-.14,3.02-.14,4.52,0,.28,0,.86-.01,1.14.07.37-.74.28-.78.28-.07,0-.3-.03-.3-.27,0-.08,0-.2,0-.38-.01-.95,0-1.91,0-2.86.01-1.98.08-3.96.11-5.94,0-.09,0-.61,0-1.51-.19,0-.31,0-.33.01-.11.01-.24-.02-.24-.05-.02-.1-.02-.6-.01-.71,0-.07.09-.12.24-.11.12,0,.23,0,.35,0-.01-4.96-.05-16.05-.05-17.18-.96.02-.87-1.5-.41-1.49.44-.06,1.74-.43,2.19-.59-.54-.15-1.83.16-2.34-.03-.25-.09-.28-.32-.35-.54-.33-1.03.08-.72.61-.81,1-.01,2.11-.15,3.08-.05.32-.67.88-1.65.73-2.34-.19-.93-.4-2.77-.46-3.19-.1-.72.35-.65.6-.68.2-.01.97-.05,1.49-.12.53-.07,1.96-.57,2.18.04.14.03-.01.92.19,1.07.08.17.06.9-.13,1-.22-.02-.91.14-1.29.02-.65-.02-1.45-.06-2.07.01.04.77.28,1.59.22,2.17.29.29,1.35,1.62,1.52,2.12.14.02.74.07,1.52.02.17-.96,1.16-.94,1.13.05.48.07.8.11.9.37.05.14-.15,1.36-.24,2.06-.09.66-.39.52-.75.6-.05,0-.08,4.32-.08,4.68h0Zm-3.09-.15c.77.59.98,1.98.54,2.74-.07.12-.48.66-.75.75-.69.24-1.43.18-1.9-.11-.44-.27-1.07-1.56-.85-2.08.39-.93,1.72-2.25,2.96-1.3Z"/>
      <path class="cls-2" d="m2.44,25.97c-.3-.02-.76,0-1.07,0-.07-.89.03-2.38-.06-3.28.2.02.52.03.75-.01.21,1.36.42,3.03.38,3.3h0Zm5.18-.06c-.22,0-.68.02-.97-.01,0-.26-.06-1.85,0-3.3.26.03.59,0,.86,0,.06,1.12.13,2.2.1,3.32h0Zm0,.68c.04,4.97.15,9.94.19,14.92,0,.1.11.14.21.14.03,0,.56.08.65-.03.11,0,.06-.24.06-.33.02-4.9-.03-9.86-.07-14.75l.32-.02c.21,0,.26-.42.24-.52,0-.04-.04-.09-.11-.11-.14-.04-.31,0-.41-.03-.07-2.12,0-3.94-.36-5.54-.19-.85-.31-1.47-.54-2.31-.22-.8-.64-1.01-.83-.78-.31.36-.57,2.83-.71,3.12-.21.42-.28,2.07-.34,2.34-.07-.27-.63-2.03-1.06-2.85.09-.51.03-1.22.08-1.74.06-.59.11-1.31-.44-1.48.04-.94.08-1.44.06-1.58.06-.06.39,0,.58-.05.3.11.33-.43,0-.52-.11-.03-.49-.05-.53-.09.05-.5-.04-.86-.05-1.37-.02-.78-.4-.75-.5.02-.06.45.07.84.07,1.3-.21-.03-.74.08-.9.12-.3.12-.21.42.02.44.24.02.64-.03.84-.02,0,.09-.03.83-.06,1.95-.18.25-.35.69-.41.99-.17.8-.09,1.28-.09,2.13-.26,1.03-.6,3.06-.68,3.46-.03-1.03-.47-2.95-.51-3.13-.29-1.29-.41-1.76-.51-2.07-.3-.93-.73-.23-.93.7-.24,1.13-.36,2.06-.38,3.15-.24.02-.39-.01-.43.09-.06.14-.01.43.12.45.09.01.19.04.32.03-.18,4.62-.05,9.36-.06,13.94,0,1.94-.02,3.88,0,5.83,0,.28-.01.23.2.26.23.03.71.07.81.05.11-.02.2,0,.19-.28.02-.43-.03-1.46-.03-1.9,0-2.75-.19-5.45-.17-8.2,0-1.22,0-2.45,0-3.67,0-.66-.06-1.32-.06-2.06h1.09c-.07,2.9-.11,5.82-.13,8.73-.02,2.09.11,5.12.12,7.21,0,.19.06.22.24.23.15.01.47.02.6.02.1,0,.17-.06.17-.14,0-.44-.06-1.81-.06-2.11,0-2.09-.26-4.18-.24-6.27,0-.96,0-1.93,0-2.89,0-1.26,0-3.52.07-4.78h2.6c.02,2.14-.01,4.22,0,6.36.02,1.91.05,3.82.06,5.72,0,.66.07,1.06.08,1.85,0,.1.03.09.13.09l.59.04c.1,0,.11-.03.11-.12.02-1.24-.12-2.64-.12-3.83,0-.92,0-1.84,0-2.75-.02-1.99-.01-3.98,0-5.97,0-.33,0-.97-.01-1.4h.96Zm-.9-4.57c.03-.37.09-.73.18-1.09.16-.62.39-1.07.52.45,0,.02.03.26.05.62-.24-.01-.5,0-.75.02h0Zm-5.57.05c-.01-.24.04-1.17.13-1.9.1-.79.13-.97.36.22.17.85.38,1.72.38,1.72-.29-.02-.66-.03-.87-.04h0Zm4.75,3.86c-.79.01-2.07.05-2.62.06-.02-.91.71-5.06.98-4.97.62.47,1.46,3.83,1.65,4.91h0Zm-1.76,4.38c-.05-.91.81-1.29.96-.09.02,2.09,0,2.44,0,5.46,0,.23.07,1.86.05,2.08.04.21-.18.17-.19.17-.22,0-.48.02-.69,0-.13,0-.2.06-.22-.22-.08-1.61-.13-5.38.07-7.41Z"/>
      <path class="cls-2" d="m13.83,12h4.27c-.05-.64-.45-1.53-.92-1.96-.7-.63-1.65-.72-2.22-.37-.47.29-.72.65-.91,1.23-.07.2-.18.86-.22,1.1h0Zm3.22,3.8c0-.62.15-.9.47-.91.33,0,.55.43.53,1.04-.04,1.08-.09,1.83-.09,2.56.28,0,1.07,0,1.7-.02.04-2.14.09-3.68.08-3.85,0-.53-.01-1.22.01-1.81-.12.02-.38.01-.57,0-2.62.22-4.76.24-7.03-.16.06.94.29,3.19.32,5.88l1.45-.02c.04-.85.21-1.84.19-2.74-.01-.69.3-1.15.58-1.17.31-.03.46.38.47.98.02.8-.06,2.08-.07,2.92.82,0,1.55-.01,1.9-.02.02-.83.05-1.84.05-2.7h0Zm.89,18.23c.04-1-.38-1.58-.78-1.48-.27.07-.6.42-.7,1.32-.01,1.9-.09,5.44-.08,7.22-.06.39.24.34.36.34.19,0,.97.04,1.1.04.12,0,.16,0,.15-.26,0-.12,0-.37,0-.73,0-.8-.02-5.45-.05-6.45h0Zm-2.88-.16c.03-.95-.3-1.38-.63-1.36-.25.02-.7.22-.78,1.2-.02,3.88-.14-.04-.14,5.56,0,.42.01,1.45.03,1.87-.03.24.09.28.17.29.07,0,.76.01,1.04.02.2,0,.24-.04.25-.26,0-.11,0-.24,0-.63,0-1.68.1-5.02.07-6.68h0Zm1.72-10.67c.02-1.48,1.15-2.09,1.26-.16,0,2.24-.1,4.19-.04,6.71.39,0,1.03-.02,1.41-.04.04-2.04.15-4.52.17-6.88,0-1.26.08-2.46.09-3.72-2.35.1-4.8.03-7.16.13.04,3.51-.11,7.02-.13,10.53.48,0,.85,0,1.36,0,0-.6-.02-1.2-.02-1.8,0-5.31-.01-1.72,0-5.39.09-.99.39-1.04.67-1,.32.04.55.31.52,1.16.03,1.58.07,4.73.06,6.32,0,.44,0,.62,0,.72.46,0,1.18,0,1.63,0,0-.11,0-.3,0-.69,0-.79.14-4.9.18-5.89h0Zm-4.26-11.88c.14-.13.3-.63.33-.71.54-1.43,1.68-1.86,2.33-2.18.02-.71.05-1.67.08-2.14.04-.67-.31-.81-.06-1.3.11-.21.57-.5.61-.5.03-.69.05-1.6-.03-2,.03-.27-.44-.2-.75-.22-.45-.02-.43-.47-.03-.52.16-.02.5,0,.7.01h0s.03-.06.06-.06h.03c.09-.33.02-.48-.02-1.04-.07-.86.48-.88.59-.11-.06.28.05,1.23.09,1.25.3.02.7.03.88.14.24.15.2.46-.06.49-.09.01-.31-.04-.56-.02-.32-.03-.27-.02-.27.09-.02.4-.06,1.33-.09,2.01h0c.64.18,1.11,1.08.63,1.65-.25.3-.19.15-.19.62,0,.22-.03,1-.03,1.65.74.41,1.9.73,2.87,2.53.04-.86-.04-1.8.04-2.76.09-1.05.72-.82.85-.03.18,1.17.24,2.45.29,3.63.15.02.36,0,.54.08.13.06.1.37.03.46-.15.19-.41.32-.55.39.03,1.77.01,3.96.02,5.71.14,0,.3,0,.4,0,.21,0,.21.19.18.33-.02.14-.08.2-.22.21-.13.02-.22.03-.36.04.02,5.51.03,15.35.04,15.77,0,.48,0,.96,0,1.43,0,.25.01,2.84.01,3.09,0,.48-.02,1.28-.04,1.75,0,.21.11.49-.16.49h-1.14c-.14,0-.16,0-.17-.15-.13-3.11,0-4.92-.04-7.27,0-.17-.02-1.67.03-3.77-2.3.07-4.73.06-7.02.05-.03,4.04-.19,7.98-.37,11.99.02.15-.05.2-.16.22-.24.04-.63.05-.65.05-.06,0-.23,0-.22-.26.11-3.28.22-6.62.21-9.91,0-.74.06-1.35.06-2.08-.13,0-.36,0-.45,0-.11,0-.29.05-.29-.15l-.03-.35c-.02-.25.55-.18.76-.16.09-3.45.13-6.95.02-10.49h-.28c-.08,0-.31.02-.37-.41,0-.06-.01-.27.11-.27.16,0,.37-.03.54-.03-.01-2.59-.03-4.77-.04-5.73-.1-1.58-.24-2.83.11-3.99.19-.64.66-.14.79.43.1.45.28,1.38.42,2.06Z"/>
      <path class="cls-2" d="m39.15,10.55c.23,3.28,1.08,5.88,2.44,7.84-.28.01-.3.02-.57-.03-.14-.03-.13-.06-.2-.17-.56-1.56-2.93-1.87-3.82.11-.33,0-.32.05-1.06.03.95-1.23,2.45-4.96,2.7-7.56.01-.43.52-.54.52-.21h0Zm4.3,7.9c-.31-.1-.6-.45-.77-.76.03-.65.09-1.54.09-1.84.07-.91-.66-.87-.8-.21l-.16.73c-1.19-2.35-1.45-4.26-1.36-7.13.17-.27.27-.7.23-1.05-.11-1.03-.93-.95-1.37-1.04,0-.12.11-2.43.19-2.57,0-.09.52-.11.72-.14.53-.08.44-.36-.08-.54-.12-.04-.43,0-.6.05-.06-.06-.04-.29-.07-.78-.03-.67-.48-1.08-.62-.07-.08.58-.08.67.01.84-.47.05-.56.02-.88.04-.54.04-.32.49.16.56.25.03.58.06.69.02.08.11-.11,2.4-.06,2.68-.66.24-.8,1.3-.82,2.06-.08,3.02-.89,4.75-2.4,7.46l-.1-1.09c0-.91-.75-.86-.75-.19v2.45c-.15.24-.41.49-.65.62-.1.06-.13.09-.14.18-.02.2.03.24.06.3.01.03.05.05.09.05.12.02.46,0,.62,0,0,1.01.03,2.46.03,3.46-.01,1.58-.02,3.16-.04,4.74-.03,2-.04,3.98-.05,5.97-.01,2.66-.02,5.33,0,7.99,0,.44-.01.81-.01.96,0,.34.14.4.4.44.28.04.61.05.74.03.14-.02.29-.02.27-.36.02-.53-.03-4.47-.03-5.01,0-.88-.04-1.75-.08-2.62,1.22.02,3.81.03,5.55.04,0,2.12.02,4.24.03,6.36,0,.39.12.45.2.47.16-.02.58.03.77.03.08,0,.29.08.3-.34,0-.14,0-.36,0-.85,0-.83-.09-4.17-.11-5.66.29.02.37.01.41.02.16.02.29,0,.29-.06.02-.1.05-.4.04-.51,0-.12-.12-.15-.26-.15-.22,0-.28,0-.48,0,0-1.86-.09-3.71-.12-5.57-.02-1.23.01-2.46,0-3.69-.02-1.71.12-3.99.12-5.7.25-.04.5-.1.65-.14.22-.06.37-.45.14-.51h0Zm-1.89.8c-.46.06-.84.1-1.15.09-.31,0-.52-.07-.68-.39-1.03-2.02-1.7-.78-2.28-.05-.08.1-.28.2-.55.19-.41-.02-.95,0-1.24,0,.05,1.8.05,4.56.04,6.41-.01,1.38.09,2.77.08,4.15-.01,1.47.04,2.89.12,4.44,1.38-.02,4.18-.05,5.58-.04,0-1.86.04-3.71.02-5.57-.01-1.21.04-2.43.03-3.65-.01-1.53-.01-4.06.03-5.6h0Zm-2.35,6.84c-.05-.93.92-1.31,1.09-.09.02,2.13,0-.5,0,2.58,0,.23-.01.77-.02,1,.04.21-.21.18-.21.19-.2.03-.47.05-.74.03-.14-.12-.09-.13-.1-.59,0-.45-.04-.31-.04-.76,0-.23.01-.33.01-.56,0-1.09,0-1.27,0-1.79h0Zm-.99.09c-.07.8-.05,2.48-.04,3.3,0,.2-.16.19-.23.2-.32.01-.43,0-.61-.01-.1,0-.3,0-.28-.19-.12-1.03-.08-2.36.07-3.39.21-1.38,1.16-.95,1.09.1Z"/>
    </g>
  </g>
</svg>