<?xml version="1.0" encoding="utf-8"?>
<!-- Generator: Adobe Illustrator 18.0.0, SVG Export Plug-In . SVG Version: 6.00 Build 0)  -->
<!DOCTYPE svg PUBLIC "-//W3C//DTD SVG 1.1//EN" "http://www.w3.org/Graphics/SVG/1.1/DTD/svg11.dtd">
<svg version="1.1" xmlns="http://www.w3.org/2000/svg" xmlns:xlink="http://www.w3.org/1999/xlink" x="0px" y="0px"
	 viewBox="0 0 36.9 1080" enable-background="new 0 0 36.9 1080" xml:space="preserve">
  <g id="Layer_2">
  </g>
  <g id="Layer_1">
    <g>
      <defs>
        <rect id="SVGID_37_" x="0.1" width="72" height="1080"/>
      </defs>
      <clipPath id="SVGID_1_">
        <use xlink:href="#SVGID_37_"  overflow="visible"/>
      </clipPath>
      <polygon clip-path="url(#SVGID_1_)" fill="#333333" points="36.9,53 -29.9,17.3 -29.9,-36.5 36.9,-0.8 		"/>
      <polygon clip-path="url(#SVGID_1_)" fill="#333333" points="36.9,143 -29.9,107.3 -29.9,53.5 36.9,89.2 		"/>
      <polygon clip-path="url(#SVGID_1_)" fill="#333333" points="36.9,233 -29.9,197.3 -29.9,143.5 36.9,179.2 		"/>
      <polygon clip-path="url(#SVGID_1_)" fill="#333333" points="36.9,323 -29.9,287.3 -29.9,233.5 36.9,269.2 		"/>
      <polygon clip-path="url(#SVGID_1_)" fill="#F4C848" points="36.9,450.5 -29.9,414.8 -29.9,361 36.9,396.7 		"/>
      <polygon clip-path="url(#SVGID_1_)" fill="#333333" points="36.9,503 -29.9,467.3 -29.9,413.5 36.9,449.2 		"/>
      <polygon clip-path="url(#SVGID_1_)" fill="#333333" points="36.9,593 -29.9,557.3 -29.9,503.5 36.9,539.2 		"/>
      <polygon clip-path="url(#SVGID_1_)" fill="#333333" points="36.9,683 -29.9,647.3 -29.9,593.5 36.9,629.2 		"/>
      <polygon clip-path="url(#SVGID_1_)" fill="#333333" points="36.9,773 -29.9,737.3 -29.9,683.5 36.9,719.2 		"/>
      <polygon clip-path="url(#SVGID_1_)" fill="#333333" points="36.9,863 -29.9,827.3 -29.9,773.5 36.9,809.2 		"/>
      <polygon clip-path="url(#SVGID_1_)" fill="#333333" points="36.9,953 -29.9,917.3 -29.9,863.5 36.9,899.2 		"/>
      <polygon clip-path="url(#SVGID_1_)" fill="#333333" points="36.9,1043 -29.9,1007.3 -29.9,953.5 36.9,989.2 		"/>
      <polygon clip-path="url(#SVGID_1_)" fill="#333333" points="36.9,1133 -29.9,1097.3 -29.9,1043.5 36.9,1079.2 		"/>
      <polygon clip-path="url(#SVGID_1_)" fill="#333333" points="36.9,413 -29.9,377.3 -29.9,323.5 36.9,359.2 		"/>
    </g>
  </g>
</svg>
