<?xml version="1.0" encoding="UTF-8"?>
<svg id="_Шар_2" data-name="Шар 2" xmlns="http://www.w3.org/2000/svg" viewBox="0 0 452.99 284.27">
  <defs>
    <style>
      .cls-1, .cls-2, .cls-3 {
        stroke-width: 0px;
      }

      .cls-2 {
        fill: #ffd000;
      }

      .cls-3 {
        fill: #fff;
      }
    </style>
  </defs>
  <g id="Layer_1" data-name="Layer 1">
    <g>
      <rect class="cls-1" y="76.59" width="278.87" height="157.1"/>
      <polygon class="cls-1" points="41.54 0 214.45 92.3 214.45 231.41 41.54 139.1 41.54 0"/>
      <polygon class="cls-1" points="309.91 150.69 269.65 226.12 208.96 226.12 249.23 150.69 309.91 150.69"/>
      <polygon class="cls-1" points="17.34 156.83 106.61 204.49 106.61 276.31 17.34 228.65 17.34 156.83"/>
      <g>
        <path class="cls-3" d="m45.31,119.69v7.14h-3.87v-17.94h6.81c1.21,0,2.17.1,2.88.3.71.2,1.3.54,1.77,1.01.87.87,1.31,2.2,1.31,3.97,0,1.54-.25,2.71-.75,3.52-.5.8-1.33,1.37-2.49,1.71l3.87,7.44h-4.27l-3.37-7.14h-1.88Zm-.08-2.97h2.69c.89,0,1.52-.18,1.9-.54.38-.36.57-.98.57-1.85s-.19-1.49-.57-1.85c-.38-.36-1.03-.54-1.95-.54h-2.64v4.78Z"/>
        <path class="cls-3" d="m57.75,126.82v-17.94h11.33v3.14h-7.51v4.17h6.36v3.14h-6.36v4.35h7.62v3.14h-11.43Z"/>
        <path class="cls-3" d="m71.42,123.96l2.94-1.86c.77,1.26,2.08,1.88,3.92,1.88s2.81-.71,2.81-2.14c0-.74-.25-1.26-.75-1.58-.25-.17-.5-.29-.75-.36-.25-.08-1-.27-2.24-.59-1.86-.47-3.18-1.11-3.96-1.94-.78-.82-1.17-1.98-1.17-3.47,0-1.71.53-3.02,1.58-3.93,1.06-.91,2.56-1.37,4.52-1.37,2.85,0,4.84.97,5.98,2.92l-2.87,1.83c-.77-1.11-1.84-1.66-3.22-1.66-.74,0-1.31.18-1.71.53-.4.35-.6.84-.6,1.46,0,.69.23,1.21.7,1.57.47.36,1.35.71,2.64,1.04,1.16.29,1.96.51,2.41.68.45.17.91.39,1.36.68,1.17.8,1.76,2.14,1.76,4.02s-.5,3.12-1.48,4c-1.12.97-2.81,1.46-5.05,1.46-2.04,0-3.72-.4-5.03-1.21-.7-.45-1.31-1.11-1.81-1.96Z"/>
        <path class="cls-3" d="m91.45,120.57v6.26h-3.87v-17.94h6.13c1.31,0,2.34.11,3.1.33.76.22,1.39.59,1.9,1.11.9.96,1.36,2.42,1.36,4.4,0,2.16-.54,3.7-1.61,4.62-.94.82-2.52,1.23-4.75,1.23h-2.26Zm-.08-3.09h2.36c.91,0,1.55-.21,1.92-.63.38-.42.57-1.13.57-2.14s-.19-1.72-.57-2.14c-.38-.42-1.02-.63-1.92-.63h-2.36v5.53Z"/>
        <path class="cls-3" d="m102.76,119.96v-4.22c0-1.36.11-2.44.34-3.24.23-.8.62-1.49,1.17-2.06.6-.65,1.32-1.12,2.14-1.41.82-.28,1.87-.43,3.14-.43,1.36,0,2.48.17,3.37.5.89.34,1.62.88,2.21,1.63.82,1.06,1.23,2.72,1.23,5v4.22c0,1.36-.11,2.44-.34,3.24-.23.8-.62,1.49-1.17,2.06-.6.65-1.32,1.12-2.14,1.41-.82.28-1.88.43-3.17.43-1.36,0-2.48-.17-3.36-.5-.88-.34-1.61-.88-2.2-1.63-.82-1.04-1.23-2.71-1.23-5Zm9.73-.33v-3.57c0-1.62-.21-2.76-.64-3.39-.43-.64-1.19-.96-2.28-.96s-1.87.31-2.3.94c-.43.63-.64,1.76-.64,3.41v3.57c0,1.63.21,2.76.64,3.39.43.64,1.18.95,2.27.95s1.87-.31,2.3-.94c.43-.63.64-1.76.64-3.41Z"/>
        <path class="cls-3" d="m119.95,126.82v-17.94h3.74l6.36,11.49v-11.49h3.74v17.94h-3.74l-6.36-11.49v11.49h-3.74Z"/>
        <path class="cls-3" d="m136.09,123.96l2.94-1.86c.77,1.26,2.08,1.88,3.92,1.88s2.81-.71,2.81-2.14c0-.74-.25-1.26-.75-1.58-.25-.17-.5-.29-.75-.36-.25-.08-1-.27-2.24-.59-1.86-.47-3.18-1.11-3.96-1.94-.78-.82-1.17-1.98-1.17-3.47,0-1.71.53-3.02,1.58-3.93,1.06-.91,2.56-1.37,4.52-1.37,2.85,0,4.84.97,5.98,2.92l-2.87,1.83c-.77-1.11-1.84-1.66-3.22-1.66-.74,0-1.31.18-1.71.53-.4.35-.6.84-.6,1.46,0,.69.23,1.21.7,1.57.47.36,1.35.71,2.64,1.04,1.16.29,1.96.51,2.41.68.45.17.91.39,1.36.68,1.17.8,1.76,2.14,1.76,4.02s-.5,3.12-1.48,4c-1.12.97-2.81,1.46-5.05,1.46-2.04,0-3.72-.4-5.03-1.21-.7-.45-1.31-1.11-1.81-1.96Z"/>
        <path class="cls-3" d="m152.25,126.82v-17.94h3.87v17.94h-3.87Z"/>
        <path class="cls-3" d="m160.14,126.82v-17.94h7.09c1.09,0,1.95.08,2.58.25.63.17,1.18.45,1.65.85.97.84,1.46,2.1,1.46,3.8s-.5,2.88-1.51,3.67c.57.49.94.86,1.11,1.13.49.77.73,1.84.73,3.22,0,1.88-.55,3.24-1.66,4.1-.85.62-2.2.93-4.02.93h-7.41Zm3.84-10.66h2.97c.77,0,1.32-.16,1.65-.49.33-.33.49-.87.49-1.62s-.16-1.32-.49-1.63c-.33-.32-.88-.48-1.65-.48h-2.97v4.22Zm0,7.59h3.29c.75,0,1.29-.18,1.62-.53.33-.35.49-.93.49-1.73s-.16-1.4-.49-1.75c-.33-.34-.87-.52-1.62-.52h-3.29v4.52Z"/>
        <path class="cls-3" d="m176.1,126.82v-17.94h3.87v17.94h-3.87Z"/>
        <path class="cls-3" d="m183.99,126.82v-17.94h3.87v14.8h7.57v3.14h-11.44Z"/>
        <path class="cls-3" d="m197.71,126.82v-17.94h3.87v17.94h-3.87Z"/>
        <path class="cls-3" d="m209.07,126.82v-14.8h-4.78v-3.14h13.4v3.14h-4.75v14.8h-3.87Z"/>
        <path class="cls-3" d="m224.65,126.82v-6.46l-5.53-11.49h4.1l3.37,7.67,3.37-7.67h4.1l-5.53,11.49v6.46h-3.87Z"/>
        <path class="cls-2" d="m54.43,193.59v-44.03h-14.2v-9.34h39.84v9.34h-14.13v44.03h-11.51Z"/>
        <path class="cls-2" d="m85.37,173.18v-12.56c0-4.04.34-7.25,1.01-9.64.67-2.39,1.83-4.43,3.48-6.13,1.79-1.94,3.91-3.34,6.35-4.19,2.44-.85,5.56-1.27,9.34-1.27,4.04,0,7.37.5,10.02,1.49,2.64,1,4.83,2.62,6.58,4.86,2.44,3.14,3.66,8.1,3.66,14.87v12.56c0,4.04-.34,7.25-1.01,9.64-.67,2.39-1.83,4.44-3.48,6.13-1.79,1.94-3.91,3.34-6.35,4.19-2.44.85-5.58,1.27-9.42,1.27-4.04,0-7.36-.5-9.98-1.49-2.62-1-4.8-2.62-6.54-4.86-2.44-3.09-3.66-8.05-3.66-14.87Zm28.93-.97v-10.61c0-4.83-.64-8.2-1.91-10.09-1.27-1.89-3.53-2.84-6.76-2.84s-5.57.93-6.84,2.8c-1.27,1.87-1.91,5.25-1.91,10.13v10.61c0,4.83.63,8.2,1.91,10.09,1.27,1.89,3.52,2.84,6.76,2.84s5.57-.93,6.84-2.8c1.27-1.87,1.91-5.24,1.91-10.13Z"/>
        <path class="cls-2" d="m151.45,193.59v-53.37h21.08c3.24,0,5.79.25,7.66.75,1.87.5,3.5,1.35,4.9,2.54,2.89,2.49,4.33,6.25,4.33,11.29s-1.5,8.57-4.49,10.91c1.69,1.45,2.79,2.57,3.29,3.36,1.45,2.29,2.17,5.48,2.17,9.57,0,5.58-1.64,9.64-4.93,12.18-2.54,1.84-6.53,2.77-11.96,2.77h-22.05Zm11.44-31.69h8.82c2.29,0,3.92-.49,4.9-1.46s1.46-2.58,1.46-4.82-.49-3.91-1.46-4.86c-.97-.95-2.6-1.42-4.9-1.42h-8.82v12.56Zm0,22.57h9.79c2.24,0,3.85-.52,4.82-1.57.97-1.05,1.46-2.77,1.46-5.16s-.49-4.17-1.46-5.2c-.97-1.02-2.58-1.53-4.82-1.53h-9.79v13.45Z"/>
        <path class="cls-2" d="m198.99,193.59v-53.37h33.71v9.34h-22.35v12.41h18.91v9.34h-18.91v12.93h22.65v9.34h-34.01Z"/>
      </g>
      <polygon class="cls-1" points="17.34 146.86 106.61 194.52 106.61 281.03 17.34 233.37 17.34 146.86"/>
      <g>
        <path class="cls-1" d="m334.31,100.25h6.83c0-.07-.02-.13-.02-.2v-2.67c0-1.67.76-3.18,1.93-4.24h-8.74v-9.44h17v-7.11h-25.65v40.6h25.87v-7.11h-17.23v-9.84Z"/>
        <path class="cls-1" d="m376.74,105.19l8.19.97c-.15,3.34-1.12,5.95-2.9,7.85-2.43,2.54-6.35,3.81-11.77,3.81s-9.65-1.63-12.11-4.89c-.99-1.33-1.68-2.86-2.08-4.61-.4-1.74-.6-4.06-.6-6.94v-8.87c0-3.15.25-5.64.74-7.48.49-1.84,1.33-3.42,2.5-4.75,2.54-2.81,6.39-4.21,11.54-4.21,4.59,0,8.03.98,10.32,2.93,2.29,1.95,3.53,5,3.73,9.13l-8.02.57c-.23-1.93-.82-3.35-1.76-4.24-.95-.89-2.33-1.34-4.15-1.34-2.31,0-3.92.72-4.81,2.16-.89,1.44-1.34,4.08-1.34,7.91v7.51c0,3.83.45,6.46,1.34,7.9.89,1.44,2.51,2.16,4.86,2.16,3.75,0,5.86-1.86,6.31-5.57Z"/>
        <path class="cls-1" d="m387.82,101.67v-9.55c0-3.07.26-5.52.77-7.34.51-1.82,1.39-3.37,2.64-4.66,1.36-1.48,2.98-2.54,4.83-3.18,1.86-.65,4.23-.97,7.11-.97,3.07,0,5.61.38,7.62,1.14,2.01.76,3.68,1.99,5,3.7,1.86,2.39,2.79,6.16,2.79,11.32v9.55c0,3.07-.26,5.52-.77,7.33-.51,1.82-1.39,3.38-2.64,4.66-1.36,1.48-2.98,2.54-4.83,3.18-1.86.64-4.25.97-7.17.97-3.07,0-5.6-.38-7.59-1.14-1.99-.76-3.65-1.99-4.98-3.7-1.86-2.35-2.79-6.12-2.79-11.32Zm22.01-.74v-8.08c0-3.68-.48-6.24-1.45-7.68-.97-1.44-2.68-2.16-5.15-2.16s-4.24.71-5.2,2.13-1.45,3.99-1.45,7.71v8.08c0,3.68.48,6.24,1.45,7.68.97,1.44,2.68,2.16,5.15,2.16s4.24-.71,5.2-2.13c.97-1.42,1.45-3.99,1.45-7.7Z"/>
        <path class="cls-1" d="m444.81,105.19l8.19.97c-.15,3.34-1.12,5.95-2.9,7.85-2.43,2.54-6.35,3.81-11.77,3.81s-9.65-1.63-12.11-4.89c-.99-1.33-1.68-2.86-2.08-4.61-.4-1.74-.6-4.06-.6-6.94v-8.87c0-3.15.25-5.64.74-7.48.49-1.84,1.33-3.42,2.5-4.75,2.54-2.81,6.39-4.21,11.54-4.21,4.59,0,8.03.98,10.32,2.93,2.29,1.95,3.53,5,3.73,9.13l-8.02.57c-.23-1.93-.82-3.35-1.76-4.24-.95-.89-2.33-1.34-4.15-1.34-2.31,0-3.92.72-4.81,2.16-.89,1.44-1.34,4.08-1.34,7.91v7.51c0,3.83.45,6.46,1.34,7.9.89,1.44,2.51,2.16,4.86,2.16,3.75,0,5.86-1.86,6.31-5.57Z"/>
        <path class="cls-1" d="m325.61,175.46v-40.6h8.76v33.49h17.12v7.11h-25.87Z"/>
        <path class="cls-1" d="m361.1,175.46l-13.65-40.6h8.76l8.76,29,8.76-29h8.76l-13.71,40.6h-7.68Z"/>
        <path class="cls-1" d="m386,175.46v-40.6h8.76v40.6h-8.76Z"/>
        <path class="cls-1" d="m411.88,175.46l-13.65-40.6h8.76l8.76,29,8.76-29h8.76l-13.71,40.6h-7.68Z"/>
        <path class="cls-1" d="m322.82,233.73v-5.63l11.37-13.65c2.05-2.46,3.58-4.7,4.61-6.71.72-1.44,1.08-2.94,1.08-4.49,0-2.46-1.27-3.7-3.81-3.7-1.86,0-3.15.78-3.87,2.33-.49.95-.8,1.97-.91,3.07l-8.02-.57c.38-7.92,4.74-11.88,13.08-11.88,3.94,0,6.96.97,9.04,2.9,2.08,1.93,3.13,4.72,3.13,8.36,0,3.03-.91,5.99-2.73,8.87-.72,1.18-1.35,2.09-1.88,2.73-.53.64-1.97,2.33-4.32,5.06l-5.35,6.2h14.22v7.11h-25.65Z"/>
        <path class="cls-1" d="m353.02,218.43v-10.01c0-5.53.93-9.48,2.79-11.83,1.17-1.44,2.55-2.48,4.12-3.13,1.57-.65,3.59-.97,6.06-.97,2.62,0,4.77.38,6.45,1.14,1.69.76,3.1,1.97,4.24,3.64,1.52,2.24,2.27,5.95,2.27,11.15v10.01c0,5.5-.93,9.44-2.79,11.83-1.18,1.44-2.55,2.48-4.12,3.13-1.57.64-3.59.97-6.06.97-2.62,0-4.77-.38-6.45-1.14-1.69-.76-3.1-1.97-4.24-3.64-1.52-2.31-2.27-6.03-2.27-11.15Zm17.34-.74v-8.53c0-3.68-.31-6.2-.94-7.56-.63-1.36-1.77-2.05-3.44-2.05s-2.82.69-3.44,2.08c-.63,1.38-.94,3.9-.94,7.54v8.53c0,3.64.31,6.15.94,7.53.63,1.38,1.77,2.08,3.44,2.08s2.82-.68,3.44-2.05c.63-1.36.94-3.89.94-7.56Z"/>
        <path class="cls-1" d="m389.87,215.7v-6.71h2.96c3.72,0,5.57-1.61,5.57-4.83s-1.31-4.61-3.92-4.61-4.02,1.44-4.44,4.32l-7.73-.57c.45-7.2,4.66-10.8,12.62-10.8,3.94,0,6.95.96,9.01,2.87,2.07,1.92,3.1,4.71,3.1,8.39,0,2.09-.31,3.78-.94,5.09s-1.68,2.46-3.16,3.44c1.9,1.21,3.21,2.55,3.95,4.01.74,1.46,1.11,3.4,1.11,5.83,0,8.15-4.32,12.23-12.97,12.23-5.5,0-9.35-1.48-11.54-4.44-1.29-1.74-2.01-4.04-2.16-6.88l8.19-.97c.38,3.49,2.1,5.23,5.18,5.23,1.52,0,2.67-.46,3.47-1.39.8-.93,1.19-2.26,1.19-4.01,0-1.9-.54-3.4-1.62-4.52-1.08-1.12-2.53-1.68-4.35-1.68h-3.53Z"/>
        <path class="cls-1" d="m412.16,218.43v-10.01c0-5.53.93-9.48,2.79-11.83,1.17-1.44,2.55-2.48,4.12-3.13,1.57-.65,3.59-.97,6.06-.97,2.62,0,4.77.38,6.45,1.14,1.69.76,3.1,1.97,4.24,3.64,1.52,2.24,2.27,5.95,2.27,11.15v10.01c0,5.5-.93,9.44-2.79,11.83-1.18,1.44-2.55,2.48-4.12,3.13-1.57.64-3.59.97-6.06.97-2.62,0-4.77-.38-6.45-1.14-1.69-.76-3.1-1.97-4.24-3.64-1.52-2.31-2.27-6.03-2.27-11.15Zm17.34-.74v-8.53c0-3.68-.31-6.2-.94-7.56-.63-1.36-1.77-2.05-3.44-2.05s-2.82.69-3.44,2.08c-.63,1.38-.94,3.9-.94,7.54v8.53c0,3.64.31,6.15.94,7.53.63,1.38,1.77,2.08,3.44,2.08s2.82-.68,3.44-2.05c.63-1.36.94-3.89.94-7.56Z"/>
      </g>
      <path class="cls-1" d="m330.72,92.55c.59,4.56.88,9.12.93,13.74.03,2.16-.29,4.44-.38,6.69.1,0,.2,0,.3,0,2.17.15,4.34.42,6.5.67l11.26-21.1h-18.61Z"/>
      <g>
        <path class="cls-1" d="m146.97,275.68l5.45.66c-.59,2.73-1.76,4.74-3.5,6.01-1.74,1.28-4.17,1.91-7.29,1.91s-5.5-.7-7-2.09c-1.37-1.31-2.05-3.1-2.05-5.37,0-.93.17-2.4.5-4.41l1.08-5.99c.36-2.14.78-3.76,1.26-4.85.48-1.09,1.18-2.09,2.11-3,1.86-1.78,4.48-2.67,7.88-2.67,3.04,0,5.32.64,6.84,1.93,1.37,1.24,2.05,2.87,2.05,4.91,0,.39-.05.84-.15,1.35l-5.53.39c.03-.23.04-.45.04-.66,0-2.09-1.12-3.13-3.36-3.13-1.6,0-2.78.48-3.56,1.45-.77.97-1.39,2.76-1.86,5.39l-.89,5.1c-.26,1.47-.39,2.62-.39,3.44,0,1.19.28,2.05.83,2.59.55.54,1.42.81,2.61.81,1.31,0,2.36-.3,3.15-.91.79-.61,1.37-1.57,1.76-2.88Z"/>
        <path class="cls-1" d="m170.78,278.66h-9.62l-2.55,5.18h-6.57l14.84-27.6h5.76l5.14,27.6h-6.3l-.7-5.18Zm-.58-4.79l-1.51-10.71-5.3,10.71h6.8Z"/>
        <path class="cls-1" d="m179.98,283.84l4.87-27.6h5.76l6.69,17.66,3.09-17.66h5.76l-4.87,27.6h-5.76l-6.65-17.66-3.13,17.66h-5.76Z"/>
        <path class="cls-1" d="m207.46,283.84l4.87-27.6h8.97c3.14,0,5.41.48,6.8,1.43,1.96,1.34,2.94,3.32,2.94,5.95,0,1.03-.14,2.4-.42,4.1l-1.08,6.03c-.49,3.48-1.69,6.04-3.59,7.67-1.91,1.64-4.62,2.44-8.16,2.42h-10.32Zm6.8-4.72h2.55c2.27.03,3.87-.41,4.79-1.29.93-.89,1.65-2.63,2.17-5.24l.93-5.1c.21-1.24.31-2.27.31-3.09,0-1.24-.38-2.12-1.14-2.65-.76-.53-2.04-.79-3.85-.79h-2.59l-3.17,18.17Z"/>
        <path class="cls-1" d="m233.32,283.84l4.87-27.6h5.95l-4.87,27.6h-5.95Z"/>
        <path class="cls-1" d="m245.46,283.84l4.87-27.6h8.97c3.14,0,5.41.48,6.8,1.43,1.96,1.34,2.94,3.32,2.94,5.95,0,1.03-.14,2.4-.42,4.1l-1.08,6.03c-.49,3.48-1.69,6.04-3.59,7.67-1.91,1.64-4.62,2.44-8.16,2.42h-10.32Zm6.8-4.72h2.55c2.27.03,3.87-.41,4.79-1.29.93-.89,1.65-2.63,2.17-5.24l.93-5.1c.21-1.24.31-2.27.31-3.09,0-1.24-.38-2.12-1.14-2.65-.76-.53-2.04-.79-3.85-.79h-2.59l-3.17,18.17Z"/>
        <path class="cls-1" d="m285.77,278.66h-9.62l-2.55,5.18h-6.57l14.84-27.6h5.76l5.14,27.6h-6.3l-.7-5.18Zm-.58-4.79l-1.51-10.71-5.3,10.71h6.8Z"/>
        <path class="cls-1" d="m297.72,283.84l4.02-22.81h-7.34l.85-4.79h20.6l-.85,4.79h-7.31l-4.02,22.81h-5.95Z"/>
        <path class="cls-1" d="m314.33,283.84l4.87-27.6h17.43l-.85,4.79h-11.56l-1.12,6.46h9.74l-.85,4.79h-9.74l-1.2,6.76h11.71l-.85,4.79h-17.59Z"/>
        <path class="cls-1" d="m367.56,275.68l5.45.66c-.59,2.73-1.76,4.74-3.5,6.01-1.74,1.28-4.17,1.91-7.29,1.91s-5.5-.7-7-2.09c-1.37-1.31-2.05-3.1-2.05-5.37,0-.93.17-2.4.5-4.41l1.08-5.99c.36-2.14.78-3.76,1.26-4.85.48-1.09,1.18-2.09,2.11-3,1.86-1.78,4.48-2.67,7.88-2.67,3.04,0,5.32.64,6.84,1.93,1.37,1.24,2.05,2.87,2.05,4.91,0,.39-.05.84-.15,1.35l-5.53.39c.03-.23.04-.45.04-.66,0-2.09-1.12-3.13-3.36-3.13-1.6,0-2.78.48-3.56,1.45-.77.97-1.39,2.76-1.86,5.39l-.89,5.1c-.26,1.47-.39,2.62-.39,3.44,0,1.19.28,2.05.83,2.59.55.54,1.42.81,2.61.81,1.31,0,2.36-.3,3.15-.91.79-.61,1.37-1.57,1.76-2.88Z"/>
        <path class="cls-1" d="m376.22,283.84l4.87-27.6h5.95l-4.87,27.6h-5.95Z"/>
        <path class="cls-1" d="m392.88,283.84l4.02-22.81h-7.34l.85-4.79h20.6l-.85,4.79h-7.3l-4.02,22.81h-5.95Z"/>
        <path class="cls-1" d="m415.91,283.84l1.74-9.93-5.37-17.66h6.15l3.09,11.79,7.27-11.79h6.46l-11.63,17.66-1.74,9.93h-5.95Z"/>
      </g>
    </g>
  </g>
</svg>