<?xml version="1.0" encoding="utf-8"?>
<!-- Generator: Adobe Illustrator 18.0.0, SVG Export Plug-In . SVG Version: 6.00 Build 0)  -->
<!DOCTYPE svg PUBLIC "-//W3C//DTD SVG 1.1//EN" "http://www.w3.org/Graphics/SVG/1.1/DTD/svg11.dtd">
<svg version="1.1" xmlns="http://www.w3.org/2000/svg" xmlns:xlink="http://www.w3.org/1999/xlink" x="0px" y="0px"
	 viewBox="0 0 664 844" enable-background="new 0 0 664 844" xml:space="preserve">
<g id="Layer_2">
</g>
<g id="Layer_1">
	<g>
		<text transform="matrix(1 0 0 1 41.4905 493.854)"><tspan x="0" y="0" fill="#F4C848" font-family="'GIZGravurTTCyr-CondBold'" font-size="70.7444">LVIV 2030</tspan><tspan x="0" y="75.3" fill="#F4C848" font-family="'GIZGravurTTCyr-CondBold'" font-size="70.7444">European</tspan><tspan x="0" y="150.6" fill="#F4C848" font-family="'GIZGravurTTCyr-CondBold'" font-size="70.7444">Capital of Culture</tspan><tspan x="0" y="225.9" fill="#333333" font-family="'GIZGravurTTCyr-Cond'" font-size="70.7444" letter-spacing="-1">Candidate</tspan><tspan x="0" y="301.2" fill="#333333" font-family="'GIZGravurTTCyr-Cond'" font-size="70.7444" letter-spacing="-1">City</tspan></text>
		
			<radialGradient id="SVGID_1_" cx="9342.291" cy="10.8887" r="47.5572" gradientTransform="matrix(2.0114 1.6302 -0.83 0.6495 -18531.0254 -14947.167)" gradientUnits="userSpaceOnUse">
			<stop  offset="0" style="stop-color:#000000"/>
			<stop  offset="0.6244" style="stop-color:#5F6163;stop-opacity:0.3499"/>
			<stop  offset="0.9604" style="stop-color:#8E9093;stop-opacity:0"/>
		</radialGradient>
		<path opacity="0.78" fill="url(#SVGID_1_)" d="M155.8,212.6c-21.8,17.1,3.4,65.6,56.2,108.4s113.3,63.7,135.1,46.6
			s-3.4-65.6-56.2-108.4S177.6,195.6,155.8,212.6z"/>
		
			<radialGradient id="SVGID_2_" cx="9364.6025" cy="-70.7015" r="30.8462" gradientTransform="matrix(1.8493 1.8076 -0.569 0.303 -17072.668 -16582.5332)" gradientUnits="userSpaceOnUse">
			<stop  offset="0" style="stop-color:#000000"/>
			<stop  offset="0.6244" style="stop-color:#5F6163;stop-opacity:0.3499"/>
			<stop  offset="0.9604" style="stop-color:#8E9093;stop-opacity:0"/>
		</radialGradient>
		<path opacity="0.59" fill="url(#SVGID_2_)" d="M228.3,268.1c-9.7,5.2,8,34.3,39.5,65.1s64.9,51.6,74.6,46.4
			c9.7-5.2-8-34.3-39.5-65.1S238,262.9,228.3,268.1z"/>
		
			<radialGradient id="SVGID_3_" cx="8779.4541" cy="-4871.0029" r="32.0377" gradientTransform="matrix(-0.1312 2.2255 -0.5794 -0.2074 -1346.4695 -20243.4395)" gradientUnits="userSpaceOnUse">
			<stop  offset="0" style="stop-color:#000000"/>
			<stop  offset="0.6244" style="stop-color:#5F6163;stop-opacity:0.3499"/>
			<stop  offset="0.9604" style="stop-color:#8E9093;stop-opacity:0"/>
		</radialGradient>
		<path opacity="0.59" fill="url(#SVGID_3_)" d="M327.4,242.2c-9.9-3.5-19.7,24.3-21.9,62.3c-2.2,37.9,4,71.5,13.8,75
			s19.7-24.3,21.9-62.3c0.8-12.9-0.9-62-1.9-72.9C337.4,223.3,333.9,244.5,327.4,242.2z"/>
		
			<radialGradient id="SVGID_4_" cx="9689.1562" cy="2018.7615" r="30.8462" gradientTransform="matrix(1.8906 0.6477 -0.3872 0.603 -17311.6719 -7197.5034)" gradientUnits="userSpaceOnUse">
			<stop  offset="0" style="stop-color:#000000"/>
			<stop  offset="0.6244" style="stop-color:#5F6163;stop-opacity:0.3499"/>
			<stop  offset="0.9604" style="stop-color:#8E9093;stop-opacity:0"/>
		</radialGradient>
		<path opacity="0.44" fill="url(#SVGID_4_)" d="M166.4,275.8c-6.6,10.3,14.2,27.5,46.4,38.6c32.2,11,63.7,11.7,70.3,1.4
			c6.6-10.3-14.2-27.5-46.4-38.6C204.4,266.1,173,265.5,166.4,275.8z"/>
		
			<radialGradient id="SVGID_5_" cx="9284.0107" cy="477.2012" r="47.5572" gradientTransform="matrix(2.2294 1.3166 -0.7254 0.7645 -20192.3398 -12385.3955)" gradientUnits="userSpaceOnUse">
			<stop  offset="0" style="stop-color:#000000"/>
			<stop  offset="0.6244" style="stop-color:#5F6163;stop-opacity:0.3499"/>
			<stop  offset="0.9604" style="stop-color:#8E9093;stop-opacity:0"/>
		</radialGradient>
		<path fill="url(#SVGID_5_)" d="M52.9,140.5c-19.1,20.1,13,64.4,71.5,99s121.5,46.3,140.5,26.3c19.1-20.1-13-64.4-71.5-99
			S71.9,120.5,52.9,140.5z"/>
		<polygon fill="#F4C848" points="328.7,364.9 183.7,287.5 183.7,170.9 328.7,248.3 		"/>
		<rect x="41.8" y="201.7" fill="#333333" width="269.3" height="57.2"/>
		<text transform="matrix(1 0 0 1 50.9561 247.5789)"><tspan x="0" y="0" fill="#F3F3F3" font-family="'URWDIN-Bold'" font-size="49.4398">E</tspan><tspan x="28.8" y="0" fill="#F3F3F3" font-family="'URWDIN-Bold'" font-size="49.4398">c</tspan><tspan x="58.9" y="0" fill="#F3F3F3" font-family="'URWDIN-Bold'" font-size="49.4398">oc  2030</tspan></text>
		
			<radialGradient id="SVGID_6_" cx="9783.9473" cy="-3395.6997" r="47.5572" gradientTransform="matrix(0.171 1.3693 -0.7434 -6.043163e-02 -4019.0325 -13419.5566)" gradientUnits="userSpaceOnUse">
			<stop  offset="0" style="stop-color:#000000"/>
			<stop  offset="0.6244" style="stop-color:#5F6163;stop-opacity:0.3499"/>
			<stop  offset="0.9604" style="stop-color:#8E9093;stop-opacity:0"/>
		</radialGradient>
		<path opacity="0.64" fill="url(#SVGID_6_)" d="M170.1,117.5c-19.5-1.6-31.7,26.3-27.2,62.2s24,66.4,43.5,68
			c19.5,1.6,31.7-26.3,27.2-62.2C209.1,149.5,189.6,119.1,170.1,117.5z"/>
		<polygon fill="#F4C848" points="187.8,235.7 42.8,158.3 42.8,41.7 187.8,119.1 		"/>
	</g>
</g>
</svg>
